SplineFontDB: 3.0
FontName: ElaineSans-BoldItalic
FullName: Elaine Sans Bold Italic
FamilyName: Elaine Sans
Weight: Bold
Copyright: Copyright (c) 2015 by Wei Huang. All rights reserved.
Version: 1.030;PS 001.030;hotconv 1.0.70;makeotf.lib2.5.58329
ItalicAngle: -13
UnderlinePosition: -250
UnderlineWidth: 50
Ascent: 760
Descent: 240
InvalidEm: 0
sfntRevision: 0x000107ae
LayerCount: 2
Layer: 0 1 "Back" 1
Layer: 1 1 "Fore" 0
XUID: [1021 288 1899785369 12409]
StyleMap: 0x0021
FSType: 4
OS2Version: 3
OS2_WeightWidthSlopeOnly: 0
OS2_UseTypoMetrics: 0
CreationTime: 1436215488
ModificationTime: 1543786113
PfmFamily: 81
TTFWeight: 700
TTFWidth: 5
LineGap: 0
VLineGap: 0
Panose: 0 0 8 0 0 0 0 0 0 0
OS2TypoAscent: 760
OS2TypoAOffset: 0
OS2TypoDescent: -240
OS2TypoDOffset: 0
OS2TypoLinegap: 173
OS2WinAscent: 930
OS2WinAOffset: 0
OS2WinDescent: 243
OS2WinDOffset: 0
HheadAscent: 930
HheadAOffset: 0
HheadDescent: -243
HheadDOffset: 0
OS2SubXSize: 650
OS2SubYSize: 600
OS2SubXOff: 0
OS2SubYOff: 75
OS2SupXSize: 650
OS2SupYSize: 600
OS2SupXOff: 0
OS2SupYOff: 350
OS2StrikeYSize: 50
OS2StrikeYPos: 300
OS2CapHeight: 660
OS2XHeight: 500
OS2Vendor: 'UKWN'
OS2CodePages: 20000093.00000000
OS2UnicodeRanges: 00000007.00000001.00000000.00000000
Lookup: 1 0 0 "'aalt' Access All Alternates lookup 0" { "'aalt' Access All Alternates lookup 0 subtable"  } ['aalt' ('DFLT' <'dflt' > 'grek' <'dflt' > 'latn' <'CAT ' 'MOL ' 'NLD ' 'ROM ' 'TRK ' 'dflt' > ) ]
Lookup: 3 0 0 "'aalt' Access All Alternates lookup 1" { "'aalt' Access All Alternates lookup 1 subtable"  } ['aalt' ('DFLT' <'dflt' > 'grek' <'dflt' > 'latn' <'CAT ' 'MOL ' 'NLD ' 'ROM ' 'TRK ' 'dflt' > ) ]
Lookup: 1 0 0 "'locl' Localized Forms in Latin lookup 2" { "'locl' Localized Forms in Latin lookup 2 subtable"  } ['locl' ('latn' <'TRK ' > ) ]
Lookup: 1 0 0 "'locl' Localized Forms in Latin lookup 3" { "'locl' Localized Forms in Latin lookup 3 subtable"  } ['locl' ('latn' <'TAT ' > ) ]

StartChar: .notdef
Encoding: 65536 -1 0
Width: 500
Flags: W
LayerCount: 2
Fore
SplineSet
-14 0 m 1,0,-1
 138.373046875 660 l 1,1,-1
 538.373046875 660 l 1,2,-1
 386 0 l 1,3,-1
 -14 0 l 1,0,-1
84.4697265625 80 m 1,4,-1
 324.469726562 80 l 1,5,-1
 439.903320312 580 l 1,6,-1
 199.903320312 580 l 1,7,-1
 84.4697265625 80 l 1,4,-1
EndSplineSet
EndChar

StartChar: exclam
Encoding: 33 33 4
Width: 301
GlyphClass: 2
Flags: W
LayerCount: 2
Fore
SplineSet
327.373046875 660 m 1,0,-1
 278.198242188 447 l 1,1,-1
 205.63671875 215 l 1,2,-1
 66.63671875 215 l 1,3,-1
 101.198242188 447 l 1,4,-1
 150.373046875 660 l 1,5,-1
 327.373046875 660 l 1,0,-1
122.708007812 159 m 128,-1,7
 167.708007812 159 167.708007812 159 188.62890625 137 c 128,-1,8
 209.549804688 115 209.549804688 115 200.315429688 75 c 0,9,10
 191.311523438 36 191.311523438 36 160.232421875 14 c 128,-1,11
 129.153320312 -8 129.153320312 -8 84.1533203125 -8 c 128,-1,12
 39.1533203125 -8 39.1533203125 -8 18.732421875 14 c 128,-1,13
 -1.6884765625 36 -1.6884765625 36 7.3154296875 75 c 0,14,15
 16.5498046875 115 16.5498046875 115 47.12890625 137 c 128,-1,6
 77.7080078125 159 77.7080078125 159 122.708007812 159 c 128,-1,7
EndSplineSet
Substitution2: "'smcp' Lowercase to Small Capitals lookup 12 subtable" exclam.sc
Substitution2: "'c2sc' Capitals to Small Capitals lookup 11 subtable" exclam.sc
Substitution2: "'aalt' Access All Alternates lookup 0 subtable" exclam.sc
EndChar

StartChar: quotedbl
Encoding: 34 34 5
Width: 447
GlyphClass: 2
Flags: W
LayerCount: 2
Fore
SplineSet
297.528320312 678 m 1,0,-1
 204.578125 401 l 1,1,-1
 91.578125 401 l 1,2,-1
 155.528320312 678 l 1,3,-1
 297.528320312 678 l 1,0,-1
495.528320312 678 m 1,4,-1
 402.578125 401 l 1,5,-1
 289.578125 401 l 1,6,-1
 353.528320312 678 l 1,7,-1
 495.528320312 678 l 1,4,-1
EndSplineSet
Substitution2: "'smcp' Lowercase to Small Capitals lookup 12 subtable" quotedbl.sc
Substitution2: "'c2sc' Capitals to Small Capitals lookup 11 subtable" quotedbl.sc
Substitution2: "'aalt' Access All Alternates lookup 0 subtable" quotedbl.sc
EndChar

StartChar: numbersign
Encoding: 35 35 6
Width: 604
GlyphClass: 2
Flags: W
LayerCount: 2
Fore
SplineSet
617.34765625 400 m 1,0,-1
 510.34765625 400 l 1,1,-1
 456.487304688 262 l 1,2,-1
 552.487304688 262 l 1,3,-1
 528.938476562 160 l 1,4,-1
 417.938476562 160 l 1,5,-1
 356 0 l 1,6,-1
 257 0 l 1,7,-1
 318.938476562 160 l 1,8,-1
 184.938476562 160 l 1,9,-1
 124 0 l 1,10,-1
 25 0 l 1,11,-1
 86.9384765625 160 l 1,12,-1
 -13.0615234375 160 l 1,13,-1
 10.4873046875 262 l 1,14,-1
 125.487304688 262 l 1,15,-1
 179.34765625 400 l 1,16,-1
 75.34765625 400 l 1,17,-1
 98.8955078125 502 l 1,18,-1
 217.895507812 502 l 1,19,-1
 279.373046875 660 l 1,20,-1
 378.373046875 660 l 1,21,-1
 316.895507812 502 l 1,22,-1
 450.895507812 502 l 1,23,-1
 511.373046875 660 l 1,24,-1
 610.373046875 660 l 1,25,-1
 549.895507812 502 l 1,26,-1
 640.895507812 502 l 1,27,-1
 617.34765625 400 l 1,0,-1
358.487304688 262 m 1,28,-1
 411.34765625 400 l 1,29,-1
 277.34765625 400 l 1,30,-1
 224.487304688 262 l 1,31,-1
 358.487304688 262 l 1,28,-1
EndSplineSet
Substitution2: "'tnum' Tabular Numbers lookup 26 subtable" numbersign.tf
Substitution2: "'aalt' Access All Alternates lookup 0 subtable" numbersign.tf
EndChar

StartChar: dollar
Encoding: 36 36 7
Width: 604
GlyphClass: 2
Flags: W
LayerCount: 2
Fore
SplineSet
384.422851562 383 m 1,0,1
 418.575195312 375 418.575195312 375 441.84375 367.5 c 128,-1,2
 465.112304688 360 465.112304688 360 492.034179688 344.5 c 128,-1,3
 518.956054688 329 518.956054688 329 532.569335938 310 c 128,-1,4
 546.182617188 291 546.182617188 291 552.141601562 260.5 c 128,-1,5
 558.099609375 230 558.099609375 230 549.095703125 191 c 0,6,7
 530.857421875 112 530.857421875 112 461.9296875 62.5 c 128,-1,8
 393.000976562 13 393.000976562 13 296.692382812 3 c 1,9,-1
 275.68359375 -88 l 1,10,-1
 178.68359375 -88 l 1,11,-1
 199.461914062 2 l 1,12,13
 42.232421875 14 42.232421875 14 -8.91015625 126 c 1,14,-1
 105.9453125 225 l 1,15,16
 112.479492188 184 112.479492188 184 146.24609375 157 c 128,-1,17
 180.012695312 130 180.012695312 130 226.704101562 120 c 1,18,-1
 261.565429688 271 l 1,19,20
 217.874023438 281 217.874023438 281 189.797851562 291.5 c 128,-1,21
 161.72265625 302 161.72265625 302 132.33984375 322 c 128,-1,22
 102.95703125 342 102.95703125 342 93.421875 376.5 c 128,-1,23
 83.88671875 411 83.88671875 411 94.7373046875 458 c 0,24,25
 112.9765625 537 112.9765625 537 181.55859375 591.5 c 128,-1,26
 250.140625 646 250.140625 646 350.680664062 657 c 1,27,-1
 371.689453125 748 l 1,28,-1
 468.689453125 748 l 1,29,-1
 447.911132812 658 l 1,30,31
 520.294921875 651 520.294921875 651 560.715820312 622.5 c 128,-1,32
 601.135742188 594 601.135742188 594 637.4375 539 c 1,33,-1
 528.274414062 443 l 1,34,35
 507.206054688 525 507.206054688 525 420.899414062 541 c 1,36,-1
 384.422851562 383 l 1,0,1
241.045898438 468 m 0,37,38
 231.811523438 428 231.811523438 428 292.732421875 406 c 1,39,-1
 323.4375 539 l 1,40,41
 253.744140625 523 253.744140625 523 241.045898438 468 c 0,37,38
323.473632812 119 m 1,42,43
 392.474609375 132 392.474609375 132 404.479492188 184 c 0,44,45
 414.17578125 226 414.17578125 226 353.254882812 248 c 1,46,-1
 323.473632812 119 l 1,42,43
EndSplineSet
Substitution2: "'tnum' Tabular Numbers lookup 26 subtable" dollar.tf
Substitution2: "'aalt' Access All Alternates lookup 0 subtable" dollar.tf
EndChar

StartChar: percent
Encoding: 37 37 8
Width: 938
GlyphClass: 2
Flags: W
LayerCount: 2
Fore
SplineSet
306.681640625 670 m 128,-1,1
 390.681640625 670 390.681640625 670 429.791992188 618.5 c 128,-1,2
 468.90234375 567 468.90234375 567 449.278320312 482 c 128,-1,3
 429.654296875 397 429.654296875 397 366.764648438 345.5 c 128,-1,4
 303.875 294 303.875 294 219.875 294 c 128,-1,5
 135.875 294 135.875 294 96.7646484375 345.5 c 128,-1,6
 57.654296875 397 57.654296875 397 77.2783203125 482 c 128,-1,7
 96.90234375 567 96.90234375 567 159.791992188 618.5 c 128,-1,0
 222.681640625 670 222.681640625 670 306.681640625 670 c 128,-1,1
111 0 m 1,8,-1
 722.603515625 661 l 1,9,-1
 852.603515625 661 l 1,10,-1
 241 0 l 1,11,-1
 111 0 l 1,8,-1
280.362304688 556 m 0,12,13
 221.362304688 556 221.362304688 556 204.278320312 482 c 128,-1,14
 187.194335938 408 187.194335938 408 246.194335938 408 c 0,15,16
 306.194335938 408 306.194335938 408 323.278320312 482 c 128,-1,17
 340.362304688 556 340.362304688 556 280.362304688 556 c 0,12,13
741.498046875 366 m 128,-1,19
 825.498046875 366 825.498046875 366 864.608398438 314.5 c 128,-1,20
 903.71875 263 903.71875 263 884.094726562 178 c 128,-1,21
 864.470703125 93 864.470703125 93 801.581054688 41.5 c 128,-1,22
 738.69140625 -10 738.69140625 -10 654.69140625 -10 c 128,-1,23
 570.69140625 -10 570.69140625 -10 531.581054688 41.5 c 128,-1,24
 492.470703125 93 492.470703125 93 512.094726562 178 c 128,-1,25
 531.71875 263 531.71875 263 594.608398438 314.5 c 128,-1,18
 657.498046875 366 657.498046875 366 741.498046875 366 c 128,-1,19
715.178710938 252 m 0,26,27
 686.178710938 252 686.178710938 252 666.176757812 232.5 c 128,-1,28
 646.174804688 213 646.174804688 213 638.094726562 178 c 128,-1,29
 630.013671875 143 630.013671875 143 641.012695312 123.5 c 128,-1,30
 652.010742188 104 652.010742188 104 681.010742188 104 c 0,31,32
 741.010742188 104 741.010742188 104 758.094726562 178 c 128,-1,33
 775.178710938 252 775.178710938 252 715.178710938 252 c 0,26,27
EndSplineSet
EndChar

StartChar: ampersand
Encoding: 38 38 9
Width: 646
GlyphClass: 2
Flags: W
LayerCount: 2
Fore
SplineSet
603.165039062 109 m 1,0,-1
 560.69140625 -10 l 1,1,2
 504.69140625 -10 504.69140625 -10 468.961914062 2 c 128,-1,3
 433.232421875 14 433.232421875 14 395.004882812 52 c 1,4,5
 308.69140625 -10 308.69140625 -10 190.69140625 -10 c 0,6,7
 86.69140625 -10 86.69140625 -10 34.0419921875 37 c 128,-1,8
 -18.607421875 84 -18.607421875 84 0.0166015625 169 c 0,9,10
 12.4833984375 223 12.4833984375 223 54.6806640625 271.5 c 128,-1,11
 96.8779296875 320 96.8779296875 320 176.111328125 347 c 1,12,13
 147.193359375 395 147.193359375 395 140.926757812 428.5 c 128,-1,14
 134.661132812 462 134.661132812 462 143.895507812 502 c 0,15,16
 159.594726562 570 159.594726562 570 223.138671875 620 c 128,-1,17
 286.681640625 670 286.681640625 670 383.681640625 670 c 0,18,19
 478.681640625 670 478.681640625 670 520.0234375 626 c 128,-1,20
 561.365234375 582 561.365234375 582 545.666015625 514 c 0,21,22
 517.26953125 391 517.26953125 391 360.87890625 333 c 1,23,24
 384.029296875 299 384.029296875 299 395.874023438 281 c 2,25,-1
 446.250976562 209 l 1,26,27
 485.1796875 265 485.1796875 265 499.264648438 339 c 1,28,-1
 611.571289062 336 l 1,29,30
 584.560546875 219 584.560546875 219 502.321289062 140 c 1,31,32
 542.548828125 102 542.548828125 102 603.165039062 109 c 1,0,-1
361.82421875 558 m 0,33,34
 333.82421875 558 333.82421875 558 314.014648438 541.5 c 128,-1,35
 294.206054688 525 294.206054688 525 287.510742188 496 c 0,36,37
 282.893554688 476 282.893554688 476 288.776367188 456 c 128,-1,38
 294.658203125 436 294.658203125 436 317.885742188 398 c 1,39,40
 364.349609375 426 364.349609375 426 382.890625 450 c 128,-1,41
 401.431640625 474 401.431640625 474 408.357421875 504 c 0,42,43
 420.82421875 558 420.82421875 558 361.82421875 558 c 0,33,34
233.548828125 102 m 0,44,45
 285.548828125 102 285.548828125 102 335.166015625 122 c 1,46,47
 322.859375 138 322.859375 138 291.017578125 182 c 0,48,49
 245.33203125 244 245.33203125 244 225.02734375 273 c 1,50,51
 187.486328125 249 187.486328125 249 171.252929688 228.5 c 128,-1,52
 155.020507812 208 155.020507812 208 148.787109375 181 c 0,53,54
 140.70703125 146 140.70703125 146 164.127929688 124 c 128,-1,55
 187.548828125 102 187.548828125 102 233.548828125 102 c 0,44,45
EndSplineSet
Substitution2: "'smcp' Lowercase to Small Capitals lookup 12 subtable" ampersand.sc
Substitution2: "'c2sc' Capitals to Small Capitals lookup 11 subtable" ampersand.sc
Substitution2: "'aalt' Access All Alternates lookup 0 subtable" ampersand.sc
EndChar

StartChar: quotesingle
Encoding: 39 39 10
Width: 250
GlyphClass: 2
Flags: W
LayerCount: 2
Fore
SplineSet
297.528320312 678 m 1,0,-1
 204.578125 401 l 1,1,-1
 91.578125 401 l 1,2,-1
 155.528320312 678 l 1,3,-1
 297.528320312 678 l 1,0,-1
EndSplineSet
Substitution2: "'smcp' Lowercase to Small Capitals lookup 12 subtable" quotesingle.sc
Substitution2: "'c2sc' Capitals to Small Capitals lookup 11 subtable" quotesingle.sc
Substitution2: "'aalt' Access All Alternates lookup 0 subtable" quotesingle.sc
EndChar

StartChar: parenleft
Encoding: 40 40 11
Width: 391
GlyphClass: 2
Flags: W
LayerCount: 2
Fore
SplineSet
406.918945312 736 m 1,0,-1
 468.911132812 658 l 1,1,2
 365.134765625 581 365.134765625 581 307.086914062 492 c 128,-1,3
 249.040039062 403 249.040039062 403 219.02734375 273 c 0,4,5
 188.783203125 142 188.783203125 142 205.736328125 53 c 128,-1,6
 222.688476562 -36 222.688476562 -36 290.912109375 -113 c 1,7,-1
 192.904296875 -191 l 1,8,9
 -5.080078125 -35 -5.080078125 -35 66.02734375 273 c 0,10,11
 136.903320312 580 136.903320312 580 406.918945312 736 c 1,0,-1
EndSplineSet
Substitution2: "'case' Case-Sensitive Forms lookup 29 subtable" parenleft.case
Substitution2: "'sups' Superscript lookup 15 subtable" uni207D
Substitution2: "'subs' Subscript lookup 14 subtable" uni208D
Substitution2: "'sinf' Scientific Inferiors lookup 13 subtable" uni208D
AlternateSubs2: "'aalt' Access All Alternates lookup 1 subtable" uni208D uni207D parenleft.case
EndChar

StartChar: parenright
Encoding: 41 41 12
Width: 391
GlyphClass: 2
Flags: W
LayerCount: 2
Fore
SplineSet
195.918945312 736 m 1,0,1
 393.672851562 579 393.672851562 579 323.02734375 273 c 0,2,3
 252.150390625 -34 252.150390625 -34 -18.095703125 -191 c 1,4,-1
 -80.087890625 -113 l 1,5,6
 23.6884765625 -36 23.6884765625 -36 81.1201171875 52.5 c 128,-1,7
 138.552734375 141 138.552734375 141 169.02734375 273 c 0,8,9
 199.040039062 403 199.040039062 403 182.086914062 492 c 128,-1,10
 165.134765625 581 165.134765625 581 97.9111328125 658 c 1,11,-1
 195.918945312 736 l 1,0,1
EndSplineSet
Substitution2: "'case' Case-Sensitive Forms lookup 29 subtable" parenright.case
Substitution2: "'sups' Superscript lookup 15 subtable" uni207E
Substitution2: "'subs' Subscript lookup 14 subtable" uni208E
Substitution2: "'sinf' Scientific Inferiors lookup 13 subtable" uni208E
AlternateSubs2: "'aalt' Access All Alternates lookup 1 subtable" uni208E uni207E parenright.case
EndChar

StartChar: asterisk
Encoding: 42 42 13
Width: 588
GlyphClass: 2
Flags: W
LayerCount: 2
Fore
SplineSet
413.276367188 456 m 1,0,-1
 439.887695312 424 l 1,1,-1
 497.723632812 315 l 1,2,-1
 383.33203125 244 l 1,3,-1
 331.419921875 357 l 1,4,-1
 322.116210938 399 l 1,5,-1
 292.419921875 357 l 1,6,-1
 188.33203125 244 l 1,7,-1
 107.723632812 315 l 1,8,-1
 215.887695312 424 l 1,9,-1
 257.276367188 456 l 1,10,-1
 211.430664062 461 l 1,11,-1
 90.4345703125 500 l 1,12,-1
 153.984375 615 l 1,13,-1
 272.594726562 570 l 1,14,-1
 308.28515625 547 l 1,15,-1
 309.905273438 593 l 1,16,-1
 337.534179688 730 l 1,17,-1
 458.534179688 730 l 1,18,-1
 423.905273438 593 l 1,19,-1
 404.28515625 547 l 1,20,-1
 450.594726562 570 l 1,21,-1
 590.984375 615 l 1,22,-1
 601.434570312 500 l 1,23,-1
 460.430664062 461 l 1,24,-1
 413.276367188 456 l 1,0,-1
EndSplineSet
EndChar

StartChar: plus
Encoding: 43 43 14
Width: 604
GlyphClass: 2
Flags: W
LayerCount: 2
Fore
SplineSet
578.115234375 386 m 1,0,-1
 549.94921875 264 l 1,1,-1
 366.94921875 264 l 1,2,-1
 319.852539062 60 l 1,3,-1
 184.852539062 60 l 1,4,-1
 231.94921875 264 l 1,5,-1
 47.94921875 264 l 1,6,-1
 76.115234375 386 l 1,7,-1
 260.115234375 386 l 1,8,-1
 306.981445312 589 l 1,9,-1
 441.981445312 589 l 1,10,-1
 395.115234375 386 l 1,11,-1
 578.115234375 386 l 1,0,-1
EndSplineSet
Substitution2: "'sups' Superscript lookup 15 subtable" uni207A
Substitution2: "'subs' Subscript lookup 14 subtable" uni208A
Substitution2: "'sinf' Scientific Inferiors lookup 13 subtable" uni208A
AlternateSubs2: "'aalt' Access All Alternates lookup 1 subtable" uni208A uni207A
EndChar

StartChar: comma
Encoding: 44 44 15
Width: 304
GlyphClass: 2
Flags: W
LayerCount: 2
Fore
SplineSet
126.708984375 172 m 0,0,1
 179.708984375 172 179.708984375 172 198.8984375 136 c 128,-1,2
 218.086914062 100 218.086914062 100 204.927734375 43 c 0,3,4
 189.690429688 -23 189.690429688 -23 141.954101562 -76 c 128,-1,5
 94.2177734375 -129 94.2177734375 -129 19.5224609375 -158 c 1,6,-1
 -43.2412109375 -105 l 1,7,8
 64.30078125 -68 64.30078125 -68 106.461914062 2 c 1,9,-1
 102.154296875 5 l 1,10,11
 89.615234375 -6 89.615234375 -6 69.615234375 -6 c 0,12,13
 36.615234375 -6 36.615234375 -6 16.578125 15.5 c 128,-1,14
 -3.4580078125 37 -3.4580078125 37 6.0078125 78 c 0,15,16
 16.396484375 123 16.396484375 123 49.052734375 147.5 c 128,-1,17
 81.708984375 172 81.708984375 172 126.708984375 172 c 0,0,1
EndSplineSet
Substitution2: "'tnum' Tabular Numbers lookup 26 subtable" comma.tf
Substitution2: "'sups' Superscript lookup 15 subtable" commasuperior
Substitution2: "'subs' Subscript lookup 14 subtable" commainferior
Substitution2: "'sinf' Scientific Inferiors lookup 13 subtable" commainferior
AlternateSubs2: "'aalt' Access All Alternates lookup 1 subtable" commainferior commasuperior comma.tf
EndChar

StartChar: hyphen
Encoding: 45 45 16
Width: 528
GlyphClass: 2
Flags: W
LayerCount: 2
Fore
SplineSet
460.802734375 337 m 1,0,-1
 428.711914062 198 l 1,1,-1
 62.7119140625 198 l 1,2,-1
 94.802734375 337 l 1,3,-1
 460.802734375 337 l 1,0,-1
EndSplineSet
Substitution2: "'case' Case-Sensitive Forms lookup 29 subtable" hyphen.case
Substitution2: "'sups' Superscript lookup 15 subtable" hyphensuperior
Substitution2: "'subs' Subscript lookup 14 subtable" hypheninferior
Substitution2: "'sinf' Scientific Inferiors lookup 13 subtable" hypheninferior
AlternateSubs2: "'aalt' Access All Alternates lookup 1 subtable" hypheninferior hyphensuperior hyphen.case
EndChar

StartChar: period
Encoding: 46 46 17
Width: 302
GlyphClass: 2
Flags: W
LayerCount: 2
Fore
SplineSet
126.708984375 172 m 128,-1,1
 173.708984375 172 173.708984375 172 194.668945312 148 c 128,-1,2
 215.627929688 124 215.627929688 124 205.700195312 81 c 0,3,4
 196.00390625 39 196.00390625 39 163.962890625 15 c 128,-1,5
 131.921875 -9 131.921875 -9 84.921875 -9 c 128,-1,6
 37.921875 -9 37.921875 -9 16.962890625 15 c 128,-1,7
 -3.99609375 39 -3.99609375 39 5.7001953125 81 c 0,8,9
 15.6279296875 124 15.6279296875 124 47.6689453125 148 c 128,-1,0
 79.708984375 172 79.708984375 172 126.708984375 172 c 128,-1,1
EndSplineSet
Substitution2: "'tnum' Tabular Numbers lookup 26 subtable" period.tf
Substitution2: "'sups' Superscript lookup 15 subtable" periodsuperior
Substitution2: "'subs' Subscript lookup 14 subtable" periodinferior
Substitution2: "'sinf' Scientific Inferiors lookup 13 subtable" periodinferior
AlternateSubs2: "'aalt' Access All Alternates lookup 1 subtable" periodinferior periodsuperior period.tf
EndChar

StartChar: slash
Encoding: 47 47 18
Width: 468
GlyphClass: 2
Flags: W
LayerCount: 2
Fore
SplineSet
553.377929688 712 m 1,0,-1
 92.8388671875 -70 l 1,1,-1
 -65.1611328125 -70 l 1,2,-1
 395.377929688 712 l 1,3,-1
 553.377929688 712 l 1,0,-1
EndSplineSet
Substitution2: "'frac' Diagonal Fractions lookup 18 subtable" fraction
Substitution2: "'aalt' Access All Alternates lookup 0 subtable" fraction
EndChar

StartChar: zero
Encoding: 48 48 19
Width: 604
GlyphClass: 2
Flags: W
LayerCount: 2
Fore
SplineSet
235.69140625 -10 m 128,-1,1
 -29.30859375 -10 -29.30859375 -10 49.1865234375 330 c 128,-1,2
 127.681640625 670 127.681640625 670 392.681640625 670 c 128,-1,3
 657.681640625 670 657.681640625 670 579.186523438 330 c 128,-1,0
 500.69140625 -10 500.69140625 -10 235.69140625 -10 c 128,-1,1
266.627929688 124 m 128,-1,5
 318.627929688 124 318.627929688 124 352.59375 171.5 c 128,-1,6
 386.560546875 219 386.560546875 219 412.186523438 330 c 128,-1,7
 437.8125 441 437.8125 441 425.779296875 488.5 c 128,-1,8
 413.745117188 536 413.745117188 536 361.745117188 536 c 128,-1,9
 309.745117188 536 309.745117188 536 275.779296875 488.5 c 128,-1,10
 241.8125 441 241.8125 441 216.186523438 330 c 128,-1,11
 190.560546875 219 190.560546875 219 202.59375 171.5 c 128,-1,4
 214.627929688 124 214.627929688 124 266.627929688 124 c 128,-1,5
EndSplineSet
Substitution2: "'zero' Slashed Zero lookup 28 subtable" zero.zero
Substitution2: "'onum' Oldstyle Figures lookup 27 subtable" zero.osf
Substitution2: "'tnum' Tabular Numbers lookup 26 subtable" zero.tf
Substitution2: "'frac' Diagonal Fractions lookup 19 subtable" zero.numr
Substitution2: "'dnom' Denominators lookup 17 subtable" zero.dnom
Substitution2: "'numr' Numerators lookup 16 subtable" zero.numr
Substitution2: "'sups' Superscript lookup 15 subtable" uni2070
Substitution2: "'subs' Subscript lookup 14 subtable" uni2080
Substitution2: "'sinf' Scientific Inferiors lookup 13 subtable" uni2080
Substitution2: "'smcp' Lowercase to Small Capitals lookup 12 subtable" zero.sc
Substitution2: "'c2sc' Capitals to Small Capitals lookup 11 subtable" zero.sc
AlternateSubs2: "'aalt' Access All Alternates lookup 1 subtable" zero.sc uni2080 uni2070 zero.numr zero.dnom zero.tf zero.osf zero.zero
EndChar

StartChar: one
Encoding: 49 49 20
Width: 604
GlyphClass: 2
Flags: W
LayerCount: 2
Fore
SplineSet
381.012695312 130 m 1,0,-1
 537.012695312 130 l 1,1,-1
 507 0 l 1,2,-1
 14 0 l 1,3,-1
 44.0126953125 130 l 1,4,-1
 223.012695312 130 l 1,5,-1
 306.586914062 492 l 1,6,-1
 308.665039062 501 l 1,7,8
 210.349609375 426 210.349609375 426 118.810546875 415 c 1,9,-1
 133.747070312 549 l 1,10,11
 189.131835938 555 189.131835938 555 260.981445312 589 c 128,-1,12
 332.831054688 623 332.831054688 623 366.373046875 660 c 1,13,-1
 503.373046875 660 l 1,14,-1
 381.012695312 130 l 1,0,-1
EndSplineSet
Substitution2: "'onum' Oldstyle Figures lookup 27 subtable" one.osf
Substitution2: "'tnum' Tabular Numbers lookup 26 subtable" one.tf
Substitution2: "'nalt' Alternate Annotation Forms lookup 23 subtable" uni2780
Substitution2: "'frac' Diagonal Fractions lookup 19 subtable" one.numr
Substitution2: "'dnom' Denominators lookup 17 subtable" one.dnom
Substitution2: "'numr' Numerators lookup 16 subtable" one.numr
Substitution2: "'sups' Superscript lookup 15 subtable" uni00B9
Substitution2: "'subs' Subscript lookup 14 subtable" uni2081
Substitution2: "'sinf' Scientific Inferiors lookup 13 subtable" uni2081
Substitution2: "'smcp' Lowercase to Small Capitals lookup 12 subtable" one.sc
Substitution2: "'c2sc' Capitals to Small Capitals lookup 11 subtable" one.sc
AlternateSubs2: "'aalt' Access All Alternates lookup 1 subtable" one.sc uni2081 uni00B9 one.numr one.dnom uni2780 one.tf one.osf
EndChar

StartChar: two
Encoding: 50 50 21
Width: 604
GlyphClass: 2
Flags: W
LayerCount: 2
Fore
SplineSet
-6 0 m 1,0,-1
 19.3955078125 110 l 1,1,2
 210.40625 214 210.40625 214 302.990234375 294.5 c 128,-1,3
 395.575195312 375 395.575195312 375 411.966796875 446 c 0,4,5
 421.202148438 486 421.202148438 486 403.858398438 510.5 c 128,-1,6
 386.514648438 535 386.514648438 535 344.514648438 535 c 0,7,8
 245.514648438 535 245.514648438 535 212.34765625 400 c 1,9,-1
 74.736328125 445 l 1,10,11
 102.439453125 552 102.439453125 552 187.560546875 611 c 128,-1,12
 272.681640625 670 272.681640625 670 386.681640625 670 c 0,13,14
 508.681640625 670 508.681640625 670 557.13671875 607 c 128,-1,15
 605.592773438 544 605.592773438 544 585.737304688 458 c 0,16,17
 564.266601562 365 564.266601562 365 477.258789062 287 c 128,-1,18
 390.250976562 209 390.250976562 209 229.55078125 128 c 1,19,-1
 229.3203125 127 l 1,20,21
 298.244140625 131 298.244140625 131 364.244140625 131 c 2,22,-1
 518.244140625 131 l 1,23,-1
 488 0 l 1,24,-1
 -6 0 l 1,0,-1
EndSplineSet
Substitution2: "'onum' Oldstyle Figures lookup 27 subtable" two.osf
Substitution2: "'tnum' Tabular Numbers lookup 26 subtable" two.tf
Substitution2: "'nalt' Alternate Annotation Forms lookup 23 subtable" uni2781
Substitution2: "'frac' Diagonal Fractions lookup 19 subtable" two.numr
Substitution2: "'dnom' Denominators lookup 17 subtable" two.dnom
Substitution2: "'numr' Numerators lookup 16 subtable" two.numr
Substitution2: "'sups' Superscript lookup 15 subtable" uni00B2
Substitution2: "'subs' Subscript lookup 14 subtable" uni2082
Substitution2: "'sinf' Scientific Inferiors lookup 13 subtable" uni2082
Substitution2: "'smcp' Lowercase to Small Capitals lookup 12 subtable" two.sc
Substitution2: "'c2sc' Capitals to Small Capitals lookup 11 subtable" two.sc
AlternateSubs2: "'aalt' Access All Alternates lookup 1 subtable" two.sc uni2082 uni00B2 two.numr two.dnom uni2781 two.tf two.osf
EndChar

StartChar: three
Encoding: 51 51 22
Width: 604
GlyphClass: 2
Flags: W
LayerCount: 2
Fore
SplineSet
398.681640625 670 m 0,0,1
 508.681640625 670 508.681640625 670 558.638671875 620 c 128,-1,2
 608.594726562 570 608.594726562 570 588.970703125 485 c 0,3,4
 571.88671875 411 571.88671875 411 519.8828125 372 c 128,-1,5
 467.87890625 333 467.87890625 333 429.87890625 333 c 1,6,-1
 429.186523438 330 l 1,7,8
 449.186523438 330 449.186523438 330 468.955078125 322.5 c 128,-1,9
 488.723632812 315 488.723632812 315 507.529296875 299 c 128,-1,10
 526.3359375 283 526.3359375 283 533.678710938 252 c 128,-1,11
 541.021484375 221 541.021484375 221 531.556640625 180 c 0,12,13
 511.932617188 95 511.932617188 95 428.811523438 42.5 c 128,-1,14
 345.69140625 -10 345.69140625 -10 234.69140625 -10 c 0,15,16
 128.69140625 -10 128.69140625 -10 73.6953125 29 c 128,-1,17
 18.69921875 68 18.69921875 68 11.5537109375 154 c 1,18,-1
 182.021484375 221 l 1,19,20
 173.786132812 168 173.786132812 168 194.091796875 145.5 c 128,-1,21
 214.396484375 123 214.396484375 123 261.396484375 123 c 0,22,23
 303.396484375 123 303.396484375 123 332.975585938 145 c 128,-1,24
 362.5546875 167 362.5546875 167 370.096679688 204 c 0,25,26
 377.870117188 242 377.870117188 242 358.564453125 258 c 128,-1,27
 339.2578125 274 339.2578125 274 291.2578125 274 c 2,28,-1
 254.2578125 274 l 1,29,-1
 279.422851562 383 l 1,30,-1
 309.422851562 383 l 2,31,32
 397.422851562 383 397.422851562 383 415.96875 459 c 0,33,34
 424.741210938 497 424.741210938 497 408.858398438 517 c 128,-1,35
 392.9765625 537 392.9765625 537 356.9765625 537 c 0,36,37
 270.9765625 537 270.9765625 537 244.428710938 448 c 1,38,-1
 107.203125 499 l 1,39,40
 143.51953125 587 143.51953125 587 220.100585938 628.5 c 128,-1,41
 296.681640625 670 296.681640625 670 398.681640625 670 c 0,0,1
EndSplineSet
Substitution2: "'onum' Oldstyle Figures lookup 27 subtable" three.osf
Substitution2: "'tnum' Tabular Numbers lookup 26 subtable" three.tf
Substitution2: "'nalt' Alternate Annotation Forms lookup 23 subtable" uni2782
Substitution2: "'frac' Diagonal Fractions lookup 19 subtable" three.numr
Substitution2: "'dnom' Denominators lookup 17 subtable" three.dnom
Substitution2: "'numr' Numerators lookup 16 subtable" three.numr
Substitution2: "'sups' Superscript lookup 15 subtable" uni00B3
Substitution2: "'subs' Subscript lookup 14 subtable" uni2083
Substitution2: "'sinf' Scientific Inferiors lookup 13 subtable" uni2083
Substitution2: "'smcp' Lowercase to Small Capitals lookup 12 subtable" three.sc
Substitution2: "'c2sc' Capitals to Small Capitals lookup 11 subtable" three.sc
AlternateSubs2: "'aalt' Access All Alternates lookup 1 subtable" three.sc uni2083 uni00B3 three.numr three.dnom uni2782 three.tf three.osf
EndChar

StartChar: four
Encoding: 52 52 23
Width: 604
GlyphClass: 2
Flags: W
LayerCount: 2
Fore
SplineSet
260 0 m 1,0,-1
 292.552734375 141 l 1,1,-1
 -3.447265625 141 l 1,2,-1
 16.17578125 226 l 1,3,-1
 361.373046875 660 l 1,4,-1
 564.373046875 660 l 1,5,-1
 472.71875 263 l 1,6,-1
 581.71875 263 l 1,7,-1
 553.552734375 141 l 1,8,-1
 444.552734375 141 l 1,9,-1
 412 0 l 1,10,-1
 260 0 l 1,0,-1
170.71875 263 m 1,11,-1
 325.71875 263 l 1,12,-1
 354.115234375 386 l 2,13,14
 372.123046875 464 372.123046875 464 393.592773438 544 c 1,15,-1
 390.592773438 544 l 1,16,17
 362.741210938 497 362.741210938 497 331.430664062 461 c 2,18,-1
 170.71875 263 l 1,11,-1
EndSplineSet
Substitution2: "'onum' Oldstyle Figures lookup 27 subtable" four.osf
Substitution2: "'tnum' Tabular Numbers lookup 26 subtable" four.tf
Substitution2: "'nalt' Alternate Annotation Forms lookup 23 subtable" uni2783
Substitution2: "'frac' Diagonal Fractions lookup 19 subtable" four.numr
Substitution2: "'dnom' Denominators lookup 17 subtable" four.dnom
Substitution2: "'numr' Numerators lookup 16 subtable" four.numr
Substitution2: "'sups' Superscript lookup 15 subtable" uni2074
Substitution2: "'subs' Subscript lookup 14 subtable" uni2084
Substitution2: "'sinf' Scientific Inferiors lookup 13 subtable" uni2084
Substitution2: "'smcp' Lowercase to Small Capitals lookup 12 subtable" four.sc
Substitution2: "'c2sc' Capitals to Small Capitals lookup 11 subtable" four.sc
AlternateSubs2: "'aalt' Access All Alternates lookup 1 subtable" four.sc uni2084 uni2074 four.numr four.dnom uni2783 four.tf four.osf
EndChar

StartChar: five
Encoding: 53 53 24
Width: 604
GlyphClass: 2
Flags: W
LayerCount: 2
Fore
SplineSet
383.349609375 426 m 0,0,1
 479.349609375 426 479.349609375 426 522.037109375 370.5 c 128,-1,2
 564.723632812 315 564.723632812 315 544.17578125 226 c 0,3,4
 517.395507812 110 517.395507812 110 431.04296875 50 c 128,-1,5
 344.69140625 -10 344.69140625 -10 232.69140625 -10 c 0,6,7
 142.69140625 -10 142.69140625 -10 86.8486328125 21 c 128,-1,8
 31.0048828125 52 31.0048828125 52 5.166015625 122 c 1,9,-1
 176.020507812 208 l 1,10,11
 175.862304688 164 175.862304688 164 194.783203125 142 c 128,-1,12
 213.704101562 120 213.704101562 120 263.704101562 120 c 0,13,14
 310.704101562 120 310.704101562 120 343.245117188 144 c 128,-1,15
 375.786132812 168 375.786132812 168 386.40625 214 c 0,16,17
 396.794921875 259 396.794921875 259 376.8359375 283 c 128,-1,18
 356.876953125 307 356.876953125 307 307.876953125 307 c 0,19,20
 234.876953125 307 234.876953125 307 193.873046875 268 c 1,21,-1
 67.2587890625 287 l 1,22,-1
 196.373046875 660 l 1,23,-1
 607.373046875 660 l 1,24,-1
 576.66796875 527 l 1,25,-1
 290.66796875 527 l 1,26,-1
 246.040039062 403 l 2,27,28
 239.115234375 386 239.115234375 386 235.499023438 379 c 1,29,-1
 236.499023438 379 l 1,30,31
 289.349609375 426 289.349609375 426 383.349609375 426 c 0,0,1
EndSplineSet
Substitution2: "'onum' Oldstyle Figures lookup 27 subtable" five.osf
Substitution2: "'tnum' Tabular Numbers lookup 26 subtable" five.tf
Substitution2: "'nalt' Alternate Annotation Forms lookup 23 subtable" uni2784
Substitution2: "'frac' Diagonal Fractions lookup 19 subtable" five.numr
Substitution2: "'dnom' Denominators lookup 17 subtable" five.dnom
Substitution2: "'numr' Numerators lookup 16 subtable" five.numr
Substitution2: "'sups' Superscript lookup 15 subtable" uni2075
Substitution2: "'subs' Subscript lookup 14 subtable" uni2085
Substitution2: "'sinf' Scientific Inferiors lookup 13 subtable" uni2085
Substitution2: "'smcp' Lowercase to Small Capitals lookup 12 subtable" five.sc
Substitution2: "'c2sc' Capitals to Small Capitals lookup 11 subtable" five.sc
AlternateSubs2: "'aalt' Access All Alternates lookup 1 subtable" five.sc uni2085 uni2075 five.numr five.dnom uni2784 five.tf five.osf
EndChar

StartChar: six
Encoding: 54 54 25
Width: 604
GlyphClass: 2
Flags: W
LayerCount: 2
Fore
SplineSet
422.681640625 670 m 0,0,1
 598.681640625 670 598.681640625 670 619.974609375 524 c 1,2,-1
 463.737304688 458 l 1,3,4
 462.283203125 534 462.283203125 534 381.283203125 534 c 0,5,6
 328.283203125 534 328.283203125 534 283.778320312 482 c 128,-1,7
 239.2734375 430 239.2734375 430 218.725585938 341 c 2,8,-1
 214.801757812 324 l 1,9,-1
 217.801757812 324 l 1,10,11
 242.266601562 365 242.266601562 365 291.077148438 388 c 128,-1,12
 339.88671875 411 339.88671875 411 397.88671875 411 c 0,13,14
 489.88671875 411 489.88671875 411 533.458007812 355 c 128,-1,15
 577.029296875 299 577.029296875 299 555.55859375 206 c 0,16,17
 532.703125 107 532.703125 107 453.697265625 48.5 c 128,-1,18
 374.69140625 -10 374.69140625 -10 261.69140625 -10 c 0,19,20
 127.69140625 -10 127.69140625 -10 76.123046875 78.5 c 128,-1,21
 24.5546875 167 24.5546875 167 62.1865234375 330 c 0,22,23
 100.97265625 498 100.97265625 498 198.827148438 584 c 128,-1,24
 296.681640625 670 296.681640625 670 422.681640625 670 c 0,0,1
329.106445312 295 m 0,25,26
 287.106445312 295 287.106445312 295 257.180664062 271.5 c 128,-1,27
 227.254882812 248 227.254882812 248 217.790039062 207 c 128,-1,28
 208.32421875 166 208.32421875 166 227.3984375 142.5 c 128,-1,29
 246.473632812 119 246.473632812 119 288.473632812 119 c 0,30,31
 331.473632812 119 331.473632812 119 360.783203125 142 c 128,-1,32
 390.092773438 165 390.092773438 165 399.790039062 207 c 128,-1,33
 409.486328125 249 409.486328125 249 390.795898438 272 c 128,-1,34
 372.106445312 295 372.106445312 295 329.106445312 295 c 0,25,26
EndSplineSet
Substitution2: "'onum' Oldstyle Figures lookup 27 subtable" six.osf
Substitution2: "'tnum' Tabular Numbers lookup 26 subtable" six.tf
Substitution2: "'nalt' Alternate Annotation Forms lookup 23 subtable" uni2785
Substitution2: "'frac' Diagonal Fractions lookup 19 subtable" six.numr
Substitution2: "'dnom' Denominators lookup 17 subtable" six.dnom
Substitution2: "'numr' Numerators lookup 16 subtable" six.numr
Substitution2: "'sups' Superscript lookup 15 subtable" uni2076
Substitution2: "'subs' Subscript lookup 14 subtable" uni2086
Substitution2: "'sinf' Scientific Inferiors lookup 13 subtable" uni2086
Substitution2: "'smcp' Lowercase to Small Capitals lookup 12 subtable" six.sc
Substitution2: "'c2sc' Capitals to Small Capitals lookup 11 subtable" six.sc
AlternateSubs2: "'aalt' Access All Alternates lookup 1 subtable" six.sc uni2086 uni2076 six.numr six.dnom uni2785 six.tf six.osf
EndChar

StartChar: seven
Encoding: 55 55 26
Width: 604
GlyphClass: 2
Flags: W
LayerCount: 2
Fore
SplineSet
126.373046875 660 m 1,0,-1
 657.373046875 660 l 1,1,-1
 629.20703125 538 l 1,2,3
 481.348632812 413 481.348632812 413 408.221679688 295.5 c 128,-1,4
 335.094726562 178 335.094726562 178 294 0 c 1,5,-1
 122 0 l 1,6,7
 158.24609375 157 158.24609375 157 242.56640625 284 c 128,-1,8
 326.88671875 411 326.88671875 411 466.206054688 525 c 1,9,-1
 95.2060546875 525 l 1,10,-1
 126.373046875 660 l 1,0,-1
EndSplineSet
Substitution2: "'onum' Oldstyle Figures lookup 27 subtable" seven.osf
Substitution2: "'tnum' Tabular Numbers lookup 26 subtable" seven.tf
Substitution2: "'nalt' Alternate Annotation Forms lookup 23 subtable" uni2786
Substitution2: "'frac' Diagonal Fractions lookup 19 subtable" seven.numr
Substitution2: "'dnom' Denominators lookup 17 subtable" seven.dnom
Substitution2: "'numr' Numerators lookup 16 subtable" seven.numr
Substitution2: "'sups' Superscript lookup 15 subtable" uni2077
Substitution2: "'subs' Subscript lookup 14 subtable" uni2087
Substitution2: "'sinf' Scientific Inferiors lookup 13 subtable" uni2087
Substitution2: "'smcp' Lowercase to Small Capitals lookup 12 subtable" seven.sc
Substitution2: "'c2sc' Capitals to Small Capitals lookup 11 subtable" seven.sc
AlternateSubs2: "'aalt' Access All Alternates lookup 1 subtable" seven.sc uni2087 uni2077 seven.numr seven.dnom uni2786 seven.tf seven.osf
EndChar

StartChar: eight
Encoding: 56 56 27
Width: 604
GlyphClass: 2
Flags: W
LayerCount: 2
Fore
SplineSet
392.219726562 668 m 128,-1,1
 502.219726562 668 502.219726562 668 554.291992188 618.5 c 128,-1,2
 606.364257812 569 606.364257812 569 586.509765625 483 c 0,3,4
 562.729492188 380 562.729492188 380 452.033203125 338 c 1,5,-1
 451.802734375 337 l 1,6,7
 561.875 294 561.875 294 535.787109375 181 c 0,8,9
 515.008789062 91 515.008789062 91 435.350585938 40.5 c 128,-1,10
 355.69140625 -10 355.69140625 -10 235.69140625 -10 c 128,-1,11
 115.69140625 -10 115.69140625 -10 59.3505859375 40.5 c 128,-1,12
 3.0087890625 91 3.0087890625 91 23.787109375 181 c 0,13,14
 36.7158203125 237 36.7158203125 237 77.4501953125 277 c 128,-1,15
 118.185546875 317 118.185546875 317 179.802734375 337 c 1,16,-1
 180.033203125 338 l 1,17,18
 137.419921875 357 137.419921875 357 119.077148438 394.5 c 128,-1,19
 100.735351562 432 100.735351562 432 112.509765625 483 c 0,20,21
 132.364257812 569 132.364257812 569 207.291992188 618.5 c 128,-1,0
 282.219726562 668 282.219726562 668 392.219726562 668 c 128,-1,1
363.592773438 544 m 128,-1,23
 324.592773438 544 324.592773438 544 297.474609375 524 c 128,-1,24
 270.357421875 504 270.357421875 504 262.045898438 468 c 0,25,26
 253.965820312 433 253.965820312 433 271.848632812 413 c 128,-1,27
 289.731445312 393 289.731445312 393 328.731445312 393 c 128,-1,28
 367.731445312 393 367.731445312 393 394.848632812 413 c 128,-1,29
 421.965820312 433 421.965820312 433 430.045898438 468 c 0,30,31
 438.357421875 504 438.357421875 504 420.474609375 524 c 128,-1,22
 402.592773438 544 402.592773438 544 363.592773438 544 c 128,-1,23
265.319335938 114 m 0,32,33
 310.319335938 114 310.319335938 114 340.782226562 135.5 c 128,-1,34
 371.24609375 157 371.24609375 157 380.25 196 c 128,-1,35
 389.25390625 235 389.25390625 235 368.717773438 256.5 c 128,-1,36
 348.181640625 278 348.181640625 278 303.181640625 278 c 128,-1,37
 258.181640625 278 258.181640625 278 227.717773438 256.5 c 128,-1,38
 197.25390625 235 197.25390625 235 188.25 196 c 128,-1,39
 179.24609375 157 179.24609375 157 199.282226562 135.5 c 128,-1,40
 219.319335938 114 219.319335938 114 265.319335938 114 c 0,32,33
EndSplineSet
Substitution2: "'onum' Oldstyle Figures lookup 27 subtable" eight.osf
Substitution2: "'tnum' Tabular Numbers lookup 26 subtable" eight.tf
Substitution2: "'nalt' Alternate Annotation Forms lookup 23 subtable" uni2787
Substitution2: "'frac' Diagonal Fractions lookup 19 subtable" eight.numr
Substitution2: "'dnom' Denominators lookup 17 subtable" eight.dnom
Substitution2: "'numr' Numerators lookup 16 subtable" eight.numr
Substitution2: "'sups' Superscript lookup 15 subtable" uni2078
Substitution2: "'subs' Subscript lookup 14 subtable" uni2088
Substitution2: "'sinf' Scientific Inferiors lookup 13 subtable" uni2088
Substitution2: "'smcp' Lowercase to Small Capitals lookup 12 subtable" eight.sc
Substitution2: "'c2sc' Capitals to Small Capitals lookup 11 subtable" eight.sc
AlternateSubs2: "'aalt' Access All Alternates lookup 1 subtable" eight.sc uni2088 uni2078 eight.numr eight.dnom uni2787 eight.tf eight.osf
EndChar

StartChar: nine
Encoding: 57 57 28
Width: 604
GlyphClass: 2
Flags: W
LayerCount: 2
Fore
SplineSet
379.681640625 670 m 0,0,1
 509.681640625 670 509.681640625 670 559.865234375 582 c 128,-1,2
 610.048828125 494 610.048828125 494 571.262695312 326 c 0,3,4
 531.323242188 153 531.323242188 153 443.006835938 71.5 c 128,-1,5
 354.69140625 -10 354.69140625 -10 219.69140625 -10 c 0,6,7
 33.69140625 -10 33.69140625 -10 8.9365234375 134 c 1,8,-1
 180.01953125 195 l 1,9,10
 181.24609375 157 181.24609375 157 197.475585938 138.5 c 128,-1,11
 213.704101562 120 213.704101562 120 255.704101562 120 c 0,12,13
 316.704101562 120 316.704101562 120 355.0546875 167 c 128,-1,14
 393.40625 214 393.40625 214 414.876953125 307 c 2,15,-1
 418.5703125 323 l 1,16,-1
 414.5703125 323 l 1,17,18
 368.177734375 239 368.177734375 239 242.485351562 236 c 0,19,20
 147.0234375 234 147.0234375 234 100.067382812 290.5 c 128,-1,21
 53.111328125 347 53.111328125 347 75.966796875 446 c 0,22,23
 99.7470703125 549 99.7470703125 549 180.713867188 609.5 c 128,-1,24
 261.681640625 670 261.681640625 670 379.681640625 670 c 0,0,1
345.514648438 535 m 128,-1,26
 302.514648438 535 302.514648438 535 273.204101562 512 c 128,-1,27
 243.89453125 489 243.89453125 489 234.198242188 447 c 128,-1,28
 224.501953125 405 224.501953125 405 243.19140625 382 c 128,-1,29
 261.881835938 359 261.881835938 359 304.881835938 359 c 128,-1,30
 347.881835938 359 347.881835938 359 377.306640625 382.5 c 128,-1,31
 406.732421875 406 406.732421875 406 416.198242188 447 c 128,-1,32
 425.6640625 488 425.6640625 488 407.088867188 511.5 c 128,-1,25
 388.514648438 535 388.514648438 535 345.514648438 535 c 128,-1,26
EndSplineSet
Substitution2: "'onum' Oldstyle Figures lookup 27 subtable" nine.osf
Substitution2: "'tnum' Tabular Numbers lookup 26 subtable" nine.tf
Substitution2: "'nalt' Alternate Annotation Forms lookup 23 subtable" uni2788
Substitution2: "'frac' Diagonal Fractions lookup 19 subtable" nine.numr
Substitution2: "'dnom' Denominators lookup 17 subtable" nine.dnom
Substitution2: "'numr' Numerators lookup 16 subtable" nine.numr
Substitution2: "'sups' Superscript lookup 15 subtable" uni2079
Substitution2: "'subs' Subscript lookup 14 subtable" uni2089
Substitution2: "'sinf' Scientific Inferiors lookup 13 subtable" uni2089
Substitution2: "'smcp' Lowercase to Small Capitals lookup 12 subtable" nine.sc
Substitution2: "'c2sc' Capitals to Small Capitals lookup 11 subtable" nine.sc
AlternateSubs2: "'aalt' Access All Alternates lookup 1 subtable" nine.sc uni2089 uni2079 nine.numr nine.dnom uni2788 nine.tf nine.osf
EndChar

StartChar: colon
Encoding: 58 58 29
Width: 302
GlyphClass: 2
Flags: W
LayerCount: 2
Fore
SplineSet
204.743164062 510 m 128,-1,1
 251.743164062 510 251.743164062 510 272.702148438 486 c 128,-1,2
 293.661132812 462 293.661132812 462 283.96484375 420 c 0,3,4
 274.037109375 377 274.037109375 377 242.112304688 353.5 c 128,-1,5
 210.186523438 330 210.186523438 330 163.186523438 330 c 128,-1,6
 116.186523438 330 116.186523438 330 95.1123046875 353.5 c 128,-1,7
 74.037109375 377 74.037109375 377 83.96484375 420 c 0,8,9
 93.6611328125 462 93.6611328125 462 125.702148438 486 c 128,-1,0
 157.743164062 510 157.743164062 510 204.743164062 510 c 128,-1,1
126.708984375 172 m 128,-1,11
 173.708984375 172 173.708984375 172 194.668945312 148 c 128,-1,12
 215.627929688 124 215.627929688 124 205.700195312 81 c 0,13,14
 196.00390625 39 196.00390625 39 163.962890625 15 c 128,-1,15
 131.921875 -9 131.921875 -9 84.921875 -9 c 128,-1,16
 37.921875 -9 37.921875 -9 16.962890625 15 c 128,-1,17
 -3.99609375 39 -3.99609375 39 5.7001953125 81 c 0,18,19
 15.6279296875 124 15.6279296875 124 47.6689453125 148 c 128,-1,10
 79.708984375 172 79.708984375 172 126.708984375 172 c 128,-1,11
EndSplineSet
Substitution2: "'tnum' Tabular Numbers lookup 26 subtable" colon.tf
Substitution2: "'sups' Superscript lookup 15 subtable" colonsuperior
Substitution2: "'subs' Subscript lookup 14 subtable" coloninferior
Substitution2: "'sinf' Scientific Inferiors lookup 13 subtable" coloninferior
AlternateSubs2: "'aalt' Access All Alternates lookup 1 subtable" coloninferior colonsuperior colon.tf
EndChar

StartChar: semicolon
Encoding: 59 59 30
Width: 302
GlyphClass: 2
Flags: W
LayerCount: 2
Fore
SplineSet
166.186523438 330 m 128,-1,1
 119.186523438 330 119.186523438 330 98.1123046875 353.5 c 128,-1,2
 77.037109375 377 77.037109375 377 86.96484375 420 c 0,3,4
 96.6611328125 462 96.6611328125 462 128.702148438 486 c 128,-1,5
 160.743164062 510 160.743164062 510 207.743164062 510 c 0,6,7
 253.743164062 510 253.743164062 510 274.702148438 486 c 128,-1,8
 295.661132812 462 295.661132812 462 285.96484375 420 c 0,9,10
 276.037109375 377 276.037109375 377 244.612304688 353.5 c 128,-1,0
 213.186523438 330 213.186523438 330 166.186523438 330 c 128,-1,1
125.708984375 172 m 0,11,12
 178.708984375 172 178.708984375 172 197.8984375 136 c 128,-1,13
 217.086914062 100 217.086914062 100 203.927734375 43 c 0,14,15
 188.690429688 -23 188.690429688 -23 140.954101562 -76 c 128,-1,16
 93.2177734375 -129 93.2177734375 -129 18.5224609375 -158 c 1,17,-1
 -44.2412109375 -105 l 1,18,19
 63.30078125 -68 63.30078125 -68 105.461914062 2 c 1,20,-1
 101.154296875 5 l 1,21,22
 88.615234375 -6 88.615234375 -6 68.615234375 -6 c 0,23,24
 35.615234375 -6 35.615234375 -6 15.078125 15.5 c 128,-1,25
 -5.4580078125 37 -5.4580078125 37 4.0078125 78 c 0,26,27
 14.396484375 123 14.396484375 123 47.552734375 147.5 c 128,-1,28
 80.708984375 172 80.708984375 172 125.708984375 172 c 0,11,12
EndSplineSet
Substitution2: "'tnum' Tabular Numbers lookup 26 subtable" semicolon.tf
Substitution2: "'aalt' Access All Alternates lookup 0 subtable" semicolon.tf
EndChar

StartChar: less
Encoding: 60 60 31
Width: 604
GlyphClass: 2
Flags: W
LayerCount: 2
Fore
SplineSet
624.750976562 588 m 1,0,-1
 587.581054688 427 l 1,1,-1
 186.567382812 297 l 1,2,-1
 527.32421875 166 l 1,3,-1
 490.154296875 5 l 1,4,-1
 50.4833984375 223 l 1,5,-1
 84.4208984375 370 l 1,6,-1
 624.750976562 588 l 1,0,-1
EndSplineSet
EndChar

StartChar: equal
Encoding: 61 61 32
Width: 604
GlyphClass: 2
Flags: W
LayerCount: 2
Fore
SplineSet
586.509765625 483 m 1,0,-1
 559.498046875 366 l 1,1,-1
 85.498046875 366 l 1,2,-1
 112.509765625 483 l 1,3,-1
 586.509765625 483 l 1,0,-1
536.641601562 267 m 1,4,-1
 509.629882812 150 l 1,5,-1
 35.6298828125 150 l 1,6,-1
 62.6416015625 267 l 1,7,-1
 536.641601562 267 l 1,4,-1
EndSplineSet
Substitution2: "'sups' Superscript lookup 15 subtable" uni207C
Substitution2: "'subs' Subscript lookup 14 subtable" uni208C
Substitution2: "'sinf' Scientific Inferiors lookup 13 subtable" uni208C
AlternateSubs2: "'aalt' Access All Alternates lookup 1 subtable" uni208C uni207C
EndChar

StartChar: greater
Encoding: 62 62 33
Width: 604
GlyphClass: 2
Flags: W
LayerCount: 2
Fore
SplineSet
122.750976562 588 m 1,0,-1
 562.420898438 370 l 1,1,-1
 528.483398438 223 l 1,2,-1
 -11.845703125 5 l 1,3,-1
 25.32421875 166 l 1,4,-1
 425.567382812 297 l 1,5,-1
 85.5810546875 427 l 1,6,-1
 122.750976562 588 l 1,0,-1
EndSplineSet
EndChar

StartChar: question
Encoding: 63 63 34
Width: 607
GlyphClass: 2
Flags: W
LayerCount: 2
Fore
SplineSet
398.681640625 670 m 0,0,1
 516.681640625 670 516.681640625 670 575.79296875 625 c 128,-1,2
 634.903320312 580 634.903320312 580 613.89453125 489 c 0,3,4
 575.108398438 321 575.108398438 321 380.260742188 300 c 1,5,-1
 350.40625 214 l 1,6,-1
 204.40625 214 l 1,7,-1
 230.498046875 366 l 1,8,9
 324.114257812 373 324.114257812 373 369.770507812 397.5 c 128,-1,10
 415.426757812 422 415.426757812 422 424.891601562 463 c 0,11,12
 440.822265625 532 440.822265625 532 354.822265625 532 c 0,13,14
 310.822265625 532 310.822265625 532 278.934570312 506.5 c 128,-1,15
 247.047851562 481 247.047851562 481 231.50390625 431 c 1,16,-1
 82.048828125 494 l 1,17,18
 112.518554688 574 112.518554688 574 191.099609375 622 c 128,-1,19
 269.681640625 670 269.681640625 670 398.681640625 670 c 0,0,1
266.169921875 161 m 0,20,21
 311.169921875 161 311.169921875 161 331.590820312 139 c 128,-1,22
 352.01171875 117 352.01171875 117 342.776367188 77 c 128,-1,23
 333.541992188 37 333.541992188 37 302.84765625 14.5 c 128,-1,24
 272.153320312 -8 272.153320312 -8 227.153320312 -8 c 0,25,26
 181.153320312 -8 181.153320312 -8 160.84765625 14.5 c 128,-1,27
 140.541992188 37 140.541992188 37 149.776367188 77 c 128,-1,28
 159.01171875 117 159.01171875 117 189.590820312 139 c 128,-1,29
 220.169921875 161 220.169921875 161 266.169921875 161 c 0,20,21
EndSplineSet
Substitution2: "'smcp' Lowercase to Small Capitals lookup 12 subtable" question.sc
Substitution2: "'c2sc' Capitals to Small Capitals lookup 11 subtable" question.sc
Substitution2: "'aalt' Access All Alternates lookup 0 subtable" question.sc
EndChar

StartChar: at
Encoding: 64 64 35
Width: 946
GlyphClass: 2
Flags: W
LayerCount: 2
Fore
SplineSet
581.373046875 660 m 0,0,1
 768.373046875 660 768.373046875 660 851.28515625 553.5 c 128,-1,2
 934.198242188 447 934.198242188 447 891.025390625 260 c 0,3,4
 861.474609375 132 861.474609375 132 785.237304688 66 c 128,-1,5
 709 0 709 0 621 0 c 0,6,7
 519 0 519 0 501.624023438 85 c 1,8,9
 427.461914062 2 427.461914062 2 328.461914062 2 c 0,10,11
 254.461914062 2 254.461914062 2 222.58203125 54.5 c 128,-1,12
 190.703125 107 190.703125 107 210.095703125 191 c 0,13,14
 240.5703125 323 240.5703125 323 323.193359375 395 c 128,-1,15
 405.815429688 467 405.815429688 467 504.815429688 467 c 0,16,17
 553.815429688 467 553.815429688 467 576.005859375 444 c 128,-1,18
 598.1953125 421 598.1953125 421 599.0390625 390 c 1,19,-1
 635.737304688 458 l 1,20,-1
 757.737304688 458 l 1,21,-1
 646.478515625 171 l 2,22,23
 630.3203125 127 630.3203125 127 637.087890625 106.5 c 128,-1,24
 643.854492188 86 643.854492188 86 678.854492188 86 c 0,25,26
 720.854492188 86 720.854492188 86 757.244140625 131 c 128,-1,27
 793.6328125 176 793.6328125 176 813.025390625 260 c 0,28,29
 849.272460938 417 849.272460938 417 782.665039062 501 c 128,-1,30
 716.057617188 585 716.057617188 585 564.057617188 585 c 0,31,32
 401.057617188 585 401.057617188 585 280.6640625 488 c 128,-1,33
 160.26953125 391 160.26953125 391 121.483398438 223 c 0,34,35
 85.4677734375 67 85.4677734375 67 159.036132812 -21.5 c 128,-1,36
 232.604492188 -110 232.604492188 -110 368.604492188 -110 c 0,37,38
 444.604492188 -110 444.604492188 -110 491.952148438 -95.5 c 128,-1,39
 539.299804688 -81 539.299804688 -81 582.763671875 -53 c 1,40,-1
 611.912109375 -113 l 1,41,42
 553.831054688 -148 553.831054688 -148 495.67578125 -166 c 128,-1,43
 437.520507812 -184 437.520507812 -184 348.520507812 -184 c 0,44,45
 169.520507812 -184 169.520507812 -184 81.30078125 -74.5 c 128,-1,46
 -6.919921875 35 -6.919921875 35 36.4833984375 223 c 0,47,48
 81.7333984375 419 81.7333984375 419 233.553710938 539.5 c 128,-1,49
 385.373046875 660 385.373046875 660 581.373046875 660 c 0,0,1
498.419921875 357 m 0,50,51
 453.419921875 357 453.419921875 357 414.80078125 317.5 c 128,-1,52
 376.181640625 278 376.181640625 278 360.712890625 211 c 0,53,54
 339.2421875 118 339.2421875 118 408.2421875 118 c 0,55,56
 439.2421875 118 439.2421875 118 467.744140625 137.5 c 128,-1,57
 496.24609375 157 496.24609375 157 509.557617188 193 c 2,58,-1
 539.2578125 274 l 2,59,60
 568.419921875 357 568.419921875 357 498.419921875 357 c 0,50,51
EndSplineSet
Substitution2: "'case' Case-Sensitive Forms lookup 29 subtable" at.case
Substitution2: "'aalt' Access All Alternates lookup 0 subtable" at.case
EndChar

StartChar: A
Encoding: 65 65 36
Width: 677
GlyphClass: 2
Flags: W
LayerCount: 2
Fore
SplineSet
432 0 m 1,0,-1
 421.399414062 149 l 1,1,-1
 193.399414062 149 l 1,2,-1
 113 0 l 1,3,-1
 -60 0 l 1,4,-1
 324.373046875 660 l 1,5,-1
 530.373046875 660 l 1,6,-1
 609 0 l 1,7,-1
 432 0 l 1,0,-1
256.411132812 266 m 1,8,-1
 412.411132812 266 l 1,9,-1
 400.887695312 424 l 1,10,-1
 395.8984375 528 l 1,11,-1
 393.8984375 528 l 1,12,-1
 343.119140625 425 l 1,13,-1
 256.411132812 266 l 1,8,-1
EndSplineSet
Substitution2: "Single Substitution lookup 56 subtable" A.swsh
Substitution2: "Single Substitution lookup 55 subtable" ordfeminine
Substitution2: "'swsh' Swash lookup 32 subtable" A.swsh
Substitution2: "'c2sc' Capitals to Small Capitals lookup 11 subtable" a.sc
AlternateSubs2: "'aalt' Access All Alternates lookup 1 subtable" a.sc ordfeminine A.swsh
EndChar

StartChar: B
Encoding: 66 66 37
Width: 684
GlyphClass: 2
Flags: W
LayerCount: 2
Fore
SplineSet
9 0 m 1,0,-1
 161.373046875 660 l 1,1,-1
 482.373046875 660 l 2,2,3
 720.142578125 659 720.142578125 659 679.278320312 482 c 0,4,5
 665.887695312 424 665.887695312 424 622.653320312 384 c 128,-1,6
 579.418945312 344 579.418945312 344 511.110351562 334 c 1,7,-1
 510.87890625 333 l 1,8,9
 582.5703125 323 582.5703125 323 611.489257812 281.5 c 128,-1,10
 640.408203125 240 640.408203125 240 626.094726562 178 c 0,11,12
 606.240234375 92 606.240234375 92 534.620117188 46 c 128,-1,13
 463 0 463 0 345 0 c 2,14,-1
 9 0 l 1,0,-1
265.0390625 390 m 1,15,-1
 389.0390625 390 l 2,16,17
 482.0390625 390 482.0390625 390 498.661132812 462 c 128,-1,18
 515.283203125 534 515.283203125 534 422.283203125 534 c 2,19,-1
 298.283203125 534 l 1,20,-1
 265.0390625 390 l 1,15,-1
202.934570312 121 m 1,21,-1
 343.934570312 121 l 2,22,23
 436.934570312 121 436.934570312 121 454.01953125 195 c 0,24,25
 470.641601562 267 470.641601562 267 377.641601562 267 c 2,26,-1
 236.641601562 267 l 1,27,-1
 202.934570312 121 l 1,21,-1
EndSplineSet
Substitution2: "'c2sc' Capitals to Small Capitals lookup 11 subtable" b.sc
Substitution2: "'aalt' Access All Alternates lookup 0 subtable" b.sc
EndChar

StartChar: C
Encoding: 67 67 38
Width: 681
GlyphClass: 2
Flags: W
LayerCount: 2
Fore
SplineSet
637.633789062 189 m 1,0,1
 586.546875 89 586.546875 89 499.119140625 39.5 c 128,-1,2
 411.69140625 -10 411.69140625 -10 302.69140625 -10 c 0,3,4
 151.69140625 -10 151.69140625 -10 86.0849609375 80.5 c 128,-1,5
 20.478515625 171 20.478515625 171 57.1865234375 330 c 128,-1,6
 93.89453125 489 93.89453125 489 201.288085938 579.5 c 128,-1,7
 308.681640625 670 308.681640625 670 458.681640625 670 c 0,8,9
 566.681640625 670 566.681640625 670 631.176757812 624.5 c 128,-1,10
 695.672851562 579 695.672851562 579 698.6640625 488 c 1,11,-1
 533.581054688 427 l 1,12,13
 533.432617188 487 533.432617188 487 509.973632812 511 c 128,-1,14
 486.514648438 535 486.514648438 535 433.514648438 535 c 0,15,16
 360.514648438 535 360.514648438 535 308.393554688 482.5 c 128,-1,17
 256.2734375 430 256.2734375 430 233.186523438 330 c 128,-1,18
 210.099609375 230 210.099609375 230 236.479492188 177.5 c 128,-1,19
 262.858398438 125 262.858398438 125 335.858398438 125 c 0,20,21
 443.858398438 125 443.858398438 125 491.791992188 233 c 1,22,-1
 637.633789062 189 l 1,0,1
EndSplineSet
Substitution2: "'c2sc' Capitals to Small Capitals lookup 11 subtable" c.sc
Substitution2: "'aalt' Access All Alternates lookup 0 subtable" c.sc
EndChar

StartChar: D
Encoding: 68 68 39
Width: 718
GlyphClass: 2
Flags: W
LayerCount: 2
Fore
SplineSet
441.373046875 660 m 2,0,1
 596.373046875 660 596.373046875 660 659.133789062 574.5 c 128,-1,2
 721.89453125 489 721.89453125 489 685.186523438 330 c 128,-1,3
 648.478515625 171 648.478515625 171 546.239257812 85.5 c 128,-1,4
 444 0 444 0 289 0 c 2,5,-1
 9 0 l 1,6,-1
 161.373046875 660 l 1,7,-1
 441.373046875 660 l 2,0,1
302.012695312 130 m 2,8,9
 385.012695312 130 385.012695312 130 435.556640625 180 c 128,-1,10
 486.099609375 230 486.099609375 230 509.186523438 330 c 128,-1,11
 532.2734375 430 532.2734375 430 504.81640625 480 c 128,-1,12
 477.360351562 530 477.360351562 530 394.360351562 530 c 2,13,-1
 303.360351562 530 l 1,14,-1
 211.012695312 130 l 1,15,-1
 302.012695312 130 l 2,8,9
EndSplineSet
Substitution2: "'c2sc' Capitals to Small Capitals lookup 11 subtable" d.sc
Substitution2: "'aalt' Access All Alternates lookup 0 subtable" d.sc
EndChar

StartChar: E
Encoding: 69 69 40
Width: 631
GlyphClass: 2
Flags: W
AnchorPoint: "Anchor-0" 269 0 basechar 0
LayerCount: 2
Fore
SplineSet
211.705078125 133 m 1,0,-1
 566.705078125 133 l 1,1,-1
 536 0 l 1,2,-1
 9 0 l 1,3,-1
 161.373046875 660 l 1,4,-1
 675.373046875 660 l 1,5,-1
 644.66796875 527 l 1,6,-1
 302.66796875 527 l 1,7,-1
 271.731445312 393 l 1,8,-1
 543.731445312 393 l 1,9,-1
 514.873046875 268 l 1,10,-1
 242.873046875 268 l 1,11,-1
 211.705078125 133 l 1,0,-1
EndSplineSet
Substitution2: "Single Substitution lookup 57 subtable" E.swsh.001
Substitution2: "Single Substitution lookup 56 subtable" E.swsh
AlternateSubs2: "'swsh' Swash lookup 33 subtable" E.swsh E.swsh.001
Substitution2: "'c2sc' Capitals to Small Capitals lookup 11 subtable" e.sc
AlternateSubs2: "'aalt' Access All Alternates lookup 1 subtable" e.sc E.swsh E.swsh.001
EndChar

StartChar: F
Encoding: 70 70 41
Width: 612
GlyphClass: 2
Flags: W
LayerCount: 2
Fore
SplineSet
643.66796875 527 m 1,0,-1
 302.66796875 527 l 1,1,-1
 270.345703125 387 l 1,2,-1
 542.345703125 387 l 1,3,-1
 511.640625 254 l 1,4,-1
 239.640625 254 l 1,5,-1
 181 0 l 1,6,-1
 9 0 l 1,7,-1
 161.373046875 660 l 1,8,-1
 674.373046875 660 l 1,9,-1
 643.66796875 527 l 1,0,-1
EndSplineSet
Substitution2: "Single Substitution lookup 56 subtable" F.swsh
Substitution2: "'swsh' Swash lookup 34 subtable" F.swsh
Substitution2: "'c2sc' Capitals to Small Capitals lookup 11 subtable" f.sc
AlternateSubs2: "'aalt' Access All Alternates lookup 1 subtable" f.sc F.swsh
EndChar

StartChar: G
Encoding: 71 71 42
Width: 723
GlyphClass: 2
Flags: W
AnchorPoint: "Anchor-0" 325 0 basechar 0
LayerCount: 2
Fore
SplineSet
373.419921875 357 m 1,0,-1
 683.419921875 357 l 1,1,-1
 601 0 l 1,2,-1
 481 0 l 1,3,-1
 494.0078125 78 l 1,4,5
 416.69140625 -10 416.69140625 -10 284.69140625 -10 c 0,6,7
 147.69140625 -10 147.69140625 -10 83.3544921875 79.5 c 128,-1,8
 19.0166015625 169 19.0166015625 169 55.9560546875 329 c 0,9,10
 92.6640625 488 92.6640625 488 201.672851562 579 c 128,-1,11
 310.681640625 670 310.681640625 670 463.681640625 670 c 0,12,13
 576.681640625 670 576.681640625 670 636.447265625 630 c 128,-1,14
 696.211914062 590 696.211914062 590 715.665039062 501 c 1,15,-1
 542.120117188 438 l 1,16,17
 539.514648438 535 539.514648438 535 437.514648438 535 c 0,18,19
 361.514648438 535 361.514648438 535 309.009765625 483 c 128,-1,20
 256.50390625 431 256.50390625 431 233.186523438 330 c 0,21,22
 185.166015625 122 185.166015625 122 347.166015625 122 c 0,23,24
 408.166015625 122 408.166015625 122 452.129882812 150 c 128,-1,25
 496.094726562 178 496.094726562 178 508.330078125 231 c 2,26,-1
 510.639648438 241 l 1,27,-1
 346.639648438 241 l 1,28,-1
 373.419921875 357 l 1,0,-1
EndSplineSet
Substitution2: "'ss04' Style Set 4 lookup 50 subtable" G.ss04
Substitution2: "'salt' Stylistic Alternatives lookup 42 subtable" G.ss04
Substitution2: "'c2sc' Capitals to Small Capitals lookup 11 subtable" g.sc
AlternateSubs2: "'aalt' Access All Alternates lookup 1 subtable" g.sc G.ss04
EndChar

StartChar: H
Encoding: 72 72 43
Width: 742
GlyphClass: 2
Flags: W
LayerCount: 2
Fore
SplineSet
585.373046875 660 m 1,0,-1
 757.373046875 660 l 1,1,-1
 605 0 l 1,2,-1
 433 0 l 1,3,-1
 494.411132812 266 l 1,4,-1
 242.411132812 266 l 1,5,-1
 181 0 l 1,6,-1
 9 0 l 1,7,-1
 161.373046875 660 l 1,8,-1
 333.373046875 660 l 1,9,-1
 273.116210938 399 l 1,10,-1
 525.116210938 399 l 1,11,-1
 585.373046875 660 l 1,0,-1
EndSplineSet
Substitution2: "'sups' Superscript lookup 15 subtable" Hsuperior
Substitution2: "'subs' Subscript lookup 14 subtable" Hinferior
Substitution2: "'sinf' Scientific Inferiors lookup 13 subtable" Hinferior
Substitution2: "'c2sc' Capitals to Small Capitals lookup 11 subtable" h.sc
AlternateSubs2: "'aalt' Access All Alternates lookup 1 subtable" h.sc Hinferior Hsuperior
EndChar

StartChar: I
Encoding: 73 73 44
Width: 318
GlyphClass: 2
Flags: W
LayerCount: 2
Fore
SplineSet
333.373046875 660 m 1,0,-1
 181 0 l 1,1,-1
 9 0 l 1,2,-1
 161.373046875 660 l 1,3,-1
 333.373046875 660 l 1,0,-1
EndSplineSet
Substitution2: "'c2sc' Capitals to Small Capitals lookup 11 subtable" i.sc
Substitution2: "'aalt' Access All Alternates lookup 0 subtable" i.sc
EndChar

StartChar: J
Encoding: 74 74 45
Width: 621
GlyphClass: 2
Flags: W
LayerCount: 2
Fore
SplineSet
647.373046875 660 m 1,0,-1
 553.640625 254 l 2,1,2
 524.782226562 129 524.782226562 129 436.236328125 59.5 c 128,-1,3
 347.69140625 -10 347.69140625 -10 214.69140625 -10 c 0,4,5
 71.69140625 -10 71.69140625 -10 26.275390625 64 c 128,-1,6
 -19.140625 138 -19.140625 138 32.2568359375 261 c 1,7,-1
 209.182617188 291 l 1,8,9
 175.635742188 202 175.635742188 202 186.747070312 163.5 c 128,-1,10
 197.858398438 125 197.858398438 125 253.858398438 125 c 0,11,12
 306.858398438 125 306.858398438 125 337.438476562 160 c 128,-1,13
 368.01953125 195 368.01953125 195 385.795898438 272 c 2,14,-1
 475.373046875 660 l 1,15,-1
 647.373046875 660 l 1,0,-1
EndSplineSet
Substitution2: "'c2sc' Capitals to Small Capitals lookup 11 subtable" j.sc
Substitution2: "'aalt' Access All Alternates lookup 0 subtable" j.sc
EndChar

StartChar: K
Encoding: 75 75 46
Width: 693
GlyphClass: 2
Flags: W
AnchorPoint: "Anchor-0" 299 0 basechar 0
LayerCount: 2
Fore
SplineSet
425 0 m 1,0,-1
 326.3359375 283 l 1,1,-1
 223.94140625 186 l 1,2,-1
 181 0 l 1,3,-1
 9 0 l 1,4,-1
 161.373046875 660 l 1,5,-1
 333.373046875 660 l 1,6,-1
 265.728515625 367 l 1,7,-1
 569.373046875 660 l 1,8,-1
 760.373046875 660 l 1,9,-1
 474.5 392 l 1,10,-1
 620 0 l 1,11,-1
 425 0 l 1,0,-1
EndSplineSet
Substitution2: "'c2sc' Capitals to Small Capitals lookup 11 subtable" k.sc
Substitution2: "'aalt' Access All Alternates lookup 0 subtable" k.sc
EndChar

StartChar: L
Encoding: 76 76 47
Width: 602
GlyphClass: 2
Flags: W
AnchorPoint: "Anchor-0" 272 0 basechar 0
LayerCount: 2
Fore
SplineSet
211.705078125 133 m 1,0,-1
 542.705078125 133 l 1,1,-1
 512 0 l 1,2,-1
 9 0 l 1,3,-1
 161.373046875 660 l 1,4,-1
 333.373046875 660 l 1,5,-1
 211.705078125 133 l 1,0,-1
EndSplineSet
Substitution2: "Single Substitution lookup 57 subtable" L.swsh
Substitution2: "'swsh' Swash lookup 34 subtable" L.swsh
Substitution2: "'c2sc' Capitals to Small Capitals lookup 11 subtable" l.sc
AlternateSubs2: "'aalt' Access All Alternates lookup 1 subtable" l.sc L.swsh
Position2: "Single Positioning lookup 6 subtable" dx=0 dy=0 dh=-152 dv=0
EndChar

StartChar: M
Encoding: 77 77 48
Width: 910
GlyphClass: 2
Flags: W
LayerCount: 2
Fore
SplineSet
925.373046875 660 m 1,0,-1
 773 0 l 1,1,-1
 621 0 l 1,2,-1
 690.953125 303 l 1,3,-1
 742.819335938 506 l 1,4,-1
 740.819335938 506 l 1,5,-1
 461 0 l 1,6,-1
 322 0 l 1,7,-1
 275.819335938 506 l 1,8,-1
 273.819335938 506 l 1,9,-1
 231.953125 303 l 1,10,-1
 162 0 l 1,11,-1
 9 0 l 1,12,-1
 161.373046875 660 l 1,13,-1
 406.373046875 660 l 1,14,-1
 432.801757812 324 l 1,15,-1
 437.479492188 184 l 1,16,-1
 439.479492188 184 l 1,17,-1
 509.5703125 323 l 1,18,-1
 690.373046875 660 l 1,19,-1
 925.373046875 660 l 1,0,-1
EndSplineSet
Substitution2: "Single Substitution lookup 56 subtable" M.swsh
AlternateSubs2: "'swsh' Swash lookup 35 subtable" M.swsh M.swsh.001
Substitution2: "'c2sc' Capitals to Small Capitals lookup 11 subtable" m.sc
AlternateSubs2: "'aalt' Access All Alternates lookup 1 subtable" m.sc M.swsh M.swsh.001
EndChar

StartChar: N
Encoding: 78 78 49
Width: 741
GlyphClass: 2
Flags: W
AnchorPoint: "Anchor-0" 319 0 basechar 0
LayerCount: 2
Fore
SplineSet
756.373046875 660 m 1,0,-1
 604 0 l 1,1,-1
 413 0 l 1,2,-1
 290.419921875 357 l 1,3,-1
 263.506835938 457 l 1,4,-1
 262.506835938 457 l 1,5,-1
 237.87890625 333 l 1,6,-1
 161 0 l 1,7,-1
 9 0 l 1,8,-1
 161.373046875 660 l 1,9,-1
 352.373046875 660 l 1,10,-1
 474.953125 303 l 1,11,-1
 501.866210938 203 l 1,12,-1
 502.866210938 203 l 1,13,-1
 527.494140625 327 l 1,14,-1
 604.373046875 660 l 1,15,-1
 756.373046875 660 l 1,0,-1
EndSplineSet
Substitution2: "Single Substitution lookup 57 subtable" N.swsh
Substitution2: "'swsh' Swash lookup 36 subtable" N.swsh
Substitution2: "'c2sc' Capitals to Small Capitals lookup 11 subtable" n.sc
AlternateSubs2: "'aalt' Access All Alternates lookup 1 subtable" n.sc N.swsh
EndChar

StartChar: O
Encoding: 79 79 50
Width: 737
GlyphClass: 2
Flags: W
LayerCount: 2
Fore
SplineSet
459.681640625 670 m 128,-1,1
 610.681640625 670 610.681640625 670 675.788085938 579.5 c 128,-1,2
 740.89453125 489 740.89453125 489 704.186523438 330 c 128,-1,3
 667.478515625 171 667.478515625 171 560.584960938 80.5 c 128,-1,4
 453.69140625 -10 453.69140625 -10 302.69140625 -10 c 128,-1,5
 151.69140625 -10 151.69140625 -10 86.0849609375 80.5 c 128,-1,6
 20.478515625 171 20.478515625 171 57.1865234375 330 c 128,-1,7
 93.89453125 489 93.89453125 489 201.288085938 579.5 c 128,-1,0
 308.681640625 670 308.681640625 670 459.681640625 670 c 128,-1,1
428.514648438 535 m 128,-1,9
 356.514648438 535 356.514648438 535 306.509765625 483 c 128,-1,10
 256.50390625 431 256.50390625 431 233.186523438 330 c 128,-1,11
 209.869140625 229 209.869140625 229 235.86328125 177 c 128,-1,12
 261.858398438 125 261.858398438 125 333.858398438 125 c 128,-1,13
 405.858398438 125 405.858398438 125 455.36328125 177 c 128,-1,14
 504.869140625 229 504.869140625 229 528.186523438 330 c 128,-1,15
 551.50390625 431 551.50390625 431 526.009765625 483 c 128,-1,8
 500.514648438 535 500.514648438 535 428.514648438 535 c 128,-1,9
EndSplineSet
Substitution2: "Single Substitution lookup 55 subtable" ordmasculine
Substitution2: "'nalt' Alternate Annotation Forms lookup 23 subtable" indexring
Substitution2: "'sups' Superscript lookup 15 subtable" Osuperior
Substitution2: "'subs' Subscript lookup 14 subtable" Oinferior
Substitution2: "'sinf' Scientific Inferiors lookup 13 subtable" Oinferior
Substitution2: "'c2sc' Capitals to Small Capitals lookup 11 subtable" o.sc
AlternateSubs2: "'aalt' Access All Alternates lookup 1 subtable" o.sc Oinferior Osuperior ordmasculine indexring
EndChar

StartChar: P
Encoding: 80 80 51
Width: 668
GlyphClass: 2
Flags: W
LayerCount: 2
Fore
SplineSet
464.373046875 660 m 2,0,1
 587.373046875 660 587.373046875 660 640.329101562 603.5 c 128,-1,2
 693.28515625 547 693.28515625 547 668.8125 441 c 0,3,4
 645.495117188 340 645.495117188 340 566.681640625 284.5 c 128,-1,5
 487.869140625 229 487.869140625 229 364.869140625 229 c 2,6,-1
 233.869140625 229 l 1,7,-1
 181 0 l 1,8,-1
 9 0 l 1,9,-1
 161.373046875 660 l 1,10,-1
 464.373046875 660 l 2,0,1
366.958007812 355 m 2,11,12
 475.958007812 355 475.958007812 355 496.274414062 443 c 0,13,14
 516.360351562 530 516.360351562 530 407.360351562 530 c 2,15,-1
 303.360351562 530 l 1,16,-1
 262.958007812 355 l 1,17,-1
 366.958007812 355 l 2,11,12
EndSplineSet
Substitution2: "'c2sc' Capitals to Small Capitals lookup 11 subtable" p.sc
Substitution2: "'aalt' Access All Alternates lookup 0 subtable" p.sc
EndChar

StartChar: Q
Encoding: 81 81 52
Width: 737
GlyphClass: 2
Flags: W
LayerCount: 2
Fore
SplineSet
442.838867188 -70 m 0,0,1
 523.838867188 -70 523.838867188 -70 574.842773438 -31 c 1,2,-1
 586.984375 -156 l 1,3,4
 521.903320312 -204 521.903320312 -204 405.903320312 -204 c 0,5,6
 300.903320312 -204 300.903320312 -204 259.138671875 -151 c 128,-1,7
 217.375 -98 217.375 -98 245.615234375 -6 c 1,8,9
 124.5390625 11 124.5390625 11 74.35546875 99 c 128,-1,10
 24.171875 187 24.171875 187 57.1865234375 330 c 0,11,12
 93.89453125 489 93.89453125 489 201.288085938 579.5 c 128,-1,13
 308.681640625 670 308.681640625 670 459.681640625 670 c 128,-1,14
 610.681640625 670 610.681640625 670 675.788085938 579.5 c 128,-1,15
 740.89453125 489 740.89453125 489 704.186523438 330 c 0,16,17
 670.7109375 185 670.7109375 185 578.89453125 97 c 128,-1,18
 487.078125 9 487.078125 9 356.383789062 -7 c 1,19,20
 352.303710938 -42 352.303710938 -42 374.571289062 -56 c 128,-1,21
 396.838867188 -70 396.838867188 -70 442.838867188 -70 c 0,0,1
233.186523438 330 m 128,-1,23
 209.869140625 229 209.869140625 229 235.86328125 177 c 128,-1,24
 261.858398438 125 261.858398438 125 333.858398438 125 c 128,-1,25
 405.858398438 125 405.858398438 125 455.36328125 177 c 128,-1,26
 504.869140625 229 504.869140625 229 528.186523438 330 c 128,-1,27
 551.50390625 431 551.50390625 431 526.009765625 483 c 128,-1,28
 500.514648438 535 500.514648438 535 428.514648438 535 c 128,-1,29
 356.514648438 535 356.514648438 535 306.509765625 483 c 128,-1,22
 256.50390625 431 256.50390625 431 233.186523438 330 c 128,-1,23
EndSplineSet
Substitution2: "'c2sc' Capitals to Small Capitals lookup 11 subtable" q.sc
Substitution2: "'aalt' Access All Alternates lookup 0 subtable" q.sc
EndChar

StartChar: R
Encoding: 82 82 53
Width: 685
GlyphClass: 2
Flags: W
AnchorPoint: "Anchor-0" 299 0 basechar 0
LayerCount: 2
Fore
SplineSet
9 0 m 1,0,-1
 161.373046875 660 l 1,1,-1
 476.373046875 660 l 2,2,3
 595.373046875 660 595.373046875 660 648.13671875 607 c 128,-1,4
 700.901367188 554 700.901367188 554 678.276367188 456 c 0,5,6
 647.801757812 324 647.801757812 324 510.258789062 287 c 1,7,-1
 509.797851562 285 l 1,8,9
 596.94921875 264 596.94921875 264 585.478515625 171 c 0,10,11
 571.158203125 44 571.158203125 44 583.923828125 4 c 1,12,-1
 583 0 l 1,13,-1
 403 0 l 1,14,15
 400.770507812 12 400.770507812 12 401.1953125 29 c 128,-1,16
 401.620117188 46 401.620117188 46 402.967773438 60.5 c 128,-1,17
 404.315429688 75 404.315429688 75 407.39453125 103.5 c 128,-1,18
 410.474609375 132 410.474609375 132 412.553710938 154 c 0,19,20
 417.173828125 200 417.173828125 200 395.40625 220.5 c 128,-1,21
 373.639648438 241 373.639648438 241 320.639648438 241 c 2,22,-1
 233.639648438 241 l 1,23,-1
 178 0 l 1,24,-1
 9 0 l 1,0,-1
261.8046875 363 m 1,25,-1
 378.8046875 363 l 2,26,27
 433.8046875 363 433.8046875 363 463.422851562 383 c 128,-1,28
 493.040039062 403 493.040039062 403 503.198242188 447 c 0,29,30
 513.125 490 513.125 490 492.743164062 510 c 128,-1,31
 472.360351562 530 472.360351562 530 417.360351562 530 c 2,32,-1
 300.360351562 530 l 1,33,-1
 261.8046875 363 l 1,25,-1
EndSplineSet
Substitution2: "Single Substitution lookup 57 subtable" R.swsh.001
Substitution2: "Single Substitution lookup 56 subtable" R.swsh
Substitution2: "'ss03' Style Set 3 lookup 49 subtable" R.ss03
Substitution2: "'salt' Stylistic Alternatives lookup 42 subtable" R.ss03
AlternateSubs2: "'swsh' Swash lookup 37 subtable" R.swsh R.swsh.001
Substitution2: "'c2sc' Capitals to Small Capitals lookup 11 subtable" r.sc
AlternateSubs2: "'aalt' Access All Alternates lookup 1 subtable" r.sc R.swsh R.swsh.001 R.ss03
EndChar

StartChar: S
Encoding: 83 83 54
Width: 644
GlyphClass: 2
Flags: W
AnchorPoint: "Anchor-0" 282 0 basechar 0
LayerCount: 2
Fore
SplineSet
421.681640625 670 m 0,0,1
 515.681640625 670 515.681640625 670 575.717773438 642 c 128,-1,2
 635.752929688 614 635.752929688 614 678.208007812 551 c 1,3,-1
 555.3515625 439 l 1,4,5
 512.745117188 536 512.745117188 536 393.745117188 536 c 0,6,7
 341.745117188 536 341.745117188 536 309.58984375 518 c 128,-1,8
 277.434570312 500 277.434570312 500 270.5078125 470 c 0,9,10
 264.505859375 444 264.505859375 444 289.696289062 427.5 c 128,-1,11
 314.88671875 411 314.88671875 411 385.885742188 398 c 0,12,13
 516.575195312 375 516.575195312 375 563.609375 327.5 c 128,-1,14
 610.643554688 280 610.643554688 280 590.557617188 193 c 0,15,16
 568.85546875 99 568.85546875 99 478.2734375 44.5 c 128,-1,17
 387.69140625 -10 387.69140625 -10 264.69140625 -10 c 0,18,19
 152.69140625 -10 152.69140625 -10 89.0400390625 17.5 c 128,-1,20
 25.388671875 45 25.388671875 45 -12.451171875 102 c 1,21,-1
 104.483398438 223 l 1,22,23
 129.786132812 168 129.786132812 168 173.591796875 145.5 c 128,-1,24
 217.396484375 123 217.396484375 123 286.396484375 123 c 0,25,26
 396.396484375 123 396.396484375 123 410.479492188 184 c 0,27,28
 415.790039062 207 415.790039062 207 391.137695312 221.5 c 128,-1,29
 366.485351562 236 366.485351562 236 296.716796875 250 c 0,30,31
 164.48828125 275 164.48828125 275 116.455078125 322.5 c 128,-1,32
 68.4208984375 370 68.4208984375 370 88.044921875 455 c 0,33,34
 109.977539062 550 109.977539062 550 199.330078125 610 c 128,-1,35
 288.681640625 670 288.681640625 670 421.681640625 670 c 0,0,1
EndSplineSet
Substitution2: "Single Substitution lookup 57 subtable" S.swsh
Substitution2: "Single Substitution lookup 56 subtable" S.swsh
Substitution2: "'swsh' Swash lookup 38 subtable" S.swsh
Substitution2: "'c2sc' Capitals to Small Capitals lookup 11 subtable" s.sc
AlternateSubs2: "'aalt' Access All Alternates lookup 1 subtable" s.sc S.swsh
EndChar

StartChar: T
Encoding: 84 84 55
Width: 653
GlyphClass: 2
Flags: W
AnchorPoint: "Anchor-0" 259 0 basechar 0
LayerCount: 2
Fore
SplineSet
716.373046875 660 m 1,0,-1
 685.66796875 527 l 1,1,-1
 470.66796875 527 l 1,2,-1
 349 0 l 1,3,-1
 177 0 l 1,4,-1
 298.66796875 527 l 1,5,-1
 82.66796875 527 l 1,6,-1
 113.373046875 660 l 1,7,-1
 716.373046875 660 l 1,0,-1
EndSplineSet
Substitution2: "Single Substitution lookup 56 subtable" T.swsh
Substitution2: "'swsh' Swash lookup 38 subtable" T.swsh
Substitution2: "'c2sc' Capitals to Small Capitals lookup 11 subtable" t.sc
AlternateSubs2: "'aalt' Access All Alternates lookup 1 subtable" t.sc T.swsh
EndChar

StartChar: U
Encoding: 85 85 56
Width: 713
GlyphClass: 2
Flags: W
LayerCount: 2
Fore
SplineSet
739.373046875 660 m 1,0,-1
 649.103515625 269 l 2,1,2
 584.69140625 -10 584.69140625 -10 289.69140625 -10 c 128,-1,3
 -5.30859375 -10 -5.30859375 -10 59.103515625 269 c 2,4,-1
 149.373046875 660 l 1,5,-1
 322.373046875 660 l 1,6,-1
 231.411132812 266 l 2,7,8
 198.858398438 125 198.858398438 125 320.858398438 125 c 0,9,10
 444.858398438 125 444.858398438 125 477.411132812 266 c 2,11,-1
 568.373046875 660 l 1,12,-1
 739.373046875 660 l 1,0,-1
EndSplineSet
Substitution2: "'c2sc' Capitals to Small Capitals lookup 11 subtable" u.sc
Substitution2: "'aalt' Access All Alternates lookup 0 subtable" u.sc
EndChar

StartChar: V
Encoding: 86 86 57
Width: 683
GlyphClass: 2
Flags: W
LayerCount: 2
Fore
SplineSet
765.373046875 660 m 1,0,-1
 379 0 l 1,1,-1
 177 0 l 1,2,-1
 94.373046875 660 l 1,3,-1
 275.373046875 660 l 1,4,-1
 304.256835938 261 l 1,5,-1
 310.244140625 131 l 1,6,-1
 374.794921875 259 l 1,7,-1
 590.373046875 660 l 1,8,-1
 765.373046875 660 l 1,0,-1
EndSplineSet
Substitution2: "'c2sc' Capitals to Small Capitals lookup 11 subtable" v.sc
Substitution2: "'aalt' Access All Alternates lookup 0 subtable" v.sc
EndChar

StartChar: W
Encoding: 87 87 58
Width: 997
GlyphClass: 2
Flags: W
LayerCount: 2
Fore
SplineSet
479.877929688 320 m 1,0,-1
 329 0 l 1,1,-1
 136 0 l 1,2,-1
 98.373046875 660 l 1,3,-1
 283.373046875 660 l 1,4,-1
 271.166992188 135 l 1,5,-1
 511.373046875 660 l 1,6,-1
 667.373046875 660 l 1,7,-1
 667.3984375 136 l 1,8,-1
 897.373046875 660 l 1,9,-1
 1075.37304688 660 l 1,10,-1
 732 0 l 1,11,-1
 545 0 l 1,12,-1
 540.877929688 320 l 1,13,-1
 548.047851562 481 l 1,14,-1
 546.047851562 481 l 1,15,-1
 479.877929688 320 l 1,0,-1
EndSplineSet
Substitution2: "Single Substitution lookup 56 subtable" W.swsh
Substitution2: "'swsh' Swash lookup 38 subtable" W.swsh
Substitution2: "'c2sc' Capitals to Small Capitals lookup 11 subtable" w.sc
AlternateSubs2: "'aalt' Access All Alternates lookup 1 subtable" w.sc W.swsh
EndChar

StartChar: X
Encoding: 88 88 59
Width: 663
GlyphClass: 2
Flags: W
LayerCount: 2
Fore
SplineSet
591 0 m 1,0,-1
 386 0 l 1,1,-1
 312.098632812 217 l 1,2,-1
 142 0 l 1,3,-1
 -53 0 l 1,4,-1
 247.6484375 332 l 1,5,-1
 112.373046875 660 l 1,6,-1
 315.373046875 660 l 1,7,-1
 380.890625 450 l 1,8,-1
 543.373046875 660 l 1,9,-1
 729.373046875 660 l 1,10,-1
 443.802734375 337 l 1,11,-1
 591 0 l 1,0,-1
EndSplineSet
Substitution2: "'c2sc' Capitals to Small Capitals lookup 11 subtable" x.sc
Substitution2: "'aalt' Access All Alternates lookup 0 subtable" x.sc
EndChar

StartChar: Y
Encoding: 89 89 60
Width: 657
GlyphClass: 2
Flags: W
LayerCount: 2
Fore
SplineSet
735.373046875 660 m 1,0,-1
 405.639648438 241 l 1,1,-1
 350 0 l 1,2,-1
 178 0 l 1,3,-1
 233.639648438 241 l 1,4,-1
 97.373046875 660 l 1,5,-1
 275.373046875 660 l 1,6,-1
 326.5859375 479 l 1,7,-1
 350.190429688 369 l 1,8,-1
 425.5859375 479 l 1,9,-1
 560.373046875 660 l 1,10,-1
 735.373046875 660 l 1,0,-1
EndSplineSet
Substitution2: "'c2sc' Capitals to Small Capitals lookup 11 subtable" y.sc
Substitution2: "'aalt' Access All Alternates lookup 0 subtable" y.sc
EndChar

StartChar: Z
Encoding: 90 90 61
Width: 634
GlyphClass: 2
Flags: W
LayerCount: 2
Fore
SplineSet
190.012695312 130 m 1,0,-1
 569.012695312 130 l 1,1,-1
 539 0 l 1,2,-1
 -27 0 l 1,3,-1
 1.6279296875 124 l 1,4,-1
 464.360351562 530 l 1,5,-1
 102.360351562 530 l 1,6,-1
 132.373046875 660 l 1,7,-1
 679.373046875 660 l 1,8,-1
 650.745117188 536 l 1,9,-1
 190.012695312 130 l 1,0,-1
EndSplineSet
Substitution2: "'c2sc' Capitals to Small Capitals lookup 11 subtable" z.sc
Substitution2: "'aalt' Access All Alternates lookup 0 subtable" z.sc
EndChar

StartChar: bracketleft
Encoding: 91 91 62
Width: 391
GlyphClass: 2
Flags: W
LayerCount: 2
Fore
SplineSet
438.135742188 594 m 1,0,-1
 305.135742188 594 l 1,1,-1
 156.6875 -49 l 1,2,-1
 289.6875 -49 l 1,3,-1
 262.213867188 -168 l 1,4,-1
 -17.7861328125 -168 l 1,5,-1
 185.609375 713 l 1,6,-1
 465.609375 713 l 1,7,-1
 438.135742188 594 l 1,0,-1
EndSplineSet
Substitution2: "'case' Case-Sensitive Forms lookup 29 subtable" bracketleft.case
Substitution2: "'sups' Superscript lookup 15 subtable" bracketleftsuperior
Substitution2: "'subs' Subscript lookup 14 subtable" bracketleftinferior
Substitution2: "'sinf' Scientific Inferiors lookup 13 subtable" bracketleftinferior
AlternateSubs2: "'aalt' Access All Alternates lookup 1 subtable" bracketleftinferior bracketleftsuperior bracketleft.case
EndChar

StartChar: backslash
Encoding: 92 92 63
Width: 468
GlyphClass: 2
Flags: W
LayerCount: 2
Fore
SplineSet
115.377929688 712 m 1,0,-1
 273.377929688 712 l 1,1,-1
 372.838867188 -70 l 1,2,-1
 214.838867188 -70 l 1,3,-1
 115.377929688 712 l 1,0,-1
EndSplineSet
EndChar

StartChar: bracketright
Encoding: 93 93 64
Width: 391
GlyphClass: 2
Flags: W
LayerCount: 2
Fore
SplineSet
406.609375 713 m 1,0,-1
 203.213867188 -168 l 1,1,-1
 -76.7861328125 -168 l 1,2,-1
 -49.3125 -49 l 1,3,-1
 83.6875 -49 l 1,4,-1
 232.135742188 594 l 1,5,-1
 99.1357421875 594 l 1,6,-1
 126.609375 713 l 1,7,-1
 406.609375 713 l 1,0,-1
EndSplineSet
Substitution2: "'case' Case-Sensitive Forms lookup 29 subtable" bracketright.case
Substitution2: "'sups' Superscript lookup 15 subtable" bracketrightsuperior
Substitution2: "'subs' Subscript lookup 14 subtable" bracketrightinferior
Substitution2: "'sinf' Scientific Inferiors lookup 13 subtable" bracketrightinferior
AlternateSubs2: "'aalt' Access All Alternates lookup 1 subtable" bracketrightinferior bracketrightsuperior bracketright.case
EndChar

StartChar: asciicircum
Encoding: 94 94 65
Width: 612
GlyphClass: 2
Flags: W
LayerCount: 2
Fore
SplineSet
605.958007812 355 m 1,0,-1
 455.958007812 355 l 1,1,-1
 383.984375 615 l 1,2,-1
 192.958007812 355 l 1,3,-1
 42.9580078125 355 l 1,4,-1
 337.1484375 724 l 1,5,-1
 481.1484375 724 l 1,6,-1
 605.958007812 355 l 1,0,-1
EndSplineSet
EndChar

StartChar: underscore
Encoding: 95 95 66
Width: 539
GlyphClass: 2
Flags: W
LayerCount: 2
Fore
SplineSet
459.762695312 -66 m 1,0,-1
 428.595703125 -201 l 1,1,-1
 -110.404296875 -201 l 1,2,-1
 -79.2373046875 -66 l 1,3,-1
 459.762695312 -66 l 1,0,-1
EndSplineSet
EndChar

StartChar: grave
Encoding: 96 96 67
Width: 500
GlyphClass: 2
Flags: W
LayerCount: 2
Fore
SplineSet
356.380859375 738 m 1,0,-1
 383.440429688 565 l 1,1,-1
 259.440429688 565 l 1,2,-1
 198.380859375 738 l 1,3,-1
 356.380859375 738 l 1,0,-1
EndSplineSet
EndChar

StartChar: a
Encoding: 97 97 68
Width: 581
GlyphClass: 2
Flags: W
LayerCount: 2
Fore
SplineSet
502.39453125 97 m 0,0,1
 521.39453125 97 521.39453125 97 534.317382812 101 c 1,2,-1
 499.384765625 6 l 1,3,4
 466.69140625 -10 466.69140625 -10 427.69140625 -10 c 0,5,6
 319.69140625 -10 319.69140625 -10 316.467773438 67 c 1,7,8
 253.69140625 -10 253.69140625 -10 120.69140625 -10 c 0,9,10
 45.69140625 -10 45.69140625 -10 13.0791015625 22 c 128,-1,11
 -19.533203125 54 -19.533203125 54 -5.4501953125 115 c 0,12,13
 9.3251953125 179 9.3251953125 179 63.9443359375 218.5 c 128,-1,14
 118.564453125 258 118.564453125 258 227.412109375 279 c 2,15,-1
 345.491210938 301 l 1,16,-1
 349.646484375 319 l 2,17,18
 357.49609375 353 357.49609375 353 343.114257812 373 c 128,-1,19
 328.731445312 393 328.731445312 393 295.731445312 393 c 0,20,21
 215.731445312 393 215.731445312 393 184.954101562 316 c 1,22,-1
 56.189453125 356 l 1,23,24
 86.0419921875 429 86.0419921875 429 154.392578125 469.5 c 128,-1,25
 222.743164062 510 222.743164062 510 322.743164062 510 c 0,26,27
 561.743164062 510 561.743164062 510 517.416015625 318 c 2,28,-1
 475.3984375 136 l 2,29,30
 466.39453125 97 466.39453125 97 502.39453125 97 c 0,0,1
208.086914062 100 m 0,31,32
 243.086914062 100 243.086914062 100 275.588867188 119.5 c 128,-1,33
 308.090820312 139 308.090820312 139 315.478515625 171 c 2,34,-1
 325.40625 214 l 1,35,-1
 240.01953125 195 l 2,36,37
 206.171875 187 206.171875 187 190.017578125 175.5 c 128,-1,38
 173.862304688 164 173.862304688 164 169.013671875 143 c 0,39,40
 159.086914062 100 159.086914062 100 208.086914062 100 c 0,31,32
EndSplineSet
Substitution2: "Single Substitution lookup 55 subtable" ordfeminine
Substitution2: "'smcp' Lowercase to Small Capitals lookup 12 subtable" a.sc
AlternateSubs2: "'aalt' Access All Alternates lookup 1 subtable" a.sc ordfeminine
EndChar

StartChar: b
Encoding: 98 98 69
Width: 628
GlyphClass: 2
Flags: W
LayerCount: 2
Fore
SplineSet
435.743164062 510 m 0,0,1
 531.743164062 510 531.743164062 510 570.8125 441 c 128,-1,2
 609.8828125 372 609.8828125 372 581.254882812 248 c 0,3,4
 553.08984375 126 553.08984375 126 483.390625 58 c 128,-1,5
 413.69140625 -10 413.69140625 -10 315.69140625 -10 c 0,6,7
 256.69140625 -10 256.69140625 -10 220.463867188 21.5 c 128,-1,8
 184.236328125 53 184.236328125 53 175.471679688 106 c 1,9,-1
 146 0 l 1,10,-1
 -3 0 l 1,11,-1
 161.377929688 712 l 1,12,-1
 331.377929688 712 l 1,13,-1
 263.041015625 416 l 1,14,15
 329.743164062 510 329.743164062 510 435.743164062 510 c 0,0,1
285.549804688 115 m 0,16,17
 379.549804688 115 379.549804688 115 410.716796875 250 c 128,-1,18
 441.883789062 385 441.883789062 385 347.883789062 385 c 0,19,20
 303.883789062 385 303.883789062 385 272.03515625 351 c 128,-1,21
 240.185546875 317 240.185546875 317 225.87109375 255 c 2,22,-1
 223.5625 245 l 2,23,24
 208.787109375 181 208.787109375 181 225.668945312 148 c 128,-1,25
 242.549804688 115 242.549804688 115 285.549804688 115 c 0,16,17
EndSplineSet
Substitution2: "'smcp' Lowercase to Small Capitals lookup 12 subtable" b.sc
Substitution2: "'aalt' Access All Alternates lookup 0 subtable" b.sc
EndChar

StartChar: c
Encoding: 99 99 70
Width: 571
GlyphClass: 2
Flags: W
LayerCount: 2
Fore
SplineSet
353.743164062 510 m 0,0,1
 466.743164062 510 466.743164062 510 513.815429688 467 c 128,-1,2
 560.887695312 424 560.887695312 424 558.958007812 355 c 1,3,-1
 388.953125 303 l 1,4,5
 398.807617188 389 398.807617188 389 331.807617188 389 c 0,6,7
 232.807617188 389 232.807617188 389 200.254882812 248 c 0,8,9
 168.625976562 111 168.625976562 111 267.625976562 111 c 0,10,11
 338.625976562 111 338.625976562 111 369.327148438 192 c 1,12,-1
 511.013671875 143 l 1,13,14
 484.315429688 75 484.315429688 75 413.002929688 32.5 c 128,-1,15
 341.69140625 -10 341.69140625 -10 240.69140625 -10 c 0,16,17
 110.69140625 -10 110.69140625 -10 56.390625 58 c 128,-1,18
 2.08984375 126 2.08984375 126 30.716796875 250 c 0,19,20
 59.1142578125 373 59.1142578125 373 144.428710938 441.5 c 128,-1,21
 229.743164062 510 229.743164062 510 353.743164062 510 c 0,0,1
EndSplineSet
Substitution2: "'smcp' Lowercase to Small Capitals lookup 12 subtable" c.sc
Substitution2: "'aalt' Access All Alternates lookup 0 subtable" c.sc
EndChar

StartChar: d
Encoding: 100 100 71
Width: 628
GlyphClass: 2
Flags: W
LayerCount: 2
Fore
SplineSet
498.377929688 712 m 1,0,-1
 668.377929688 712 l 1,1,-1
 504 0 l 1,2,-1
 351 0 l 1,3,-1
 366.932617188 95 l 1,4,5
 333.620117188 46 333.620117188 46 284.655273438 18 c 128,-1,6
 235.69140625 -10 235.69140625 -10 179.69140625 -10 c 0,7,8
 82.69140625 -10 82.69140625 -10 43.890625 58 c 128,-1,9
 5.08984375 126 5.08984375 126 33.2548828125 248 c 0,10,11
 61.8828125 372 61.8828125 372 132.8125 441 c 128,-1,12
 203.743164062 510 203.743164062 510 300.743164062 510 c 0,13,14
 405.743164062 510 405.743164062 510 430.041015625 416 c 1,15,-1
 498.377929688 712 l 1,0,-1
267.549804688 115 m 0,16,17
 308.549804688 115 308.549804688 115 339.860351562 144.5 c 128,-1,18
 371.170898438 174 371.170898438 174 387.099609375 230 c 2,19,-1
 396.333984375 270 l 2,20,21
 406.032226562 325 406.032226562 325 388.458007812 355 c 128,-1,22
 370.883789062 385 370.883789062 385 329.883789062 385 c 0,23,24
 235.883789062 385 235.883789062 385 204.716796875 250 c 128,-1,25
 173.549804688 115 173.549804688 115 267.549804688 115 c 0,16,17
EndSplineSet
Substitution2: "'smcp' Lowercase to Small Capitals lookup 12 subtable" d.sc
Substitution2: "'aalt' Access All Alternates lookup 0 subtable" d.sc
EndChar

StartChar: e
Encoding: 101 101 72
Width: 582
GlyphClass: 2
Flags: W
AnchorPoint: "Anchor-0" 234 0 basechar 0
LayerCount: 2
Fore
SplineSet
543.333007812 257 m 0,0,1
 535.483398438 223 535.483398438 223 525.404296875 201 c 1,2,-1
 184.404296875 201 l 1,3,4
 178.395507812 110 178.395507812 110 268.395507812 110 c 0,5,6
 343.395507812 110 343.395507812 110 373.092773438 165 c 1,7,-1
 500.934570312 121 l 1,8,9
 465.159179688 57 465.159179688 57 396.92578125 23.5 c 128,-1,10
 328.69140625 -10 328.69140625 -10 240.69140625 -10 c 0,11,12
 109.69140625 -10 109.69140625 -10 55.890625 58 c 128,-1,13
 2.08984375 126 2.08984375 126 30.716796875 250 c 128,-1,14
 59.3447265625 374 59.3447265625 374 143.043945312 442 c 128,-1,15
 226.743164062 510 226.743164062 510 351.743164062 510 c 0,16,17
 472.743164062 510 472.743164062 510 521.889648438 443.5 c 128,-1,18
 571.037109375 377 571.037109375 377 543.333007812 257 c 0,0,1
323.26953125 391 m 0,19,20
 242.26953125 391 242.26953125 391 204.64453125 293 c 1,21,-1
 392.64453125 293 l 1,22,23
 403.26953125 391 403.26953125 391 323.26953125 391 c 0,19,20
EndSplineSet
Substitution2: "'smcp' Lowercase to Small Capitals lookup 12 subtable" e.sc
Substitution2: "'aalt' Access All Alternates lookup 0 subtable" e.sc
EndChar

StartChar: f
Encoding: 102 102 73
Width: 415
GlyphClass: 2
Flags: W
LayerCount: 2
Fore
SplineSet
314.514648438 535 m 2,0,-1
 306.434570312 500 l 1,1,-1
 458.434570312 500 l 1,2,-1
 430.499023438 379 l 1,3,-1
 288.499023438 379 l 1,4,-1
 201 0 l 1,5,-1
 31 0 l 1,6,-1
 118.499023438 379 l 1,7,-1
 38.4990234375 379 l 1,8,-1
 66.4345703125 500 l 1,9,-1
 146.434570312 500 l 1,10,-1
 157.053710938 546 l 2,11,12
 177.83203125 636 177.83203125 636 244.221679688 681 c 128,-1,13
 310.610351562 726 310.610351562 726 400.610351562 726 c 0,14,15
 478.610351562 726 478.610351562 726 508.915039062 697 c 1,16,-1
 467.443359375 591 l 1,17,18
 449.13671875 607 449.13671875 607 414.13671875 607 c 0,19,20
 331.13671875 607 331.13671875 607 314.514648438 535 c 2,0,-1
EndSplineSet
Substitution2: "'smcp' Lowercase to Small Capitals lookup 12 subtable" f.sc
Substitution2: "'aalt' Access All Alternates lookup 0 subtable" f.sc
EndChar

StartChar: g
Encoding: 103 103 74
Width: 628
GlyphClass: 2
Flags: W
LayerCount: 2
Fore
SplineSet
467.434570312 500 m 1,0,-1
 619.434570312 500 l 1,1,-1
 513.234375 40 l 2,2,3
 454.36328125 -215 454.36328125 -215 173.36328125 -215 c 0,4,5
 -35.63671875 -215 -35.63671875 -215 -24.9296875 -69 c 1,6,-1
 147.997070312 -26 l 1,7,8
 133.06640625 -108 133.06640625 -108 215.06640625 -108 c 0,9,10
 258.06640625 -108 258.06640625 -108 289.530273438 -80 c 128,-1,11
 320.995117188 -52 320.995117188 -52 332.76953125 -1 c 2,12,-1
 354.008789062 91 l 1,13,14
 285.232421875 14 285.232421875 14 185.232421875 14 c 0,15,16
 88.232421875 14 88.232421875 14 48.73828125 79 c 128,-1,17
 9.2451171875 144 9.2451171875 144 36.025390625 260 c 0,18,19
 63.2685546875 378 63.2685546875 378 133.005859375 444 c 128,-1,20
 202.743164062 510 202.743164062 510 299.743164062 510 c 0,21,22
 361.743164062 510 361.743164062 510 396.201171875 479.5 c 128,-1,23
 430.66015625 449 430.66015625 449 437.654296875 397 c 1,24,-1
 467.434570312 500 l 1,0,-1
272.859375 138 m 0,25,26
 315.859375 138 315.859375 138 347.401367188 168.5 c 128,-1,27
 378.942382812 199 378.942382812 199 392.333007812 257 c 2,28,-1
 394.411132812 266 l 2,29,30
 407.5703125 323 407.5703125 323 390.727539062 354 c 128,-1,31
 373.883789062 385 373.883789062 385 329.883789062 385 c 0,32,33
 235.883789062 385 235.883789062 385 207.487304688 262 c 0,34,35
 178.859375 138 178.859375 138 272.859375 138 c 0,25,26
EndSplineSet
Substitution2: "'ss01' Style Set 1 lookup 47 subtable" g.ss01
Substitution2: "'salt' Stylistic Alternatives lookup 42 subtable" g.ss01
Substitution2: "'smcp' Lowercase to Small Capitals lookup 12 subtable" g.sc
AlternateSubs2: "'aalt' Access All Alternates lookup 1 subtable" g.sc g.ss01
EndChar

StartChar: h
Encoding: 104 104 75
Width: 620
GlyphClass: 2
Flags: W
LayerCount: 2
Fore
SplineSet
442.743164062 510 m 0,0,1
 521.743164062 510 521.743164062 510 558.123046875 464 c 128,-1,2
 594.502929688 418 594.502929688 418 574.87890625 333 c 2,3,-1
 498 0 l 1,4,-1
 328 0 l 1,5,-1
 394.028320312 286 l 2,6,7
 415.9609375 381 415.9609375 381 344.9609375 381 c 0,8,9
 304.9609375 381 304.9609375 381 273.265625 352 c 128,-1,10
 241.5703125 323 241.5703125 323 227.71875 263 c 2,11,-1
 167 0 l 1,12,-1
 -3 0 l 1,13,-1
 161.377929688 712 l 1,14,-1
 331.377929688 712 l 1,15,-1
 261.424804688 409 l 1,16,17
 329.743164062 510 329.743164062 510 442.743164062 510 c 0,0,1
EndSplineSet
Substitution2: "'smcp' Lowercase to Small Capitals lookup 12 subtable" h.sc
Substitution2: "'aalt' Access All Alternates lookup 0 subtable" h.sc
EndChar

StartChar: i
Encoding: 105 105 76
Width: 291
GlyphClass: 2
Flags: W
LayerCount: 2
Fore
SplineSet
210.82421875 558 m 128,-1,1
 158.82421875 558 158.82421875 558 139.826171875 577.5 c 128,-1,2
 120.828125 597 120.828125 597 130.524414062 639 c 0,3,4
 140.452148438 682 140.452148438 682 168.454101562 701.5 c 128,-1,5
 196.456054688 721 196.456054688 721 248.456054688 721 c 128,-1,6
 300.456054688 721 300.456054688 721 319.454101562 701.5 c 128,-1,7
 338.452148438 682 338.452148438 682 328.524414062 639 c 0,8,9
 318.828125 597 318.828125 597 290.826171875 577.5 c 128,-1,0
 262.82421875 558 262.82421875 558 210.82421875 558 c 128,-1,1
282.434570312 500 m 1,10,-1
 167 0 l 1,11,-1
 -3 0 l 1,12,-1
 112.434570312 500 l 1,13,-1
 282.434570312 500 l 1,10,-1
EndSplineSet
Substitution2: "'smcp' Lowercase to Small Capitals lookup 12 subtable" i.sc
Substitution2: "'locl' Localized Forms in Latin lookup 6 subtable" i.loclTRK
Substitution2: "'locl' Localized Forms in Latin lookup 5 subtable" i.loclTRK
Substitution2: "'locl' Localized Forms in Latin lookup 4 subtable" i.loclTRK
Substitution2: "'locl' Localized Forms in Latin lookup 3 subtable" i.loclTRK
Substitution2: "'locl' Localized Forms in Latin lookup 2 subtable" i.loclTRK
Substitution2: "'aalt' Access All Alternates lookup 0 subtable" i.sc
EndChar

StartChar: j
Encoding: 106 106 77
Width: 290
GlyphClass: 2
Flags: W
LayerCount: 2
Fore
SplineSet
247.456054688 721 m 0,0,1
 347.456054688 721 347.456054688 721 328.524414062 639 c 0,2,3
 309.82421875 558 309.82421875 558 209.82421875 558 c 0,4,5
 111.82421875 558 111.82421875 558 130.524414062 639 c 0,6,7
 149.456054688 721 149.456054688 721 247.456054688 721 c 0,0,1
282.434570312 500 m 1,8,-1
 160.536132812 -28 l 2,9,10
 117.36328125 -215 117.36328125 -215 -76.63671875 -215 c 0,11,12
 -155.63671875 -215 -155.63671875 -215 -200.249023438 -183 c 1,13,-1
 -150.853515625 -73 l 1,14,15
 -132.470703125 -93 -132.470703125 -93 -92.470703125 -93 c 0,16,17
 -24.470703125 -93 -24.470703125 -93 -6.0009765625 -13 c 2,18,-1
 112.434570312 500 l 1,19,-1
 282.434570312 500 l 1,8,-1
EndSplineSet
Substitution2: "'smcp' Lowercase to Small Capitals lookup 12 subtable" j.sc
Substitution2: "'aalt' Access All Alternates lookup 0 subtable" j.sc
EndChar

StartChar: k
Encoding: 107 107 78
Width: 622
GlyphClass: 2
Flags: W
AnchorPoint: "Anchor-0" 264 0 basechar 0
LayerCount: 2
Fore
SplineSet
369 0 m 1,0,-1
 295.328125 205 l 1,1,-1
 193.549804688 115 l 1,2,-1
 167 0 l 1,3,-1
 -3 0 l 1,4,-1
 161.377929688 712 l 1,5,-1
 331.377929688 712 l 1,6,-1
 233.952148438 290 l 1,7,-1
 473.434570312 500 l 1,8,-1
 661.434570312 500 l 1,9,-1
 432.18359375 304 l 1,10,-1
 557 0 l 1,11,-1
 369 0 l 1,0,-1
EndSplineSet
Substitution2: "'smcp' Lowercase to Small Capitals lookup 12 subtable" k.sc
Substitution2: "'aalt' Access All Alternates lookup 0 subtable" k.sc
EndChar

StartChar: l
Encoding: 108 108 79
Width: 327
GlyphClass: 2
Flags: W
AnchorPoint: "Anchor-0" 126 0 basechar 0
LayerCount: 2
Fore
SplineSet
329.377929688 712 m 1,0,-1
 204.940429688 173 l 2,1,2
 197.090820312 139 197.090820312 139 203.858398438 125 c 128,-1,3
 210.625976562 111 210.625976562 111 236.625976562 111 c 0,4,5
 260.625976562 111 260.625976562 111 289.704101562 120 c 1,6,-1
 254.462890625 15 l 1,7,8
 208.69140625 -10 208.69140625 -10 144.69140625 -10 c 0,9,10
 64.69140625 -10 64.69140625 -10 37.3486328125 27.5 c 128,-1,11
 10.0068359375 65 10.0068359375 65 29.1689453125 148 c 2,12,-1
 159.377929688 712 l 1,13,-1
 329.377929688 712 l 1,0,-1
EndSplineSet
Substitution2: "'ss02' Style Set 2 lookup 48 subtable" l.ss02
Substitution2: "'salt' Stylistic Alternatives lookup 42 subtable" l.ss02
Substitution2: "'smcp' Lowercase to Small Capitals lookup 12 subtable" l.sc
AlternateSubs2: "'aalt' Access All Alternates lookup 1 subtable" l.sc l.ss02
Position2: "Single Positioning lookup 6 subtable" dx=0 dy=0 dh=-40 dv=0
EndChar

StartChar: m
Encoding: 109 109 80
Width: 941
GlyphClass: 2
Flags: W
LayerCount: 2
Fore
SplineSet
765.743164062 510 m 0,0,1
 841.743164062 510 841.743164062 510 878.623046875 464 c 128,-1,2
 915.502929688 418 915.502929688 418 895.87890625 333 c 2,3,-1
 819 0 l 1,4,-1
 649 0 l 1,5,-1
 716.875 294 l 2,6,7
 736.729492188 380 736.729492188 380 668.729492188 380 c 0,8,9
 628.729492188 380 628.729492188 380 598.03515625 351 c 128,-1,10
 567.33984375 322 567.33984375 322 554.641601562 267 c 2,11,-1
 493 0 l 1,12,-1
 323 0 l 1,13,-1
 390.875 294 l 2,14,15
 410.729492188 380 410.729492188 380 342.729492188 380 c 0,16,17
 304.729492188 380 304.729492188 380 273.03515625 351 c 128,-1,18
 241.33984375 322 241.33984375 322 227.94921875 264 c 2,19,-1
 167 0 l 1,20,-1
 -3 0 l 1,21,-1
 112.434570312 500 l 1,22,-1
 264.434570312 500 l 1,23,-1
 247.270507812 404 l 1,24,25
 319.743164062 510 319.743164062 510 439.743164062 510 c 0,26,27
 496.743164062 510 496.743164062 510 532.240234375 484 c 128,-1,28
 567.737304688 458 567.737304688 458 574.424804688 409 c 1,29,30
 609.737304688 458 609.737304688 458 660.240234375 484 c 128,-1,31
 710.743164062 510 710.743164062 510 765.743164062 510 c 0,0,1
EndSplineSet
Substitution2: "'smcp' Lowercase to Small Capitals lookup 12 subtable" m.sc
Substitution2: "'aalt' Access All Alternates lookup 0 subtable" m.sc
EndChar

StartChar: n
Encoding: 110 110 81
Width: 620
GlyphClass: 2
Flags: W
AnchorPoint: "Anchor-0" 255 0 basechar 0
LayerCount: 2
Fore
SplineSet
442.743164062 510 m 0,0,1
 521.743164062 510 521.743164062 510 558.123046875 464 c 128,-1,2
 594.502929688 418 594.502929688 418 574.87890625 333 c 2,3,-1
 498 0 l 1,4,-1
 328 0 l 1,5,-1
 394.028320312 286 l 2,6,7
 415.729492188 380 415.729492188 380 344.729492188 380 c 0,8,9
 304.729492188 380 304.729492188 380 273.150390625 351.5 c 128,-1,10
 241.5703125 323 241.5703125 323 227.94921875 264 c 2,11,-1
 167 0 l 1,12,-1
 -3 0 l 1,13,-1
 112.434570312 500 l 1,14,-1
 264.434570312 500 l 1,15,-1
 247.270507812 404 l 1,16,17
 319.743164062 510 319.743164062 510 442.743164062 510 c 0,0,1
EndSplineSet
Substitution2: "Single Substitution lookup 57 subtable" n.swsh
Substitution2: "'swsh' Swash lookup 38 subtable" n.swsh
Substitution2: "'smcp' Lowercase to Small Capitals lookup 12 subtable" n.sc
AlternateSubs2: "'aalt' Access All Alternates lookup 1 subtable" n.sc n.swsh
EndChar

StartChar: o
Encoding: 111 111 82
Width: 602
GlyphClass: 2
Flags: W
LayerCount: 2
Fore
SplineSet
354.743164062 510 m 128,-1,1
 479.743164062 510 479.743164062 510 533.428710938 441.5 c 128,-1,2
 587.114257812 373 587.114257812 373 558.716796875 250 c 128,-1,3
 530.3203125 127 530.3203125 127 445.005859375 58.5 c 128,-1,4
 359.69140625 -10 359.69140625 -10 234.69140625 -10 c 128,-1,5
 109.69140625 -10 109.69140625 -10 56.005859375 58.5 c 128,-1,6
 2.3203125 127 2.3203125 127 30.716796875 250 c 128,-1,7
 59.1142578125 373 59.1142578125 373 144.428710938 441.5 c 128,-1,0
 229.743164062 510 229.743164062 510 354.743164062 510 c 128,-1,1
326.807617188 389 m 128,-1,9
 278.807617188 389 278.807617188 389 248.189453125 356 c 128,-1,10
 217.5703125 323 217.5703125 323 200.716796875 250 c 128,-1,11
 183.86328125 177 183.86328125 177 199.245117188 144 c 128,-1,12
 214.625976562 111 214.625976562 111 262.625976562 111 c 128,-1,13
 310.625976562 111 310.625976562 111 341.245117188 144 c 128,-1,14
 371.86328125 177 371.86328125 177 388.716796875 250 c 128,-1,15
 405.5703125 323 405.5703125 323 390.189453125 356 c 128,-1,8
 374.807617188 389 374.807617188 389 326.807617188 389 c 128,-1,9
EndSplineSet
Substitution2: "Single Substitution lookup 55 subtable" ordmasculine
Substitution2: "'smcp' Lowercase to Small Capitals lookup 12 subtable" o.sc
AlternateSubs2: "'aalt' Access All Alternates lookup 1 subtable" o.sc ordmasculine
EndChar

StartChar: p
Encoding: 112 112 83
Width: 628
GlyphClass: 2
Flags: W
LayerCount: 2
Fore
SplineSet
435.743164062 510 m 0,0,1
 533.743164062 510 533.743164062 510 572.043945312 442 c 128,-1,2
 610.344726562 374 610.344726562 374 582.178710938 252 c 0,3,4
 553.55078125 128 553.55078125 128 482.62109375 59 c 128,-1,5
 411.69140625 -10 411.69140625 -10 315.69140625 -10 c 0,6,7
 209.69140625 -10 209.69140625 -10 186.392578125 84 c 1,8,-1
 118.517578125 -210 l 1,9,-1
 -51.482421875 -210 l 1,10,-1
 112.434570312 500 l 1,11,-1
 261.434570312 500 l 1,12,-1
 241.961914062 394 l 1,13,14
 275.198242188 447 275.198242188 447 325.970703125 478.5 c 128,-1,15
 376.743164062 510 376.743164062 510 435.743164062 510 c 0,0,1
285.549804688 115 m 0,16,17
 379.549804688 115 379.549804688 115 410.716796875 250 c 128,-1,18
 441.883789062 385 441.883789062 385 347.883789062 385 c 0,19,20
 304.883789062 385 304.883789062 385 272.765625 352 c 128,-1,21
 240.646484375 319 240.646484375 319 225.87109375 255 c 2,22,-1
 223.5625 245 l 2,23,24
 209.249023438 183 209.249023438 183 225.399414062 149 c 128,-1,25
 241.549804688 115 241.549804688 115 285.549804688 115 c 0,16,17
EndSplineSet
Substitution2: "'smcp' Lowercase to Small Capitals lookup 12 subtable" p.sc
Substitution2: "'aalt' Access All Alternates lookup 0 subtable" p.sc
EndChar

StartChar: q
Encoding: 113 113 84
Width: 629
GlyphClass: 2
Flags: W
LayerCount: 2
Fore
SplineSet
470.434570312 500 m 1,0,-1
 619.434570312 500 l 1,1,-1
 455.517578125 -210 l 1,2,-1
 285.517578125 -210 l 1,3,-1
 353.162109375 83 l 1,4,5
 285.69140625 -10 285.69140625 -10 180.69140625 -10 c 0,6,7
 83.69140625 -10 83.69140625 -10 45.12109375 59 c 128,-1,8
 6.55078125 128 6.55078125 128 35.1787109375 252 c 0,9,10
 63.3447265625 374 63.3447265625 374 133.043945312 442 c 128,-1,11
 202.743164062 510 202.743164062 510 299.743164062 510 c 0,12,13
 358.743164062 510 358.743164062 510 395.0859375 479 c 128,-1,14
 431.428710938 448 431.428710938 448 440.193359375 395 c 1,15,-1
 470.434570312 500 l 1,0,-1
268.549804688 115 m 0,16,17
 312.549804688 115 312.549804688 115 344.399414062 149 c 128,-1,18
 376.249023438 183 376.249023438 183 390.5625 245 c 2,19,-1
 392.87109375 255 l 2,20,21
 407.416015625 318 407.416015625 318 390.650390625 351.5 c 128,-1,22
 373.883789062 385 373.883789062 385 330.883789062 385 c 0,23,24
 236.883789062 385 236.883789062 385 205.716796875 250 c 128,-1,25
 174.549804688 115 174.549804688 115 268.549804688 115 c 0,16,17
EndSplineSet
Substitution2: "'smcp' Lowercase to Small Capitals lookup 12 subtable" q.sc
Substitution2: "'aalt' Access All Alternates lookup 0 subtable" q.sc
EndChar

StartChar: r
Encoding: 114 114 85
Width: 430
GlyphClass: 2
Flags: W
AnchorPoint: "Anchor-0" 83 0 basechar 0
LayerCount: 2
Fore
SplineSet
423.743164062 510 m 0,0,1
 457.743164062 510 457.743164062 510 475.203125 499 c 1,2,-1
 423.958007812 355 l 1,3,4
 403.420898438 370 403.420898438 370 364.420898438 370 c 0,5,6
 316.420898438 370 316.420898438 370 277.379882812 339.5 c 128,-1,7
 238.337890625 309 238.337890625 309 225.178710938 252 c 2,8,-1
 167 0 l 1,9,-1
 -3 0 l 1,10,-1
 112.434570312 500 l 1,11,-1
 262.434570312 500 l 1,12,-1
 244.5 392 l 1,13,14
 309.743164062 510 309.743164062 510 423.743164062 510 c 0,0,1
EndSplineSet
Substitution2: "Single Substitution lookup 57 subtable" r.swsh
Substitution2: "'swsh' Swash lookup 38 subtable" r.swsh
Substitution2: "'smcp' Lowercase to Small Capitals lookup 12 subtable" r.sc
AlternateSubs2: "'aalt' Access All Alternates lookup 1 subtable" r.sc r.swsh
EndChar

StartChar: s
Encoding: 115 115 86
Width: 533
GlyphClass: 2
Flags: W
AnchorPoint: "Anchor-0" 212 0 basechar 0
LayerCount: 2
Fore
SplineSet
201.69140625 -10 m 0,0,1
 29.69140625 -10 29.69140625 -10 -21.9921875 78 c 1,2,-1
 88.1708984375 174 l 1,3,4
 114.779296875 103 114.779296875 103 219.779296875 103 c 0,5,6
 254.779296875 103 254.779296875 103 276.97265625 112.5 c 128,-1,7
 299.166015625 122 299.166015625 122 302.859375 138 c 0,8,9
 306.091796875 152 306.091796875 152 288.015625 162.5 c 128,-1,10
 269.940429688 173 269.940429688 173 222.249023438 183 c 0,11,12
 115.328125 205 115.328125 205 76.6005859375 243 c 128,-1,13
 37.8740234375 281 37.8740234375 281 52.4189453125 344 c 0,14,15
 67.88671875 411 67.88671875 411 142.314453125 460.5 c 128,-1,16
 216.743164062 510 216.743164062 510 331.743164062 510 c 0,17,18
 491.743164062 510 491.743164062 510 539.041015625 416 c 1,19,-1
 426.262695312 326 l 1,20,21
 402.654296875 397 402.654296875 397 310.654296875 397 c 0,22,23
 274.654296875 397 274.654296875 397 252.115234375 386 c 128,-1,24
 229.575195312 375 229.575195312 375 225.881835938 359 c 0,25,26
 222.418945312 344 222.418945312 344 240.494140625 333.5 c 128,-1,27
 258.5703125 323 258.5703125 323 307.26171875 313 c 0,28,29
 412.875 294 412.875 294 452.717773438 256.5 c 128,-1,30
 492.560546875 219 492.560546875 219 477.553710938 154 c 0,31,32
 460.700195312 81 460.700195312 81 389.196289062 35.5 c 128,-1,33
 317.69140625 -10 317.69140625 -10 201.69140625 -10 c 0,0,1
EndSplineSet
Substitution2: "'hist' Historical Forms lookup 44 subtable" longs
Substitution2: "'smcp' Lowercase to Small Capitals lookup 12 subtable" s.sc
AlternateSubs2: "'aalt' Access All Alternates lookup 1 subtable" s.sc longs
EndChar

StartChar: t
Encoding: 116 116 87
Width: 435
GlyphClass: 2
Flags: W
AnchorPoint: "Anchor-0" 189 0 basechar 0
LayerCount: 2
Fore
SplineSet
373.705078125 133 m 1,0,-1
 366.463867188 28 l 1,1,2
 302.69140625 -10 302.69140625 -10 216.69140625 -10 c 0,3,4
 33.69140625 -10 33.69140625 -10 69.6298828125 150 c 2,5,-1
 122.499023438 379 l 1,6,-1
 36.4990234375 379 l 1,7,-1
 64.4345703125 500 l 1,8,-1
 150.434570312 500 l 1,9,-1
 176.291015625 612 l 1,10,-1
 357.142578125 659 l 1,11,-1
 320.434570312 500 l 1,12,-1
 470.434570312 500 l 1,13,-1
 442.499023438 379 l 1,14,-1
 292.499023438 379 l 1,15,-1
 246.094726562 178 l 2,16,17
 230.625976562 111 230.625976562 111 296.625976562 111 c 0,18,19
 337.625976562 111 337.625976562 111 373.705078125 133 c 1,0,-1
EndSplineSet
Substitution2: "Single Substitution lookup 57 subtable" t.swsh
Substitution2: "'swsh' Swash lookup 38 subtable" t.swsh
Substitution2: "'smcp' Lowercase to Small Capitals lookup 12 subtable" t.sc
AlternateSubs2: "'aalt' Access All Alternates lookup 1 subtable" t.sc t.swsh
EndChar

StartChar: u
Encoding: 117 117 88
Width: 620
GlyphClass: 2
Flags: W
LayerCount: 2
Fore
SplineSet
440.434570312 500 m 1,0,-1
 610.434570312 500 l 1,1,-1
 495 0 l 1,2,-1
 343 0 l 1,3,-1
 359.470703125 93 l 1,4,5
 288.69140625 -10 288.69140625 -10 162.69140625 -10 c 0,6,7
 -8.30859375 -10 -8.30859375 -10 32.32421875 166 c 2,8,-1
 109.434570312 500 l 1,9,-1
 279.434570312 500 l 1,10,-1
 212.250976562 209 l 2,11,12
 200.938476562 160 200.938476562 160 213.321289062 140 c 128,-1,13
 225.704101562 120 225.704101562 120 260.704101562 120 c 0,14,15
 302.704101562 120 302.704101562 120 334.284179688 148.5 c 128,-1,16
 365.86328125 177 365.86328125 177 379.25390625 235 c 2,17,-1
 440.434570312 500 l 1,0,-1
EndSplineSet
Substitution2: "'smcp' Lowercase to Small Capitals lookup 12 subtable" u.sc
Substitution2: "'aalt' Access All Alternates lookup 0 subtable" u.sc
EndChar

StartChar: v
Encoding: 118 118 89
Width: 561
GlyphClass: 2
Flags: W
LayerCount: 2
Fore
SplineSet
437.434570312 500 m 1,0,-1
 613.434570312 500 l 1,1,-1
 318 0 l 1,2,-1
 115 0 l 1,3,-1
 50.4345703125 500 l 1,4,-1
 229.434570312 500 l 1,5,-1
 241.93359375 108 l 1,6,-1
 437.434570312 500 l 1,0,-1
EndSplineSet
Substitution2: "'smcp' Lowercase to Small Capitals lookup 12 subtable" v.sc
Substitution2: "'aalt' Access All Alternates lookup 0 subtable" v.sc
EndChar

StartChar: w
Encoding: 119 119 90
Width: 908
GlyphClass: 2
Flags: W
LayerCount: 2
Fore
SplineSet
771.434570312 500 m 1,0,-1
 949.434570312 500 l 1,1,-1
 683 0 l 1,2,-1
 479 0 l 1,3,-1
 463.108398438 321 l 1,4,-1
 300 0 l 1,5,-1
 97 0 l 1,6,-1
 60.4345703125 500 l 1,7,-1
 239.434570312 500 l 1,8,-1
 236.396484375 123 l 1,9,-1
 421.434570312 500 l 1,10,-1
 589.434570312 500 l 1,11,-1
 599.396484375 123 l 1,12,-1
 771.434570312 500 l 1,0,-1
EndSplineSet
Substitution2: "'smcp' Lowercase to Small Capitals lookup 12 subtable" w.sc
Substitution2: "'aalt' Access All Alternates lookup 0 subtable" w.sc
EndChar

StartChar: x
Encoding: 120 120 91
Width: 589
GlyphClass: 2
Flags: W
LayerCount: 2
Fore
SplineSet
519 0 m 1,0,-1
 327 0 l 1,1,-1
 269.170898438 174 l 1,2,-1
 129 0 l 1,3,-1
 -59 0 l 1,4,-1
 179.409179688 253 l 1,5,-1
 63.4345703125 500 l 1,6,-1
 256.434570312 500 l 1,7,-1
 309.87890625 333 l 1,8,-1
 442.434570312 500 l 1,9,-1
 630.434570312 500 l 1,10,-1
 399.178710938 252 l 1,11,-1
 519 0 l 1,0,-1
EndSplineSet
Substitution2: "'smcp' Lowercase to Small Capitals lookup 12 subtable" x.sc
Substitution2: "'aalt' Access All Alternates lookup 0 subtable" x.sc
EndChar

StartChar: y
Encoding: 121 121 92
Width: 570
GlyphClass: 2
Flags: W
LayerCount: 2
Fore
SplineSet
621.434570312 500 m 1,0,-1
 323 0 l 2,1,2
 254.526367188 -119 254.526367188 -119 187.9453125 -167 c 128,-1,3
 121.36328125 -215 121.36328125 -215 25.36328125 -215 c 0,4,5
 -59.63671875 -215 -59.63671875 -215 -102.094726562 -178 c 1,6,-1
 -39.775390625 -64 l 1,7,8
 -16.7783203125 -90 -16.7783203125 -90 40.2216796875 -90 c 0,9,10
 71.2216796875 -90 71.2216796875 -90 91.6455078125 -79.5 c 128,-1,11
 112.0703125 -69 112.0703125 -69 129.303710938 -42 c 2,12,-1
 148.4609375 -11 l 1,13,-1
 121.858398438 125 l 1,14,-1
 59.4345703125 500 l 1,15,-1
 246.434570312 500 l 1,16,-1
 257.63671875 215 l 1,17,-1
 257.165039062 109 l 1,18,-1
 309.560546875 219 l 1,19,-1
 451.434570312 500 l 1,20,-1
 621.434570312 500 l 1,0,-1
EndSplineSet
Substitution2: "Single Substitution lookup 57 subtable" y.swsh
Substitution2: "'swsh' Swash lookup 38 subtable" y.swsh
Substitution2: "'smcp' Lowercase to Small Capitals lookup 12 subtable" y.sc
AlternateSubs2: "'aalt' Access All Alternates lookup 1 subtable" y.sc y.swsh
EndChar

StartChar: z
Encoding: 122 122 93
Width: 515
GlyphClass: 2
Flags: W
LayerCount: 2
Fore
SplineSet
-28 0 m 1,0,-1
 -3.9892578125 104 l 1,1,-1
 246.186523438 330 l 1,2,-1
 312.422851562 383 l 1,3,-1
 231.9609375 381 l 1,4,-1
 60.9609375 381 l 1,5,-1
 88.4345703125 500 l 1,6,-1
 527.434570312 500 l 1,7,-1
 503.423828125 396 l 1,8,-1
 254.708984375 172 l 1,9,-1
 188.01171875 117 l 1,10,-1
 276.473632812 119 l 1,11,-1
 448.473632812 119 l 1,12,-1
 421 0 l 1,13,-1
 -28 0 l 1,0,-1
EndSplineSet
Substitution2: "'smcp' Lowercase to Small Capitals lookup 12 subtable" z.sc
Substitution2: "'aalt' Access All Alternates lookup 0 subtable" z.sc
EndChar

StartChar: braceleft
Encoding: 123 123 94
Width: 420
GlyphClass: 2
Flags: W
LayerCount: 2
Fore
SplineSet
224.76953125 -1 m 2,0,1
 214.841796875 -44 214.841796875 -44 235.83984375 -63.5 c 128,-1,2
 256.837890625 -83 256.837890625 -83 312.837890625 -83 c 1,3,-1
 282.904296875 -191 l 1,4,5
 153.904296875 -191 153.904296875 -191 108.29296875 -152.5 c 128,-1,6
 62.6806640625 -114 62.6806640625 -114 84.1513671875 -21 c 2,7,-1
 115.087890625 113 l 2,8,9
 128.016601562 169 128.016601562 169 108.057617188 193 c 128,-1,10
 88.0986328125 217 88.0986328125 217 27.0986328125 217 c 1,11,-1
 52.494140625 327 l 1,12,13
 113.494140625 327 113.494140625 327 144.53515625 351 c 128,-1,14
 175.575195312 375 175.575195312 375 188.50390625 431 c 2,15,-1
 219.671875 566 l 2,16,17
 240.911132812 658 240.911132812 658 304.415039062 697 c 128,-1,18
 367.918945312 736 367.918945312 736 496.918945312 736 c 1,19,-1
 476.985351562 628 l 1,20,21
 420.985351562 628 420.985351562 628 391.098632812 609 c 128,-1,22
 361.211914062 590 361.211914062 590 351.28515625 547 c 2,23,-1
 316.423828125 396 l 2,24,25
 294.491210938 301 294.491210938 301 187.795898438 272 c 1,26,27
 281.33203125 244 281.33203125 244 259.399414062 149 c 2,28,-1
 224.76953125 -1 l 2,0,1
EndSplineSet
Substitution2: "'case' Case-Sensitive Forms lookup 29 subtable" braceleft.case
Substitution2: "'aalt' Access All Alternates lookup 0 subtable" braceleft.case
EndChar

StartChar: bar
Encoding: 124 124 95
Width: 320
GlyphClass: 2
Flags: W
LayerCount: 2
Fore
SplineSet
335.609375 713 m 1,0,-1
 132.213867188 -168 l 1,1,-1
 -17.7861328125 -168 l 1,2,-1
 185.609375 713 l 1,3,-1
 335.609375 713 l 1,0,-1
EndSplineSet
Substitution2: "'case' Case-Sensitive Forms lookup 29 subtable" bar.case
Substitution2: "'aalt' Access All Alternates lookup 0 subtable" bar.case
EndChar

StartChar: braceright
Encoding: 125 125 96
Width: 420
GlyphClass: 2
Flags: W
LayerCount: 2
Fore
SplineSet
302.50390625 431 m 2,0,1
 289.575195312 375 289.575195312 375 309.53515625 351 c 128,-1,2
 329.494140625 327 329.494140625 327 390.494140625 327 c 1,3,-1
 365.098632812 217 l 1,4,5
 304.098632812 217 304.098632812 217 273.057617188 193 c 128,-1,6
 242.016601562 169 242.016601562 169 229.087890625 113 c 2,7,-1
 198.151367188 -21 l 2,8,9
 176.680664062 -114 176.680664062 -114 113.29296875 -152.5 c 128,-1,10
 49.904296875 -191 49.904296875 -191 -79.095703125 -191 c 1,11,-1
 -59.162109375 -83 l 1,12,13
 -3.162109375 -83 -3.162109375 -83 26.83984375 -63.5 c 128,-1,14
 56.841796875 -44 56.841796875 -44 66.76953125 -1 c 2,15,-1
 101.399414062 149 l 2,16,17
 123.33203125 244 123.33203125 244 230.795898438 272 c 1,18,19
 136.491210938 301 136.491210938 301 158.423828125 396 c 2,20,-1
 193.28515625 547 l 2,21,22
 203.211914062 590 203.211914062 590 182.098632812 609 c 128,-1,23
 160.985351562 628 160.985351562 628 104.985351562 628 c 1,24,-1
 134.918945312 736 l 1,25,26
 263.918945312 736 263.918945312 736 309.415039062 697 c 128,-1,27
 354.911132812 658 354.911132812 658 333.671875 566 c 2,28,-1
 302.50390625 431 l 2,0,1
EndSplineSet
Substitution2: "'case' Case-Sensitive Forms lookup 29 subtable" braceright.case
Substitution2: "'aalt' Access All Alternates lookup 0 subtable" braceright.case
EndChar

StartChar: asciitilde
Encoding: 126 126 97
Width: 597
GlyphClass: 2
Flags: W
LayerCount: 2
Fore
SplineSet
588.119140625 425 m 1,0,1
 534.330078125 231 534.330078125 231 382.330078125 231 c 0,2,3
 342.330078125 231 342.330078125 231 314.024414062 247 c 128,-1,4
 285.71875 263 285.71875 263 265.912109375 279 c 128,-1,5
 246.106445312 295 246.106445312 295 227.106445312 295 c 0,6,7
 188.106445312 295 188.106445312 295 165.485351562 236 c 1,8,-1
 33.4853515625 236 l 1,9,10
 87.2734375 430 87.2734375 430 239.2734375 430 c 0,11,12
 279.2734375 430 279.2734375 430 307.579101562 414 c 128,-1,13
 335.885742188 398 335.885742188 398 355.69140625 382 c 128,-1,14
 375.498046875 366 375.498046875 366 394.498046875 366 c 0,15,16
 433.498046875 366 433.498046875 366 456.119140625 425 c 1,17,-1
 588.119140625 425 l 1,0,1
EndSplineSet
EndChar

StartChar: exclamdown
Encoding: 161 161 99
Width: 298
GlyphClass: 2
Flags: W
LayerCount: 2
Fore
SplineSet
163.725585938 341 m 128,-1,1
 118.725585938 341 118.725585938 341 98.3046875 363 c 128,-1,2
 77.8837890625 385 77.8837890625 385 87.119140625 425 c 0,3,4
 96.123046875 464 96.123046875 464 126.702148438 486 c 128,-1,5
 157.28125 508 157.28125 508 202.28125 508 c 128,-1,6
 247.28125 508 247.28125 508 268.202148438 486 c 128,-1,7
 289.123046875 464 289.123046875 464 280.119140625 425 c 0,8,9
 270.883789062 385 270.883789062 385 239.8046875 363 c 128,-1,0
 208.725585938 341 208.725585938 341 163.725585938 341 c 128,-1,1
-39.9384765625 -160 m 1,10,-1
 9.236328125 53 l 1,11,-1
 81.7978515625 285 l 1,12,-1
 220.797851562 285 l 1,13,-1
 186.236328125 53 l 1,14,-1
 137.061523438 -160 l 1,15,-1
 -39.9384765625 -160 l 1,10,-1
EndSplineSet
Substitution2: "'case' Case-Sensitive Forms lookup 29 subtable" exclamdown.case
Substitution2: "'smcp' Lowercase to Small Capitals lookup 12 subtable" exclamdown.sc
Substitution2: "'c2sc' Capitals to Small Capitals lookup 11 subtable" exclamdown.sc
AlternateSubs2: "'aalt' Access All Alternates lookup 1 subtable" exclamdown.sc exclamdown.case
EndChar

StartChar: cent
Encoding: 162 162 100
Width: 604
GlyphClass: 2
Flags: W
LayerCount: 2
Fore
SplineSet
519.245117188 144 m 1,0,1
 498.700195312 81 498.700195312 81 438.234375 40 c 128,-1,2
 377.76953125 -1 377.76953125 -1 289.153320312 -8 c 1,3,-1
 267.913085938 -100 l 1,4,-1
 179.913085938 -100 l 1,5,-1
 201.383789062 -7 l 1,6,7
 98.384765625 6 98.384765625 6 56.73828125 72.5 c 128,-1,8
 15.0908203125 139 15.0908203125 139 40.716796875 250 c 128,-1,9
 66.34375 361 66.34375 361 139.426757812 428.5 c 128,-1,10
 212.510742188 496 212.510742188 496 320.28125 508 c 1,11,-1
 341.520507812 600 l 1,12,-1
 429.520507812 600 l 1,13,-1
 408.28125 508 l 1,14,15
 497.434570312 500 497.434570312 500 534.853515625 458.5 c 128,-1,16
 572.272460938 417 572.272460938 417 566.958007812 355 c 1,17,-1
 428.337890625 309 l 1,18,19
 432.268554688 378 432.268554688 378 382.654296875 397 c 1,20,-1
 314.317382812 101 l 1,21,22
 376.704101562 120 376.704101562 120 404.171875 187 c 1,23,-1
 519.245117188 144 l 1,0,1
189.254882812 248 m 0,24,25
 161.55078125 128 161.55078125 128 226.779296875 103 c 1,26,-1
 294.654296875 397 l 1,27,28
 217.8828125 372 217.8828125 372 189.254882812 248 c 0,24,25
EndSplineSet
Substitution2: "'tnum' Tabular Numbers lookup 26 subtable" cent.tf
Substitution2: "'aalt' Access All Alternates lookup 0 subtable" cent.tf
EndChar

StartChar: sterling
Encoding: 163 163 101
Width: 604
GlyphClass: 2
Flags: W
LayerCount: 2
Fore
SplineSet
541.6328125 176 m 1,0,1
 526.008789062 91 526.008789062 91 480.850585938 40.5 c 128,-1,2
 435.69140625 -10 435.69140625 -10 363.69140625 -10 c 0,3,4
 299.69140625 -10 299.69140625 -10 233.850585938 47 c 1,5,6
 166.69140625 -10 166.69140625 -10 84.69140625 -10 c 0,7,8
 30.69140625 -10 30.69140625 -10 2.962890625 15 c 128,-1,9
 -24.765625 40 -24.765625 40 -14.837890625 83 c 128,-1,10
 -4.91015625 126 -4.91015625 126 36.361328125 151 c 128,-1,11
 77.6328125 176 77.6328125 176 133.6328125 176 c 0,12,13
 168.6328125 176 168.6328125 176 202.016601562 169 c 1,14,15
 212.791015625 220 212.791015625 220 195.873046875 268 c 1,16,-1
 46.873046875 268 l 1,17,-1
 68.34375 361 l 1,18,-1
 154.34375 361 l 1,19,20
 129.733398438 419 129.733398438 419 142.431640625 474 c 0,21,22
 161.59375 557 161.59375 557 235.637695312 613.5 c 128,-1,23
 309.681640625 670 309.681640625 670 418.681640625 670 c 0,24,25
 513.681640625 670 513.681640625 670 556.370117188 627.5 c 128,-1,26
 599.057617188 585 599.057617188 585 598.510742188 496 c 1,27,-1
 451.043945312 442 l 1,28,29
 455.741210938 497 455.741210938 497 439.013671875 522 c 128,-1,30
 422.28515625 547 422.28515625 547 383.28515625 547 c 0,31,32
 347.28515625 547 347.28515625 547 321.551757812 526.5 c 128,-1,33
 295.819335938 506 295.819335938 506 287.27734375 469 c 0,34,35
 279.427734375 435 279.427734375 435 305.8828125 372 c 0,36,37
 308.498046875 366 308.498046875 366 310.34375 361 c 1,38,-1
 501.34375 361 l 1,39,-1
 479.873046875 268 l 1,40,-1
 334.873046875 268 l 1,41,42
 336.408203125 240 336.408203125 240 327.404296875 201 c 128,-1,43
 318.400390625 162 318.400390625 162 296.396484375 123 c 1,44,45
 328.241210938 105 328.241210938 105 361.241210938 105 c 0,46,47
 424.241210938 105 424.241210938 105 440.403320312 188 c 1,48,-1
 541.6328125 176 l 1,0,1
104.466796875 54 m 0,49,50
 148.466796875 54 148.466796875 54 174.932617188 95 c 1,51,52
 148.625976562 111 148.625976562 111 117.625976562 111 c 0,53,54
 79.6259765625 111 79.6259765625 111 73.162109375 83 c 0,55,56
 66.466796875 54 66.466796875 54 104.466796875 54 c 0,49,50
EndSplineSet
Substitution2: "'tnum' Tabular Numbers lookup 26 subtable" sterling.tf
Substitution2: "'aalt' Access All Alternates lookup 0 subtable" sterling.tf
EndChar

StartChar: currency
Encoding: 164 164 102
Width: 604
GlyphClass: 2
Flags: W
LayerCount: 2
Fore
SplineSet
527.186523438 330 m 128,-1,1
 514.2578125 274 514.2578125 274 479.17578125 226 c 1,2,-1
 557.321289062 140 l 1,3,-1
 435.927734375 43 l 1,4,-1
 369.552734375 141 l 1,5,6
 321.934570312 121 321.934570312 121 266.934570312 121 c 128,-1,7
 211.934570312 121 211.934570312 121 170.013671875 143 c 1,8,-1
 58.927734375 43 l 1,9,-1
 -16.6787109375 140 l 1,10,-1
 101.637695312 228 l 1,11,12
 87.7958984375 272 87.7958984375 272 101.186523438 330 c 0,13,14
 114.345703125 387 114.345703125 387 148.735351562 432 c 1,15,-1
 70.58984375 518 l 1,16,-1
 191.21484375 616 l 1,17,-1
 257.127929688 516 l 1,18,19
 305.9765625 537 305.9765625 537 362.9765625 537 c 0,20,21
 417.9765625 537 417.9765625 537 457.127929688 516 c 1,22,-1
 568.21484375 616 l 1,23,-1
 644.58984375 518 l 1,24,-1
 527.2734375 430 l 1,25,0
 540.115234375 386 540.115234375 386 527.186523438 330 c 128,-1,1
294.870117188 242 m 0,26,27
 331.870117188 242 331.870117188 242 359.911132812 266 c 128,-1,28
 387.952148438 290 387.952148438 290 397.186523438 330 c 0,29,30
 406.190429688 369 406.190429688 369 389.231445312 393 c 128,-1,31
 372.272460938 417 372.272460938 417 335.272460938 417 c 0,32,33
 297.272460938 417 297.272460938 417 268.231445312 393 c 128,-1,34
 239.190429688 369 239.190429688 369 230.186523438 330 c 0,35,36
 220.952148438 290 220.952148438 290 238.911132812 266 c 128,-1,37
 256.870117188 242 256.870117188 242 294.870117188 242 c 0,26,27
EndSplineSet
Substitution2: "'tnum' Tabular Numbers lookup 26 subtable" currency.tf
Substitution2: "'aalt' Access All Alternates lookup 0 subtable" currency.tf
EndChar

StartChar: yen
Encoding: 165 165 103
Width: 604
GlyphClass: 2
Flags: W
LayerCount: 2
Fore
SplineSet
405.18359375 304 m 1,0,-1
 452.415039062 305 l 1,1,-1
 558.415039062 305 l 1,2,-1
 544.5625 245 l 1,3,-1
 373.5625 245 l 1,4,-1
 358.325195312 179 l 1,5,-1
 529.325195312 179 l 1,6,-1
 515.934570312 121 l 1,7,-1
 344.934570312 121 l 1,8,-1
 317 0 l 1,9,-1
 159 0 l 1,10,-1
 186.934570312 121 l 1,11,-1
 15.9345703125 121 l 1,12,-1
 29.3251953125 179 l 1,13,-1
 200.325195312 179 l 1,14,-1
 215.5625 245 l 1,15,-1
 44.5625 245 l 1,16,-1
 58.4150390625 305 l 1,17,-1
 164.415039062 305 l 1,18,-1
 211.18359375 304 l 1,19,-1
 106.373046875 660 l 1,20,-1
 266.373046875 660 l 1,21,-1
 307.12109375 451 l 1,22,-1
 317.341796875 348 l 1,23,-1
 319.341796875 348 l 1,24,-1
 377.352539062 452 l 1,25,-1
 514.373046875 660 l 1,26,-1
 674.373046875 660 l 1,27,-1
 405.18359375 304 l 1,0,-1
EndSplineSet
Substitution2: "'tnum' Tabular Numbers lookup 26 subtable" yen.tf
Substitution2: "'aalt' Access All Alternates lookup 0 subtable" yen.tf
EndChar

StartChar: brokenbar
Encoding: 166 166 104
Width: 272
GlyphClass: 2
Flags: W
LayerCount: 2
Fore
SplineSet
311.609375 713 m 1,0,-1
 223.87890625 333 l 1,1,-1
 73.87890625 333 l 1,2,-1
 161.609375 713 l 1,3,-1
 311.609375 713 l 1,0,-1
195.944335938 212 m 1,4,-1
 108.213867188 -168 l 1,5,-1
 -41.7861328125 -168 l 1,6,-1
 45.9443359375 212 l 1,7,-1
 195.944335938 212 l 1,4,-1
EndSplineSet
EndChar

StartChar: section
Encoding: 167 167 105
Width: 623
GlyphClass: 2
Flags: W
LayerCount: 2
Fore
SplineSet
600.181640625 278 m 0,0,1
 579.171875 187 579.171875 187 491.474609375 132 c 1,2,3
 500.779296875 103 500.779296875 103 490.852539062 60 c 0,4,5
 472.61328125 -19 472.61328125 -19 400.109375 -64.5 c 128,-1,6
 327.604492188 -110 327.604492188 -110 219.604492188 -110 c 0,7,8
 133.604492188 -110 133.604492188 -110 85.5302734375 -86.5 c 128,-1,9
 37.455078125 -63 37.455078125 -63 8.767578125 -14 c 1,10,-1
 115.69921875 68 l 1,11,12
 132.387695312 32 132.387695312 32 161.309570312 16.5 c 128,-1,13
 190.23046875 1 190.23046875 1 243.23046875 1 c 0,14,15
 350.23046875 1 350.23046875 1 360.388671875 45 c 0,16,17
 366.391601562 71 366.391601562 71 340.239257812 85.5 c 128,-1,18
 314.086914062 100 314.086914062 100 238.93359375 108 c 0,19,20
 107.934570312 121 107.934570312 121 57.169921875 161 c 128,-1,21
 6.404296875 201 6.404296875 201 23.2578125 274 c 0,22,23
 44.728515625 367 44.728515625 367 131.733398438 419 c 1,24,25
 122.890625 450 122.890625 450 132.356445312 491 c 0,26,27
 151.056640625 572 151.056640625 572 225.369140625 621 c 128,-1,28
 299.681640625 670 299.681640625 670 408.681640625 670 c 0,29,30
 495.681640625 670 495.681640625 670 541.755859375 646.5 c 128,-1,31
 587.831054688 623 587.831054688 623 616.518554688 574 c 1,32,-1
 510.818359375 493 l 1,33,34
 491.8984375 528 491.8984375 528 463.4765625 543.5 c 128,-1,35
 435.055664062 559 435.055664062 559 383.055664062 559 c 128,-1,36
 331.055664062 559 331.055664062 559 299.823242188 545 c 128,-1,37
 268.590820312 531 268.590820312 531 263.049804688 507 c 0,38,39
 257.047851562 481 257.047851562 481 283.200195312 466.5 c 128,-1,40
 309.352539062 452 309.352539062 452 384.505859375 444 c 0,41,42
 515.50390625 431 515.50390625 431 566.26953125 391 c 128,-1,43
 617.03515625 351 617.03515625 351 600.181640625 278 c 0,0,1
150.029296875 299 m 0,44,45
 143.795898438 272 143.795898438 272 171.064453125 258 c 128,-1,46
 198.33203125 244 198.33203125 244 275.485351562 236 c 0,47,48
 374.9453125 225 374.9453125 225 421.866210938 203 c 1,49,50
 466.252929688 222 466.252929688 222 473.409179688 253 c 0,51,52
 479.412109375 279 479.412109375 279 452.259765625 293.5 c 128,-1,53
 425.107421875 308 425.107421875 308 347.954101562 316 c 0,54,55
 254.032226562 325 254.032226562 325 200.573242188 349 c 1,56,57
 157.186523438 330 157.186523438 330 150.029296875 299 c 0,44,45
EndSplineSet
EndChar

StartChar: dieresis
Encoding: 168 168 106
Width: 500
GlyphClass: 2
Flags: W
LayerCount: 2
Fore
SplineSet
239.916015625 710 m 0,0,1
 279.916015625 710 279.916015625 710 298.18359375 689.5 c 128,-1,2
 316.451171875 669 316.451171875 669 308.139648438 633 c 128,-1,3
 299.828125 597 299.828125 597 272.095703125 576.5 c 128,-1,4
 244.362304688 556 244.362304688 556 204.362304688 556 c 0,5,6
 165.362304688 556 165.362304688 556 147.595703125 576.5 c 128,-1,7
 129.828125 597 129.828125 597 138.139648438 633 c 128,-1,8
 146.451171875 669 146.451171875 669 173.68359375 689.5 c 128,-1,9
 200.916015625 710 200.916015625 710 239.916015625 710 c 0,0,1
459.916015625 710 m 0,10,11
 499.916015625 710 499.916015625 710 518.18359375 689.5 c 128,-1,12
 536.451171875 669 536.451171875 669 528.139648438 633 c 128,-1,13
 519.828125 597 519.828125 597 492.095703125 576.5 c 128,-1,14
 464.362304688 556 464.362304688 556 424.362304688 556 c 0,15,16
 385.362304688 556 385.362304688 556 367.595703125 576.5 c 128,-1,17
 349.828125 597 349.828125 597 358.139648438 633 c 128,-1,18
 366.451171875 669 366.451171875 669 393.68359375 689.5 c 128,-1,19
 420.916015625 710 420.916015625 710 459.916015625 710 c 0,10,11
EndSplineSet
EndChar

StartChar: copyright
Encoding: 169 169 107
Width: 772
GlyphClass: 2
Flags: W
LayerCount: 2
Fore
SplineSet
476.681640625 670 m 128,-1,1
 632.681640625 670 632.681640625 670 705.2109375 577 c 128,-1,2
 777.740234375 484 777.740234375 484 742.186523438 330 c 128,-1,3
 706.6328125 176 706.6328125 176 591.162109375 83 c 128,-1,4
 475.69140625 -10 475.69140625 -10 319.69140625 -10 c 128,-1,5
 163.69140625 -10 163.69140625 -10 91.162109375 83 c 128,-1,6
 18.6328125 176 18.6328125 176 54.1865234375 330 c 128,-1,7
 89.740234375 484 89.740234375 484 205.2109375 577 c 128,-1,0
 320.681640625 670 320.681640625 670 476.681640625 670 c 128,-1,1
457.2890625 586 m 128,-1,9
 341.2890625 586 341.2890625 586 255.627929688 516 c 128,-1,10
 169.966796875 446 169.966796875 446 143.186523438 330 c 128,-1,11
 116.40625 214 116.40625 214 169.745117188 144 c 128,-1,12
 223.083984375 74 223.083984375 74 339.083984375 74 c 128,-1,13
 455.083984375 74 455.083984375 74 540.745117188 144 c 128,-1,14
 626.40625 214 626.40625 214 653.186523438 330 c 128,-1,15
 679.966796875 446 679.966796875 446 626.627929688 516 c 128,-1,8
 573.2890625 586 573.2890625 586 457.2890625 586 c 128,-1,9
438.051757812 520 m 0,16,17
 580.051757812 520 580.051757812 520 592.65625 410 c 1,18,-1
 485.8046875 363 l 1,19,20
 476.270507812 404 476.270507812 404 422.270507812 404 c 0,21,22
 352.270507812 404 352.270507812 404 334.956054688 329 c 128,-1,23
 317.640625 254 317.640625 254 387.640625 254 c 0,24,25
 446.640625 254 446.640625 254 475.029296875 299 c 1,26,-1
 555.640625 254 l 1,27,28
 516.327148438 192 516.327148438 192 470.092773438 165 c 128,-1,29
 423.859375 138 423.859375 138 349.859375 138 c 0,30,31
 267.859375 138 267.859375 138 231.75 189.5 c 128,-1,32
 195.639648438 241 195.639648438 241 215.956054688 329 c 128,-1,33
 236.272460938 417 236.272460938 417 296.162109375 468.5 c 128,-1,34
 356.051757812 520 356.051757812 520 438.051757812 520 c 0,16,17
EndSplineSet
EndChar

StartChar: ordfeminine
Encoding: 170 170 108
Width: 438
GlyphClass: 2
Flags: W
LayerCount: 2
Fore
SplineSet
416.19140625 382 m 0,0,1
 430.19140625 382 430.19140625 382 436.883789062 385 c 1,2,-1
 412.416015625 318 l 1,3,4
 383.645507812 306 383.645507812 306 353.645507812 306 c 0,5,6
 283.645507812 306 283.645507812 306 279.57421875 362 c 1,7,8
 229.645507812 306 229.645507812 306 139.645507812 306 c 0,9,10
 29.6455078125 306 29.6455078125 306 49.0390625 390 c 0,11,12
 59.197265625 434 59.197265625 434 97.19921875 460 c 128,-1,13
 135.202148438 486 135.202148438 486 210.665039062 501 c 2,14,-1
 294.358398438 517 l 1,15,-1
 297.12890625 529 l 2,16,17
 308.2109375 577 308.2109375 577 259.2109375 577 c 0,18,19
 209.2109375 577 209.2109375 577 187.436523438 526 c 1,20,-1
 90.9775390625 550 l 1,21,22
 111.213867188 603 111.213867188 603 161.024414062 632.5 c 128,-1,23
 210.834960938 662 210.834960938 662 285.834960938 662 c 0,24,25
 453.834960938 662 453.834960938 662 422.66796875 527 c 2,26,-1
 396.118164062 412 l 2,27,28
 389.19140625 382 389.19140625 382 416.19140625 382 c 0,0,1
205.9609375 381 m 0,29,30
 228.9609375 381 228.9609375 381 248.846679688 393.5 c 128,-1,31
 268.732421875 406 268.732421875 406 274.041992188 429 c 2,32,-1
 282.353515625 465 l 1,33,-1
 237.044921875 455 l 2,34,35
 182.274414062 443 182.274414062 443 174.88671875 411 c 0,36,37
 167.9609375 381 167.9609375 381 205.9609375 381 c 0,29,30
4.861328125 151 m 1,38,-1
 25.408203125 240 l 1,39,-1
 390.408203125 240 l 1,40,-1
 369.861328125 151 l 1,41,-1
 4.861328125 151 l 1,38,-1
EndSplineSet
EndChar

StartChar: guillemotleft
Encoding: 171 171 109
Width: 585
GlyphClass: 2
Flags: W
LayerCount: 2
Fore
SplineSet
350.430664062 461 m 1,0,-1
 184.1796875 265 l 1,1,-1
 259.9296875 69 l 1,2,-1
 111.9296875 69 l 1,3,-1
 32.1796875 265 l 1,4,-1
 202.430664062 461 l 1,5,-1
 350.430664062 461 l 1,0,-1
592.430664062 461 m 1,6,-1
 426.1796875 265 l 1,7,-1
 501.9296875 69 l 1,8,-1
 354.9296875 69 l 1,9,-1
 274.1796875 265 l 1,10,-1
 445.430664062 461 l 1,11,-1
 592.430664062 461 l 1,6,-1
EndSplineSet
Substitution2: "'case' Case-Sensitive Forms lookup 29 subtable" guillemotleft.case
Substitution2: "'aalt' Access All Alternates lookup 0 subtable" guillemotleft.case
EndChar

StartChar: logicalnot
Encoding: 172 172 110
Width: 604
GlyphClass: 2
Flags: W
LayerCount: 2
Fore
SplineSet
85.115234375 386 m 1,0,-1
 569.115234375 386 l 1,1,-1
 502.39453125 97 l 1,2,-1
 365.39453125 97 l 1,3,-1
 403.94921875 264 l 1,4,-1
 56.94921875 264 l 1,5,-1
 85.115234375 386 l 1,0,-1
EndSplineSet
EndChar

StartChar: uni00AD
Encoding: 173 173 111
Width: 528
GlyphClass: 2
Flags: W
LayerCount: 2
Fore
SplineSet
460.802734375 337 m 1,0,-1
 428.711914062 198 l 1,1,-1
 62.7119140625 198 l 1,2,-1
 94.802734375 337 l 1,3,-1
 460.802734375 337 l 1,0,-1
EndSplineSet
EndChar

StartChar: registered
Encoding: 174 174 112
Width: 772
GlyphClass: 2
Flags: W
LayerCount: 2
Fore
SplineSet
476.681640625 670 m 128,-1,1
 632.681640625 670 632.681640625 670 705.2109375 577 c 128,-1,2
 777.740234375 484 777.740234375 484 742.186523438 330 c 128,-1,3
 706.6328125 176 706.6328125 176 591.162109375 83 c 128,-1,4
 475.69140625 -10 475.69140625 -10 319.69140625 -10 c 128,-1,5
 163.69140625 -10 163.69140625 -10 91.162109375 83 c 128,-1,6
 18.6328125 176 18.6328125 176 54.1865234375 330 c 128,-1,7
 89.740234375 484 89.740234375 484 205.2109375 577 c 128,-1,0
 320.681640625 670 320.681640625 670 476.681640625 670 c 128,-1,1
339.083984375 74 m 128,-1,9
 455.083984375 74 455.083984375 74 540.745117188 144 c 128,-1,10
 626.40625 214 626.40625 214 653.186523438 330 c 128,-1,11
 679.966796875 446 679.966796875 446 626.627929688 516 c 128,-1,12
 573.2890625 586 573.2890625 586 457.2890625 586 c 128,-1,13
 341.2890625 586 341.2890625 586 255.627929688 516 c 128,-1,14
 169.966796875 446 169.966796875 446 143.186523438 330 c 128,-1,15
 116.40625 214 116.40625 214 169.745117188 144 c 128,-1,8
 223.083984375 74 223.083984375 74 339.083984375 74 c 128,-1,9
577.423828125 396 m 0,16,17
 558.03125 312 558.03125 312 473.028320312 286 c 1,18,-1
 528.861328125 151 l 1,19,-1
 407.861328125 151 l 1,20,-1
 371.719726562 276 l 1,21,-1
 343.719726562 276 l 1,22,-1
 314.861328125 151 l 1,23,-1
 213.861328125 151 l 1,24,-1
 297.897460938 515 l 1,25,-1
 473.897460938 515 l 2,26,27
 529.897460938 515 529.897460938 515 559.663085938 481.5 c 128,-1,28
 589.428710938 448 589.428710938 448 577.423828125 396 c 0,16,17
379.50390625 431 m 1,29,-1
 359.649414062 345 l 1,30,-1
 410.649414062 345 l 2,31,32
 462.649414062 345 462.649414062 345 472.577148438 388 c 128,-1,33
 482.50390625 431 482.50390625 431 430.50390625 431 c 2,34,-1
 379.50390625 431 l 1,29,-1
EndSplineSet
Substitution2: "'ordn' Ordinals lookup 22 subtable" registeredsuperior
Substitution2: "'sups' Superscript lookup 15 subtable" registeredsuperior
Substitution2: "'aalt' Access All Alternates lookup 0 subtable" registeredsuperior
EndChar

StartChar: macron
Encoding: 175 175 113
Width: 500
GlyphClass: 2
Flags: W
LayerCount: 2
Fore
SplineSet
527.60546875 674 m 1,0,-1
 503.364257812 569 l 1,1,-1
 131.364257812 569 l 1,2,-1
 155.60546875 674 l 1,3,-1
 527.60546875 674 l 1,0,-1
EndSplineSet
EndChar

StartChar: degree
Encoding: 176 176 114
Width: 495
GlyphClass: 2
Flags: W
LayerCount: 2
Fore
SplineSet
252.798828125 298 m 0,0,1
 159.798828125 298 159.798828125 298 116.958007812 348.5 c 128,-1,2
 74.1162109375 399 74.1162109375 399 93.740234375 484 c 128,-1,3
 113.364257812 569 113.364257812 569 179.522460938 619.5 c 128,-1,4
 245.681640625 670 245.681640625 670 338.681640625 670 c 0,5,6
 430.681640625 670 430.681640625 670 474.022460938 619.5 c 128,-1,7
 517.364257812 569 517.364257812 569 497.740234375 484 c 128,-1,8
 478.116210938 399 478.116210938 399 411.458007812 348.5 c 128,-1,9
 344.798828125 298 344.798828125 298 252.798828125 298 c 0,0,1
277.962890625 407 m 0,10,11
 311.962890625 407 311.962890625 407 338.926757812 428.5 c 128,-1,12
 365.890625 450 365.890625 450 373.970703125 485 c 0,13,14
 381.8203125 519 381.8203125 519 364.784179688 540.5 c 128,-1,15
 347.748046875 562 347.748046875 562 313.748046875 562 c 0,16,17
 278.748046875 562 278.748046875 562 251.784179688 540.5 c 128,-1,18
 224.8203125 519 224.8203125 519 216.970703125 485 c 0,19,20
 208.890625 450 208.890625 450 225.926757812 428.5 c 128,-1,21
 242.962890625 407 242.962890625 407 277.962890625 407 c 0,10,11
EndSplineSet
EndChar

StartChar: plusminus
Encoding: 177 177 115
Width: 604
GlyphClass: 2
Flags: W
LayerCount: 2
Fore
SplineSet
410.124023438 477 m 1,0,-1
 599.124023438 477 l 1,1,-1
 572.112304688 360 l 1,2,-1
 383.112304688 360 l 1,3,-1
 342.7109375 185 l 1,4,-1
 219.7109375 185 l 1,5,-1
 260.112304688 360 l 1,6,-1
 70.1123046875 360 l 1,7,-1
 97.1240234375 477 l 1,8,-1
 287.124023438 477 l 1,9,-1
 327.526367188 652 l 1,10,-1
 450.526367188 652 l 1,11,-1
 410.124023438 477 l 1,0,-1
-12.76953125 1 m 1,12,-1
 13.5498046875 115 l 1,13,-1
 515.549804688 115 l 1,14,-1
 489.23046875 1 l 1,15,-1
 -12.76953125 1 l 1,12,-1
EndSplineSet
EndChar

StartChar: uni00B2
Encoding: 178 178 116
Width: 392
GlyphClass: 2
Flags: W
LayerCount: 2
Fore
SplineSet
41.87890625 333 m 1,0,-1
 59.65625 410 l 1,1,2
 132.966796875 446 132.966796875 446 160.661132812 462 c 0,3,4
 295.899414062 541 295.899414062 541 308.366210938 595 c 0,5,6
 318.755859375 640 318.755859375 640 271.755859375 640 c 0,7,8
 217.755859375 640 217.755859375 640 200.209960938 564 c 1,9,-1
 88.59765625 596 l 1,10,11
 104.834960938 662 104.834960938 662 160.76171875 698.5 c 128,-1,12
 216.688476562 735 216.688476562 735 296.688476562 735 c 0,13,14
 384.688476562 735 384.688476562 735 418.799804688 696.5 c 128,-1,15
 452.911132812 658 452.911132812 658 440.674804688 605 c 0,16,17
 423.590820312 531 423.590820312 531 311.584960938 466 c 0,18,19
 270.274414062 443 270.274414062 443 225.811523438 428 c 1,20,-1
 225.349609375 426 l 1,21,22
 268.2734375 430 268.2734375 430 317.2734375 430 c 2,23,-1
 405.2734375 430 l 1,24,-1
 382.87890625 333 l 1,25,-1
 41.87890625 333 l 1,0,-1
EndSplineSet
EndChar

StartChar: uni00B3
Encoding: 179 179 117
Width: 379
GlyphClass: 2
Flags: W
LayerCount: 2
Fore
SplineSet
293.688476562 735 m 0,0,1
 370.688476562 735 370.688476562 735 404.877929688 705.5 c 128,-1,2
 439.067382812 676 439.067382812 676 426.599609375 622 c 0,3,4
 417.365234375 582 417.365234375 582 388.939453125 558.5 c 128,-1,5
 360.514648438 535 360.514648438 535 322.052734375 533 c 1,6,-1
 321.360351562 530 l 1,7,8
 364.12890625 529 364.12890625 529 383.549804688 507 c 128,-1,9
 402.970703125 485 402.970703125 485 393.736328125 445 c 0,10,11
 381.26953125 391 381.26953125 391 329.881835938 359 c 128,-1,12
 278.494140625 327 278.494140625 327 203.494140625 327 c 0,13,14
 55.494140625 327 55.494140625 327 43.8115234375 428 c 1,15,-1
 168.5078125 470 l 1,16,17
 160.041015625 416 160.041015625 416 215.041015625 416 c 0,18,19
 238.041015625 416 238.041015625 416 254.196289062 427.5 c 128,-1,20
 270.3515625 439 270.3515625 439 274.96875 459 c 0,21,22
 283.279296875 495 283.279296875 495 233.279296875 495 c 2,23,-1
 210.279296875 495 l 1,24,-1
 225.286132812 560 l 1,25,-1
 244.286132812 560 l 2,26,27
 291.286132812 560 291.286132812 560 300.520507812 600 c 0,28,29
 309.986328125 641 309.986328125 641 265.986328125 641 c 0,30,31
 218.986328125 641 218.986328125 641 200.981445312 589 c 1,32,-1
 99.5234375 626 l 1,33,34
 121.221679688 681 121.221679688 681 173.455078125 708 c 128,-1,35
 225.688476562 735 225.688476562 735 293.688476562 735 c 0,0,1
EndSplineSet
EndChar

StartChar: acute
Encoding: 180 180 118
Width: 500
GlyphClass: 2
Flags: W
LayerCount: 2
Fore
SplineSet
356.380859375 738 m 1,0,-1
 514.380859375 738 l 1,1,-1
 373.440429688 565 l 1,2,-1
 249.440429688 565 l 1,3,-1
 356.380859375 738 l 1,0,-1
EndSplineSet
EndChar

StartChar: uni00B5
Encoding: 181 181 119
Width: 617
GlyphClass: 2
Flags: W
LayerCount: 2
Fore
SplineSet
440.434570312 500 m 1,0,-1
 610.434570312 500 l 1,1,-1
 495 0 l 1,2,-1
 345 0 l 1,3,-1
 360.240234375 92 l 1,4,5
 294.69140625 -10 294.69140625 -10 183.69140625 -10 c 0,6,7
 168.69140625 -10 168.69140625 -10 161.921875 -9 c 1,8,-1
 115.517578125 -210 l 1,9,-1
 -54.482421875 -210 l 1,10,-1
 109.434570312 500 l 1,11,-1
 279.434570312 500 l 1,12,-1
 212.250976562 209 l 2,13,14
 200.938476562 160 200.938476562 160 213.821289062 140 c 128,-1,15
 226.704101562 120 226.704101562 120 261.704101562 120 c 0,16,17
 344.704101562 120 344.704101562 120 375.098632812 217 c 1,18,-1
 440.434570312 500 l 1,0,-1
EndSplineSet
EndChar

StartChar: paragraph
Encoding: 182 182 120
Width: 740
GlyphClass: 2
Flags: W
LayerCount: 2
Fore
SplineSet
762.373046875 660 m 1,0,-1
 586.913085938 -100 l 1,1,-1
 448.913085938 -100 l 1,2,-1
 594.360351562 530 l 1,3,-1
 486.360351562 530 l 1,4,-1
 340.913085938 -100 l 1,5,-1
 201.913085938 -100 l 1,6,-1
 278.330078125 231 l 1,7,8
 154.561523438 232 154.561523438 232 101.643554688 286.5 c 128,-1,9
 48.7255859375 341 48.7255859375 341 72.736328125 445 c 0,10,11
 122.373046875 660 122.373046875 660 398.373046875 660 c 2,12,-1
 762.373046875 660 l 1,0,-1
EndSplineSet
Substitution2: "'ornm' Ornaments lookup 40 subtable" uni2761
Substitution2: "'aalt' Access All Alternates lookup 0 subtable" uni2761
EndChar

StartChar: periodcentered
Encoding: 183 183 121
Width: 274
GlyphClass: 2
Flags: W
LayerCount: 2
Fore
SplineSet
175.274414062 443 m 128,-1,1
 222.274414062 443 222.274414062 443 243.349609375 419.5 c 128,-1,2
 264.423828125 396 264.423828125 396 254.49609375 353 c 0,3,4
 244.799804688 311 244.799804688 311 212.758789062 287 c 128,-1,5
 180.71875 263 180.71875 263 133.71875 263 c 128,-1,6
 86.71875 263 86.71875 263 65.7587890625 287 c 128,-1,7
 44.7998046875 311 44.7998046875 311 54.49609375 353 c 0,8,9
 64.423828125 396 64.423828125 396 96.349609375 419.5 c 128,-1,0
 128.274414062 443 128.274414062 443 175.274414062 443 c 128,-1,1
EndSplineSet
Substitution2: "Single Substitution lookup 55 subtable" periodcentered.loclCAT.sc
Substitution2: "Single Substitution lookup 54 subtable" periodcentered.loclCAT.case
Substitution2: "Single Substitution lookup 53 subtable" periodcentered.loclCAT
Substitution2: "'case' Case-Sensitive Forms lookup 29 subtable" periodcentered.case
Substitution2: "'smcp' Lowercase to Small Capitals lookup 12 subtable" periodcentered.sc
Substitution2: "'c2sc' Capitals to Small Capitals lookup 11 subtable" periodcentered.sc
AlternateSubs2: "'aalt' Access All Alternates lookup 1 subtable" periodcentered.sc periodcentered.case
Position2: "Single Positioning lookup 6 subtable" dx=0 dy=0 dh=-30 dv=0
EndChar

StartChar: cedilla
Encoding: 184 184 122
Width: 500
GlyphClass: 2
Flags: W
LayerCount: 2
Fore
SplineSet
118.461914062 2 m 1,0,-1
 168.541992188 37 l 1,1,2
 246.002929688 26 246.002929688 26 281.076171875 -10.5 c 128,-1,3
 316.149414062 -47 316.149414062 -47 304.60546875 -97 c 0,4,5
 291.446289062 -154 291.446289062 -154 245.405273438 -184.5 c 128,-1,6
 199.36328125 -215 199.36328125 -215 134.36328125 -215 c 0,7,8
 53.36328125 -215 53.36328125 -215 19.59765625 -175 c 1,9,-1
 76.8369140625 -96 l 1,10,11
 98.3720703125 -124 98.3720703125 -124 142.372070312 -124 c 0,12,13
 167.372070312 -124 167.372070312 -124 185.374023438 -111 c 128,-1,14
 203.375 -98 203.375 -98 208.684570312 -75 c 0,15,16
 214.91796875 -48 214.91796875 -48 196.07421875 -30 c 128,-1,17
 177.229492188 -12 177.229492188 -12 118.461914062 2 c 1,0,-1
EndSplineSet
EndChar

StartChar: uni00B9
Encoding: 185 185 123
Width: 298
GlyphClass: 2
Flags: W
LayerCount: 2
Fore
SplineSet
256.534179688 730 m 1,0,-1
 360.534179688 730 l 1,1,-1
 268.87890625 333 l 1,2,-1
 145.87890625 333 l 1,3,-1
 195.747070312 549 l 2,4,5
 201.749023438 575 201.749023438 575 213.752929688 614 c 1,6,7
 144.364257812 569 144.364257812 569 85.4404296875 565 c 1,8,-1
 108.7578125 666 l 1,9,10
 142.912109375 671 142.912109375 671 189.4140625 690.5 c 128,-1,11
 235.916015625 710 235.916015625 710 256.534179688 730 c 1,0,-1
EndSplineSet
EndChar

StartChar: ordmasculine
Encoding: 186 186 124
Width: 422
GlyphClass: 2
Flags: W
LayerCount: 2
Fore
SplineSet
217.645507812 306 m 0,0,1
 132.645507812 306 132.645507812 306 95.49609375 353 c 128,-1,2
 58.34765625 400 58.34765625 400 77.740234375 484 c 128,-1,3
 97.1328125 568 97.1328125 568 155.984375 615 c 128,-1,4
 214.834960938 662 214.834960938 662 299.834960938 662 c 0,5,6
 385.834960938 662 385.834960938 662 422.984375 615 c 128,-1,7
 460.1328125 568 460.1328125 568 440.740234375 484 c 128,-1,8
 421.34765625 400 421.34765625 400 362.49609375 353 c 128,-1,9
 303.645507812 306 303.645507812 306 217.645507812 306 c 0,0,1
236.577148438 388 m 0,10,11
 265.577148438 388 265.577148438 388 283.88671875 411 c 128,-1,12
 302.197265625 434 302.197265625 434 313.740234375 484 c 128,-1,13
 325.283203125 534 325.283203125 534 317.59375 557 c 128,-1,14
 309.903320312 580 309.903320312 580 280.903320312 580 c 0,15,16
 225.903320312 580 225.903320312 580 203.740234375 484 c 128,-1,17
 181.577148438 388 181.577148438 388 236.577148438 388 c 0,10,11
6.861328125 151 m 1,18,-1
 27.408203125 240 l 1,19,-1
 377.408203125 240 l 1,20,-1
 356.861328125 151 l 1,21,-1
 6.861328125 151 l 1,18,-1
EndSplineSet
EndChar

StartChar: guillemotright
Encoding: 187 187 125
Width: 585
GlyphClass: 2
Flags: W
LayerCount: 2
Fore
SplineSet
77.4306640625 461 m 1,0,-1
 224.430664062 461 l 1,1,-1
 305.1796875 265 l 1,2,-1
 133.9296875 69 l 1,3,-1
 -13.0703125 69 l 1,4,-1
 153.1796875 265 l 1,5,-1
 77.4306640625 461 l 1,0,-1
319.430664062 461 m 1,6,-1
 467.430664062 461 l 1,7,-1
 547.1796875 265 l 1,8,-1
 376.9296875 69 l 1,9,-1
 228.9296875 69 l 1,10,-1
 395.1796875 265 l 1,11,-1
 319.430664062 461 l 1,6,-1
EndSplineSet
Substitution2: "'case' Case-Sensitive Forms lookup 29 subtable" guillemotright.case
Substitution2: "'aalt' Access All Alternates lookup 0 subtable" guillemotright.case
EndChar

StartChar: onequarter
Encoding: 188 188 126
Width: 885
GlyphClass: 2
Flags: W
LayerCount: 2
Fore
SplineSet
180.740234375 484 m 2,0,1
 186.973632812 511 186.973632812 511 198.515625 548 c 1,2,3
 128.357421875 504 128.357421875 504 70.4345703125 500 c 1,4,-1
 93.751953125 601 l 1,5,6
 127.90625 606 127.90625 606 174.408203125 625.5 c 128,-1,7
 220.91015625 645 220.91015625 645 241.52734375 665 c 1,8,-1
 345.52734375 665 l 1,9,-1
 253.873046875 268 l 1,10,-1
 130.873046875 268 l 1,11,-1
 180.740234375 484 l 2,0,1
696.603515625 661 m 1,12,-1
 816.603515625 661 l 1,13,-1
 187 0 l 1,14,-1
 67 0 l 1,15,-1
 696.603515625 661 l 1,12,-1
781.400390625 162 m 1,16,-1
 841.400390625 162 l 1,17,-1
 822.700195312 81 l 1,18,-1
 762.700195312 81 l 1,19,-1
 743.076171875 -4 l 1,20,-1
 636.076171875 -4 l 1,21,-1
 655.700195312 81 l 1,22,-1
 454.700195312 81 l 1,23,-1
 467.62890625 137 l 1,24,-1
 687.961914062 394 l 1,25,-1
 834.961914062 394 l 1,26,-1
 781.400390625 162 l 1,16,-1
692.408203125 240 m 2,27,28
 702.56640625 284 702.56640625 284 713.877929688 320 c 1,29,-1
 710.877929688 320 l 1,30,31
 686.797851562 285 686.797851562 285 666.256835938 261 c 2,32,-1
 579.400390625 162 l 1,33,-1
 674.400390625 162 l 1,34,-1
 692.408203125 240 l 2,27,28
EndSplineSet
EndChar

StartChar: onehalf
Encoding: 189 189 127
Width: 953
GlyphClass: 2
Flags: W
LayerCount: 2
Fore
SplineSet
180.740234375 484 m 2,0,1
 186.973632812 511 186.973632812 511 198.515625 548 c 1,2,3
 128.357421875 504 128.357421875 504 70.4345703125 500 c 1,4,-1
 93.751953125 601 l 1,5,6
 127.90625 606 127.90625 606 174.408203125 625.5 c 128,-1,7
 220.91015625 645 220.91015625 645 241.52734375 665 c 1,8,-1
 345.52734375 665 l 1,9,-1
 253.873046875 268 l 1,10,-1
 130.873046875 268 l 1,11,-1
 180.740234375 484 l 2,0,1
696.603515625 661 m 1,12,-1
 816.603515625 661 l 1,13,-1
 187 0 l 1,14,-1
 67 0 l 1,15,-1
 696.603515625 661 l 1,12,-1
800.470703125 93 m 2,16,-1
 888.470703125 93 l 1,17,-1
 866.076171875 -4 l 1,18,-1
 525.076171875 -4 l 1,19,-1
 542.853515625 73 l 1,20,21
 616.165039062 109 616.165039062 109 643.858398438 125 c 0,22,23
 779.096679688 204 779.096679688 204 791.564453125 258 c 0,24,25
 801.953125 303 801.953125 303 754.953125 303 c 0,26,27
 700.953125 303 700.953125 303 683.407226562 227 c 1,28,-1
 571.794921875 259 l 1,29,30
 588.032226562 325 588.032226562 325 643.958984375 361.5 c 128,-1,31
 699.885742188 398 699.885742188 398 779.885742188 398 c 0,32,33
 867.885742188 398 867.885742188 398 901.997070312 359.5 c 128,-1,34
 936.108398438 321 936.108398438 321 923.873046875 268 c 0,35,36
 906.788085938 194 906.788085938 194 794.782226562 129 c 0,37,38
 753.471679688 106 753.471679688 106 709.008789062 91 c 1,39,-1
 708.546875 89 l 1,40,41
 751.470703125 93 751.470703125 93 800.470703125 93 c 2,16,-1
EndSplineSet
EndChar

StartChar: threequarters
Encoding: 190 190 128
Width: 966
GlyphClass: 2
Flags: W
LayerCount: 2
Fore
SplineSet
278.681640625 670 m 0,0,1
 355.681640625 670 355.681640625 670 389.87109375 640.5 c 128,-1,2
 424.060546875 611 424.060546875 611 411.59375 557 c 0,3,4
 402.358398438 517 402.358398438 517 373.93359375 493.5 c 128,-1,5
 345.5078125 470 345.5078125 470 307.045898438 468 c 1,6,-1
 306.353515625 465 l 1,7,8
 349.123046875 464 349.123046875 464 368.543945312 442 c 128,-1,9
 387.96484375 420 387.96484375 420 378.729492188 380 c 0,10,11
 366.262695312 326 366.262695312 326 314.875 294 c 128,-1,12
 263.487304688 262 263.487304688 262 188.487304688 262 c 0,13,14
 40.4873046875 262 40.4873046875 262 28.8046875 363 c 1,15,-1
 153.501953125 405 l 1,16,17
 145.03515625 351 145.03515625 351 200.03515625 351 c 0,18,19
 223.03515625 351 223.03515625 351 239.189453125 362.5 c 128,-1,20
 255.344726562 374 255.344726562 374 259.961914062 394 c 0,21,22
 268.2734375 430 268.2734375 430 218.2734375 430 c 2,23,-1
 195.2734375 430 l 1,24,-1
 210.279296875 495 l 1,25,-1
 229.279296875 495 l 2,26,27
 276.279296875 495 276.279296875 495 285.514648438 535 c 0,28,29
 294.98046875 576 294.98046875 576 250.98046875 576 c 0,30,31
 203.98046875 576 203.98046875 576 185.974609375 524 c 1,32,-1
 84.5166015625 561 l 1,33,34
 106.21484375 616 106.21484375 616 158.448242188 643 c 128,-1,35
 210.681640625 670 210.681640625 670 278.681640625 670 c 0,0,1
148 0 m 1,36,-1
 777.603515625 661 l 1,37,-1
 897.603515625 661 l 1,38,-1
 268 0 l 1,39,-1
 148 0 l 1,36,-1
923.400390625 162 m 1,40,-1
 904.700195312 81 l 1,41,-1
 844.700195312 81 l 1,42,-1
 825.076171875 -4 l 1,43,-1
 718.076171875 -4 l 1,44,-1
 737.700195312 81 l 1,45,-1
 536.700195312 81 l 1,46,-1
 549.62890625 137 l 1,47,-1
 769.961914062 394 l 1,48,-1
 916.961914062 394 l 1,49,-1
 863.400390625 162 l 1,50,-1
 923.400390625 162 l 1,40,-1
661.400390625 162 m 1,51,-1
 756.400390625 162 l 1,52,-1
 774.408203125 240 l 2,53,54
 784.56640625 284 784.56640625 284 795.877929688 320 c 1,55,-1
 792.877929688 320 l 1,56,57
 768.797851562 285 768.797851562 285 748.256835938 261 c 2,58,-1
 661.400390625 162 l 1,51,-1
EndSplineSet
EndChar

StartChar: questiondown
Encoding: 191 191 129
Width: 605
GlyphClass: 2
Flags: W
LayerCount: 2
Fore
SplineSet
327.495117188 340 m 0,0,1
 282.495117188 340 282.495117188 340 262.07421875 362 c 128,-1,2
 241.653320312 384 241.653320312 384 250.887695312 424 c 128,-1,3
 260.123046875 464 260.123046875 464 290.817382812 486.5 c 128,-1,4
 321.51171875 509 321.51171875 509 366.51171875 509 c 0,5,6
 412.51171875 509 412.51171875 509 432.817382812 486.5 c 128,-1,7
 453.123046875 464 453.123046875 464 443.887695312 424 c 128,-1,8
 434.653320312 384 434.653320312 384 404.07421875 362 c 128,-1,9
 373.495117188 340 373.495117188 340 327.495117188 340 c 0,0,1
194.983398438 -169 m 0,10,11
 76.9833984375 -169 76.9833984375 -169 17.8720703125 -124 c 128,-1,12
 -41.23828125 -79 -41.23828125 -79 -20.2294921875 12 c 0,13,14
 18.556640625 180 18.556640625 180 213.404296875 201 c 1,15,-1
 244.258789062 287 l 1,16,-1
 389.258789062 287 l 1,17,-1
 363.936523438 134 l 1,18,19
 269.3203125 127 269.3203125 127 224.279296875 103 c 128,-1,20
 179.23828125 79 179.23828125 79 169.7734375 38 c 0,21,22
 153.842773438 -31 153.842773438 -31 238.842773438 -31 c 0,23,24
 282.842773438 -31 282.842773438 -31 314.73046875 -5.5 c 128,-1,25
 346.6171875 20 346.6171875 20 361.9296875 69 c 1,26,-1
 511.616210938 7 l 1,27,28
 482.146484375 -73 482.146484375 -73 403.065429688 -121 c 128,-1,29
 323.983398438 -169 323.983398438 -169 194.983398438 -169 c 0,10,11
EndSplineSet
Substitution2: "'case' Case-Sensitive Forms lookup 29 subtable" questiondown.case
Substitution2: "'smcp' Lowercase to Small Capitals lookup 12 subtable" questiondown.sc
Substitution2: "'c2sc' Capitals to Small Capitals lookup 11 subtable" questiondown.sc
AlternateSubs2: "'aalt' Access All Alternates lookup 1 subtable" questiondown.sc questiondown.case
EndChar

StartChar: Agrave
Encoding: 192 192 130
Width: 677
GlyphClass: 2
Flags: W
LayerCount: 2
Fore
SplineSet
496.91796875 723 m 1,0,-1
 372.91796875 723 l 1,1,-1
 317.625976562 882 l 1,2,-1
 478.625976562 882 l 1,3,-1
 496.91796875 723 l 1,0,-1
432 0 m 1,4,-1
 421.399414062 149 l 1,5,-1
 193.399414062 149 l 1,6,-1
 113 0 l 1,7,-1
 -60 0 l 1,8,-1
 324.373046875 660 l 1,9,-1
 530.373046875 660 l 1,10,-1
 609 0 l 1,11,-1
 432 0 l 1,4,-1
256.411132812 266 m 1,12,-1
 412.411132812 266 l 1,13,-1
 400.887695312 424 l 1,14,-1
 395.8984375 528 l 1,15,-1
 393.8984375 528 l 1,16,-1
 343.119140625 425 l 1,17,-1
 256.411132812 266 l 1,12,-1
EndSplineSet
Substitution2: "Single Substitution lookup 56 subtable" Agrave.swsh
Substitution2: "'swsh' Swash lookup 32 subtable" Agrave.swsh
Substitution2: "'c2sc' Capitals to Small Capitals lookup 11 subtable" agrave.sc
AlternateSubs2: "'aalt' Access All Alternates lookup 1 subtable" agrave.sc Agrave.swsh
EndChar

StartChar: Aacute
Encoding: 193 193 131
Width: 677
GlyphClass: 2
Flags: W
LayerCount: 2
Fore
SplineSet
622.625976562 882 m 1,0,-1
 493.91796875 723 l 1,1,-1
 369.91796875 723 l 1,2,-1
 461.625976562 882 l 1,3,-1
 622.625976562 882 l 1,0,-1
432 0 m 1,4,-1
 421.399414062 149 l 1,5,-1
 193.399414062 149 l 1,6,-1
 113 0 l 1,7,-1
 -60 0 l 1,8,-1
 324.373046875 660 l 1,9,-1
 530.373046875 660 l 1,10,-1
 609 0 l 1,11,-1
 432 0 l 1,4,-1
256.411132812 266 m 1,12,-1
 412.411132812 266 l 1,13,-1
 400.887695312 424 l 1,14,-1
 395.8984375 528 l 1,15,-1
 393.8984375 528 l 1,16,-1
 343.119140625 425 l 1,17,-1
 256.411132812 266 l 1,12,-1
EndSplineSet
Substitution2: "Single Substitution lookup 56 subtable" Aacute.swsh
Substitution2: "'swsh' Swash lookup 32 subtable" Aacute.swsh
Substitution2: "'c2sc' Capitals to Small Capitals lookup 11 subtable" aacute.sc
AlternateSubs2: "'aalt' Access All Alternates lookup 1 subtable" aacute.sc Aacute.swsh
EndChar

StartChar: Acircumflex
Encoding: 194 194 132
Width: 677
GlyphClass: 2
Flags: W
LayerCount: 2
Fore
SplineSet
460.310546875 807 m 1,0,-1
 372.994140625 719 l 1,1,-1
 246.994140625 719 l 1,2,-1
 396.548828125 886 l 1,3,-1
 560.548828125 886 l 1,4,-1
 632.994140625 719 l 1,5,-1
 506.994140625 719 l 1,6,-1
 460.310546875 807 l 1,0,-1
432 0 m 1,7,-1
 421.399414062 149 l 1,8,-1
 193.399414062 149 l 1,9,-1
 113 0 l 1,10,-1
 -60 0 l 1,11,-1
 324.373046875 660 l 1,12,-1
 530.373046875 660 l 1,13,-1
 609 0 l 1,14,-1
 432 0 l 1,7,-1
256.411132812 266 m 1,15,-1
 412.411132812 266 l 1,16,-1
 400.887695312 424 l 1,17,-1
 395.8984375 528 l 1,18,-1
 393.8984375 528 l 1,19,-1
 343.119140625 425 l 1,20,-1
 256.411132812 266 l 1,15,-1
EndSplineSet
Substitution2: "Single Substitution lookup 56 subtable" Acircumflex.swsh
Substitution2: "'swsh' Swash lookup 32 subtable" Acircumflex.swsh
Substitution2: "'c2sc' Capitals to Small Capitals lookup 11 subtable" acircumflex.sc
AlternateSubs2: "'aalt' Access All Alternates lookup 1 subtable" acircumflex.sc Acircumflex.swsh
EndChar

StartChar: Atilde
Encoding: 195 195 133
Width: 677
GlyphClass: 2
Flags: W
LayerCount: 2
Fore
SplineSet
388.153320312 776 m 0,0,1
 357.153320312 776 357.153320312 776 338.224609375 720 c 1,2,-1
 242.224609375 720 l 1,3,4
 284.93359375 879 284.93359375 879 410.93359375 879 c 0,5,6
 443.93359375 879 443.93359375 879 465.0859375 864.5 c 128,-1,7
 486.23828125 850 486.23828125 850 499.505859375 836 c 128,-1,8
 512.7734375 822 512.7734375 822 527.7734375 822 c 0,9,10
 559.7734375 822 559.7734375 822 578.702148438 878 c 1,11,-1
 674.702148438 878 l 1,12,13
 631.994140625 719 631.994140625 719 505.994140625 719 c 0,14,15
 472.994140625 719 472.994140625 719 452.341796875 733.5 c 128,-1,16
 431.689453125 748 431.689453125 748 417.921875 762 c 128,-1,17
 404.153320312 776 404.153320312 776 388.153320312 776 c 0,0,1
432 0 m 1,18,-1
 421.399414062 149 l 1,19,-1
 193.399414062 149 l 1,20,-1
 113 0 l 1,21,-1
 -60 0 l 1,22,-1
 324.373046875 660 l 1,23,-1
 530.373046875 660 l 1,24,-1
 609 0 l 1,25,-1
 432 0 l 1,18,-1
256.411132812 266 m 1,26,-1
 412.411132812 266 l 1,27,-1
 400.887695312 424 l 1,28,-1
 395.8984375 528 l 1,29,-1
 393.8984375 528 l 1,30,-1
 343.119140625 425 l 1,31,-1
 256.411132812 266 l 1,26,-1
EndSplineSet
Substitution2: "Single Substitution lookup 56 subtable" Atilde.swsh
Substitution2: "'swsh' Swash lookup 32 subtable" Atilde.swsh
Substitution2: "'c2sc' Capitals to Small Capitals lookup 11 subtable" atilde.sc
AlternateSubs2: "'aalt' Access All Alternates lookup 1 subtable" atilde.sc Atilde.swsh
EndChar

StartChar: Adieresis
Encoding: 196 196 134
Width: 677
GlyphClass: 2
Flags: W
LayerCount: 2
Fore
SplineSet
328.301757812 716 m 0,0,1
 289.301757812 716 289.301757812 716 271.534179688 736.5 c 128,-1,2
 253.767578125 757 253.767578125 757 262.078125 793 c 128,-1,3
 270.389648438 829 270.389648438 829 297.622070312 849.5 c 128,-1,4
 324.85546875 870 324.85546875 870 363.85546875 870 c 0,5,6
 403.85546875 870 403.85546875 870 422.122070312 849.5 c 128,-1,7
 440.389648438 829 440.389648438 829 432.078125 793 c 128,-1,8
 423.767578125 757 423.767578125 757 396.034179688 736.5 c 128,-1,9
 368.301757812 716 368.301757812 716 328.301757812 716 c 0,0,1
548.301757812 716 m 0,10,11
 509.301757812 716 509.301757812 716 491.534179688 736.5 c 128,-1,12
 473.767578125 757 473.767578125 757 482.078125 793 c 128,-1,13
 490.389648438 829 490.389648438 829 517.622070312 849.5 c 128,-1,14
 544.85546875 870 544.85546875 870 583.85546875 870 c 0,15,16
 623.85546875 870 623.85546875 870 642.122070312 849.5 c 128,-1,17
 660.389648438 829 660.389648438 829 652.078125 793 c 128,-1,18
 643.767578125 757 643.767578125 757 616.034179688 736.5 c 128,-1,19
 588.301757812 716 588.301757812 716 548.301757812 716 c 0,10,11
432 0 m 1,20,-1
 421.399414062 149 l 1,21,-1
 193.399414062 149 l 1,22,-1
 113 0 l 1,23,-1
 -60 0 l 1,24,-1
 324.373046875 660 l 1,25,-1
 530.373046875 660 l 1,26,-1
 609 0 l 1,27,-1
 432 0 l 1,20,-1
256.411132812 266 m 1,28,-1
 412.411132812 266 l 1,29,-1
 400.887695312 424 l 1,30,-1
 395.8984375 528 l 1,31,-1
 393.8984375 528 l 1,32,-1
 343.119140625 425 l 1,33,-1
 256.411132812 266 l 1,28,-1
EndSplineSet
Substitution2: "Single Substitution lookup 56 subtable" Adieresis.swsh
Substitution2: "'titl' Titling lookup 41 subtable" Adieresis.titl
Substitution2: "'swsh' Swash lookup 32 subtable" Adieresis.swsh
Substitution2: "'c2sc' Capitals to Small Capitals lookup 11 subtable" adieresis.sc
AlternateSubs2: "'aalt' Access All Alternates lookup 1 subtable" adieresis.sc Adieresis.swsh Adieresis.titl
EndChar

StartChar: Aring
Encoding: 197 197 135
Width: 677
GlyphClass: 2
Flags: W
LayerCount: 2
Fore
SplineSet
432 0 m 1,0,-1
 421.399414062 149 l 1,1,-1
 193.399414062 149 l 1,2,-1
 113 0 l 1,3,-1
 -60 0 l 1,4,-1
 317.293945312 638 l 1,5,6
 279.912109375 671 279.912109375 671 293.995117188 732 c 0,7,8
 307.385742188 790 307.385742188 790 356.08203125 825.5 c 128,-1,9
 404.77734375 861 404.77734375 861 473.77734375 861 c 0,10,11
 543.77734375 861 543.77734375 861 575.58203125 825.5 c 128,-1,12
 607.385742188 790 607.385742188 790 593.995117188 732 c 0,13,14
 579.912109375 671 579.912109375 671 526.293945312 638 c 1,15,-1
 609 0 l 1,16,-1
 432 0 l 1,0,-1
455.5390625 782 m 128,-1,18
 428.5390625 782 428.5390625 782 409.576171875 767 c 128,-1,19
 390.61328125 752 390.61328125 752 384.610351562 726 c 128,-1,20
 378.607421875 700 378.607421875 700 390.64453125 685 c 128,-1,21
 402.681640625 670 402.681640625 670 429.681640625 670 c 128,-1,22
 456.681640625 670 456.681640625 670 475.64453125 685 c 128,-1,23
 494.607421875 700 494.607421875 700 500.610351562 726 c 128,-1,24
 506.61328125 752 506.61328125 752 494.576171875 767 c 128,-1,17
 482.5390625 782 482.5390625 782 455.5390625 782 c 128,-1,18
256.411132812 266 m 1,25,-1
 412.411132812 266 l 1,26,-1
 400.887695312 424 l 1,27,-1
 396.8984375 528 l 1,28,-1
 392.8984375 528 l 1,29,-1
 343.119140625 425 l 1,30,-1
 256.411132812 266 l 1,25,-1
EndSplineSet
Substitution2: "'c2sc' Capitals to Small Capitals lookup 11 subtable" aring.sc
Substitution2: "'aalt' Access All Alternates lookup 0 subtable" aring.sc
EndChar

StartChar: AE
Encoding: 198 198 136
Width: 924
GlyphClass: 2
Flags: W
LayerCount: 2
Fore
SplineSet
546.3203125 127 m 1,0,-1
 859.3203125 127 l 1,1,-1
 830 0 l 1,2,-1
 357 0 l 1,3,-1
 402.25 196 l 1,4,-1
 224.25 196 l 1,5,-1
 105 0 l 1,6,-1
 -68 0 l 1,7,-1
 367.373046875 660 l 1,8,-1
 968.373046875 660 l 1,9,-1
 939.052734375 533 l 1,10,-1
 640.052734375 533 l 1,11,-1
 607.26953125 391 l 1,12,-1
 836.26953125 391 l 1,13,-1
 808.565429688 271 l 1,14,-1
 579.565429688 271 l 1,15,-1
 546.3203125 127 l 1,0,-1
293.107421875 308 m 1,16,-1
 428.107421875 308 l 1,17,-1
 481.20703125 538 l 1,18,-1
 433.20703125 538 l 1,19,-1
 293.107421875 308 l 1,16,-1
EndSplineSet
Substitution2: "'c2sc' Capitals to Small Capitals lookup 11 subtable" ae.sc
Substitution2: "'aalt' Access All Alternates lookup 0 subtable" ae.sc
EndChar

StartChar: Ccedilla
Encoding: 199 199 137
Width: 681
GlyphClass: 2
Flags: W
LayerCount: 2
Fore
SplineSet
637.633789062 189 m 1,0,1
 554.463867188 28 554.463867188 28 381.307617188 -3 c 1,2,3
 425.534179688 -41 425.534179688 -41 412.60546875 -97 c 0,4,5
 399.446289062 -154 399.446289062 -154 353.405273438 -184.5 c 128,-1,6
 307.36328125 -215 307.36328125 -215 242.36328125 -215 c 0,7,8
 161.36328125 -215 161.36328125 -215 127.59765625 -175 c 1,9,-1
 184.836914062 -96 l 1,10,11
 206.372070312 -124 206.372070312 -124 250.372070312 -124 c 0,12,13
 275.372070312 -124 275.372070312 -124 293.374023438 -111 c 128,-1,14
 311.375 -98 311.375 -98 316.684570312 -75 c 0,15,16
 321.763671875 -53 321.763671875 -53 309.958007812 -37 c 128,-1,17
 298.151367188 -21 298.151367188 -21 261.153320312 -8 c 1,18,19
 130.923828125 4 130.923828125 4 76.970703125 93 c 128,-1,20
 23.017578125 182 23.017578125 182 57.1865234375 330 c 0,21,22
 93.89453125 489 93.89453125 489 201.288085938 579.5 c 128,-1,23
 308.681640625 670 308.681640625 670 458.681640625 670 c 0,24,25
 566.681640625 670 566.681640625 670 631.176757812 624.5 c 128,-1,26
 695.672851562 579 695.672851562 579 698.6640625 488 c 1,27,-1
 533.581054688 427 l 1,28,29
 533.432617188 487 533.432617188 487 509.973632812 511 c 128,-1,30
 486.514648438 535 486.514648438 535 433.514648438 535 c 0,31,32
 360.514648438 535 360.514648438 535 308.393554688 482.5 c 128,-1,33
 256.2734375 430 256.2734375 430 233.186523438 330 c 128,-1,34
 210.099609375 230 210.099609375 230 236.479492188 177.5 c 128,-1,35
 262.858398438 125 262.858398438 125 335.858398438 125 c 0,36,37
 443.858398438 125 443.858398438 125 491.791992188 233 c 1,38,-1
 637.633789062 189 l 1,0,1
EndSplineSet
Substitution2: "'c2sc' Capitals to Small Capitals lookup 11 subtable" ccedilla.sc
Substitution2: "'aalt' Access All Alternates lookup 0 subtable" ccedilla.sc
EndChar

StartChar: Egrave
Encoding: 200 200 138
Width: 631
GlyphClass: 2
Flags: W
AnchorPoint: "Anchor-0" 269 0 basechar 0
LayerCount: 2
Fore
SplineSet
506.91796875 723 m 1,0,-1
 382.91796875 723 l 1,1,-1
 327.625976562 882 l 1,2,-1
 488.625976562 882 l 1,3,-1
 506.91796875 723 l 1,0,-1
211.705078125 133 m 1,4,-1
 566.705078125 133 l 1,5,-1
 536 0 l 1,6,-1
 9 0 l 1,7,-1
 161.373046875 660 l 1,8,-1
 675.373046875 660 l 1,9,-1
 644.66796875 527 l 1,10,-1
 302.66796875 527 l 1,11,-1
 271.731445312 393 l 1,12,-1
 543.731445312 393 l 1,13,-1
 514.873046875 268 l 1,14,-1
 242.873046875 268 l 1,15,-1
 211.705078125 133 l 1,4,-1
EndSplineSet
Substitution2: "Single Substitution lookup 57 subtable" Egrave.swsh.001
Substitution2: "Single Substitution lookup 56 subtable" Egrave.swsh
AlternateSubs2: "'swsh' Swash lookup 33 subtable" Egrave.swsh Egrave.swsh.001
Substitution2: "'c2sc' Capitals to Small Capitals lookup 11 subtable" egrave.sc
AlternateSubs2: "'aalt' Access All Alternates lookup 1 subtable" egrave.sc Egrave.swsh Egrave.swsh.001
EndChar

StartChar: Eacute
Encoding: 201 201 139
Width: 631
GlyphClass: 2
Flags: W
AnchorPoint: "Anchor-0" 269 0 basechar 0
LayerCount: 2
Fore
SplineSet
607.625976562 882 m 1,0,-1
 478.91796875 723 l 1,1,-1
 354.91796875 723 l 1,2,-1
 446.625976562 882 l 1,3,-1
 607.625976562 882 l 1,0,-1
211.705078125 133 m 1,4,-1
 566.705078125 133 l 1,5,-1
 536 0 l 1,6,-1
 9 0 l 1,7,-1
 161.373046875 660 l 1,8,-1
 675.373046875 660 l 1,9,-1
 644.66796875 527 l 1,10,-1
 302.66796875 527 l 1,11,-1
 271.731445312 393 l 1,12,-1
 543.731445312 393 l 1,13,-1
 514.873046875 268 l 1,14,-1
 242.873046875 268 l 1,15,-1
 211.705078125 133 l 1,4,-1
EndSplineSet
Substitution2: "Single Substitution lookup 57 subtable" Eacute.swsh.001
Substitution2: "Single Substitution lookup 56 subtable" Eacute.swsh
AlternateSubs2: "'swsh' Swash lookup 33 subtable" Eacute.swsh Eacute.swsh.001
Substitution2: "'c2sc' Capitals to Small Capitals lookup 11 subtable" eacute.sc
AlternateSubs2: "'aalt' Access All Alternates lookup 1 subtable" eacute.sc Eacute.swsh Eacute.swsh.001
EndChar

StartChar: Ecircumflex
Encoding: 202 202 140
Width: 631
GlyphClass: 2
Flags: W
AnchorPoint: "Anchor-0" 269 0 basechar 0
LayerCount: 2
Fore
SplineSet
445.310546875 807 m 1,0,-1
 357.994140625 719 l 1,1,-1
 231.994140625 719 l 1,2,-1
 381.548828125 886 l 1,3,-1
 545.548828125 886 l 1,4,-1
 617.994140625 719 l 1,5,-1
 491.994140625 719 l 1,6,-1
 445.310546875 807 l 1,0,-1
211.705078125 133 m 1,7,-1
 566.705078125 133 l 1,8,-1
 536 0 l 1,9,-1
 9 0 l 1,10,-1
 161.373046875 660 l 1,11,-1
 675.373046875 660 l 1,12,-1
 644.66796875 527 l 1,13,-1
 302.66796875 527 l 1,14,-1
 271.731445312 393 l 1,15,-1
 543.731445312 393 l 1,16,-1
 514.873046875 268 l 1,17,-1
 242.873046875 268 l 1,18,-1
 211.705078125 133 l 1,7,-1
EndSplineSet
Substitution2: "Single Substitution lookup 57 subtable" Ecircumflex.swsh.001
Substitution2: "Single Substitution lookup 56 subtable" Ecircumflex.swsh
AlternateSubs2: "'swsh' Swash lookup 33 subtable" Ecircumflex.swsh Ecircumflex.swsh.001
Substitution2: "'c2sc' Capitals to Small Capitals lookup 11 subtable" ecircumflex.sc
AlternateSubs2: "'aalt' Access All Alternates lookup 1 subtable" ecircumflex.sc Ecircumflex.swsh Ecircumflex.swsh.001
EndChar

StartChar: Edieresis
Encoding: 203 203 141
Width: 631
GlyphClass: 2
Flags: W
AnchorPoint: "Anchor-0" 269 0 basechar 0
LayerCount: 2
Fore
SplineSet
313.301757812 716 m 0,0,1
 274.301757812 716 274.301757812 716 256.534179688 736.5 c 128,-1,2
 238.767578125 757 238.767578125 757 247.078125 793 c 128,-1,3
 255.389648438 829 255.389648438 829 282.622070312 849.5 c 128,-1,4
 309.85546875 870 309.85546875 870 348.85546875 870 c 0,5,6
 388.85546875 870 388.85546875 870 407.122070312 849.5 c 128,-1,7
 425.389648438 829 425.389648438 829 417.078125 793 c 128,-1,8
 408.767578125 757 408.767578125 757 381.034179688 736.5 c 128,-1,9
 353.301757812 716 353.301757812 716 313.301757812 716 c 0,0,1
533.301757812 716 m 0,10,11
 494.301757812 716 494.301757812 716 476.534179688 736.5 c 128,-1,12
 458.767578125 757 458.767578125 757 467.078125 793 c 128,-1,13
 475.389648438 829 475.389648438 829 502.622070312 849.5 c 128,-1,14
 529.85546875 870 529.85546875 870 568.85546875 870 c 0,15,16
 608.85546875 870 608.85546875 870 627.122070312 849.5 c 128,-1,17
 645.389648438 829 645.389648438 829 637.078125 793 c 128,-1,18
 628.767578125 757 628.767578125 757 601.034179688 736.5 c 128,-1,19
 573.301757812 716 573.301757812 716 533.301757812 716 c 0,10,11
211.705078125 133 m 1,20,-1
 566.705078125 133 l 1,21,-1
 536 0 l 1,22,-1
 9 0 l 1,23,-1
 161.373046875 660 l 1,24,-1
 675.373046875 660 l 1,25,-1
 644.66796875 527 l 1,26,-1
 302.66796875 527 l 1,27,-1
 271.731445312 393 l 1,28,-1
 543.731445312 393 l 1,29,-1
 514.873046875 268 l 1,30,-1
 242.873046875 268 l 1,31,-1
 211.705078125 133 l 1,20,-1
EndSplineSet
Substitution2: "Single Substitution lookup 57 subtable" Edieresis.swsh.001
Substitution2: "Single Substitution lookup 56 subtable" Edieresis.swsh
AlternateSubs2: "'swsh' Swash lookup 33 subtable" Edieresis.swsh Edieresis.swsh.001
Substitution2: "'c2sc' Capitals to Small Capitals lookup 11 subtable" edieresis.sc
AlternateSubs2: "'aalt' Access All Alternates lookup 1 subtable" edieresis.sc Edieresis.swsh Edieresis.swsh.001
EndChar

StartChar: Igrave
Encoding: 204 204 142
Width: 318
GlyphClass: 2
Flags: W
LayerCount: 2
Fore
SplineSet
299.625976562 882 m 1,0,-1
 317.91796875 723 l 1,1,-1
 193.91796875 723 l 1,2,-1
 138.625976562 882 l 1,3,-1
 299.625976562 882 l 1,0,-1
333.373046875 660 m 1,4,-1
 181 0 l 1,5,-1
 9 0 l 1,6,-1
 161.373046875 660 l 1,7,-1
 333.373046875 660 l 1,4,-1
EndSplineSet
Substitution2: "'c2sc' Capitals to Small Capitals lookup 11 subtable" igrave.sc
Substitution2: "'aalt' Access All Alternates lookup 0 subtable" igrave.sc
EndChar

StartChar: Iacute
Encoding: 205 205 143
Width: 318
GlyphClass: 2
Flags: W
LayerCount: 2
Fore
SplineSet
281.625976562 882 m 1,0,-1
 442.625976562 882 l 1,1,-1
 313.91796875 723 l 1,2,-1
 189.91796875 723 l 1,3,-1
 281.625976562 882 l 1,0,-1
333.373046875 660 m 1,4,-1
 181 0 l 1,5,-1
 9 0 l 1,6,-1
 161.373046875 660 l 1,7,-1
 333.373046875 660 l 1,4,-1
EndSplineSet
Substitution2: "'c2sc' Capitals to Small Capitals lookup 11 subtable" iacute.sc
Substitution2: "'aalt' Access All Alternates lookup 0 subtable" iacute.sc
EndChar

StartChar: Icircumflex
Encoding: 206 206 144
Width: 318
GlyphClass: 2
Flags: W
LayerCount: 2
Fore
SplineSet
453.994140625 719 m 1,0,-1
 327.994140625 719 l 1,1,-1
 281.310546875 807 l 1,2,-1
 193.994140625 719 l 1,3,-1
 67.994140625 719 l 1,4,-1
 217.548828125 886 l 1,5,-1
 381.548828125 886 l 1,6,-1
 453.994140625 719 l 1,0,-1
333.373046875 660 m 1,7,-1
 181 0 l 1,8,-1
 9 0 l 1,9,-1
 161.373046875 660 l 1,10,-1
 333.373046875 660 l 1,7,-1
EndSplineSet
Substitution2: "'c2sc' Capitals to Small Capitals lookup 11 subtable" icircumflex.sc
Substitution2: "'aalt' Access All Alternates lookup 0 subtable" icircumflex.sc
EndChar

StartChar: Idieresis
Encoding: 207 207 145
Width: 318
GlyphClass: 2
Flags: W
LayerCount: 2
Fore
SplineSet
192.85546875 870 m 0,0,1
 231.85546875 870 231.85546875 870 249.622070312 849.5 c 128,-1,2
 267.389648438 829 267.389648438 829 259.078125 793 c 128,-1,3
 250.767578125 757 250.767578125 757 223.534179688 736.5 c 128,-1,4
 196.301757812 716 196.301757812 716 157.301757812 716 c 0,5,6
 119.301757812 716 119.301757812 716 102.034179688 736.5 c 128,-1,7
 84.767578125 757 84.767578125 757 93.078125 793 c 128,-1,8
 101.389648438 829 101.389648438 829 128.122070312 849.5 c 128,-1,9
 154.85546875 870 154.85546875 870 192.85546875 870 c 0,0,1
396.85546875 870 m 0,10,11
 435.85546875 870 435.85546875 870 453.622070312 849.5 c 128,-1,12
 471.389648438 829 471.389648438 829 463.078125 793 c 128,-1,13
 454.767578125 757 454.767578125 757 427.534179688 736.5 c 128,-1,14
 400.301757812 716 400.301757812 716 361.301757812 716 c 0,15,16
 323.301757812 716 323.301757812 716 306.034179688 736.5 c 128,-1,17
 288.767578125 757 288.767578125 757 297.078125 793 c 128,-1,18
 305.389648438 829 305.389648438 829 332.122070312 849.5 c 128,-1,19
 358.85546875 870 358.85546875 870 396.85546875 870 c 0,10,11
333.373046875 660 m 1,20,-1
 181 0 l 1,21,-1
 9 0 l 1,22,-1
 161.373046875 660 l 1,23,-1
 333.373046875 660 l 1,20,-1
EndSplineSet
Substitution2: "'c2sc' Capitals to Small Capitals lookup 11 subtable" idieresis.sc
Substitution2: "'aalt' Access All Alternates lookup 0 subtable" idieresis.sc
EndChar

StartChar: Eth
Encoding: 208 208 146
Width: 741
GlyphClass: 2
Flags: W
LayerCount: 2
Fore
SplineSet
464.373046875 660 m 2,0,1
 619.373046875 660 619.373046875 660 682.133789062 574.5 c 128,-1,2
 744.89453125 489 744.89453125 489 708.186523438 330 c 128,-1,3
 671.478515625 171 671.478515625 171 569.239257812 85.5 c 128,-1,4
 467 0 467 0 312 0 c 2,5,-1
 32 0 l 1,6,-1
 95.02734375 273 l 1,7,-1
 12.02734375 273 l 1,8,-1
 38.345703125 387 l 1,9,-1
 121.345703125 387 l 1,10,-1
 184.373046875 660 l 1,11,-1
 464.373046875 660 l 2,0,1
325.012695312 130 m 2,12,13
 408.012695312 130 408.012695312 130 458.556640625 180 c 128,-1,14
 509.099609375 230 509.099609375 230 532.186523438 330 c 128,-1,15
 555.2734375 430 555.2734375 430 527.81640625 480 c 128,-1,16
 500.360351562 530 500.360351562 530 417.360351562 530 c 2,17,-1
 326.360351562 530 l 1,18,-1
 293.345703125 387 l 1,19,-1
 424.345703125 387 l 1,20,-1
 398.02734375 273 l 1,21,-1
 267.02734375 273 l 1,22,-1
 234.012695312 130 l 1,23,-1
 325.012695312 130 l 2,12,13
EndSplineSet
Substitution2: "'c2sc' Capitals to Small Capitals lookup 11 subtable" eth.sc
Substitution2: "'aalt' Access All Alternates lookup 0 subtable" eth.sc
EndChar

StartChar: Ntilde
Encoding: 209 209 147
Width: 741
GlyphClass: 2
Flags: W
AnchorPoint: "Anchor-0" 319 0 basechar 0
LayerCount: 2
Fore
SplineSet
708.702148438 878 m 1,0,1
 665.994140625 719 665.994140625 719 539.994140625 719 c 0,2,3
 506.994140625 719 506.994140625 719 486.341796875 733.5 c 128,-1,4
 465.689453125 748 465.689453125 748 451.921875 762 c 128,-1,5
 438.153320312 776 438.153320312 776 422.153320312 776 c 0,6,7
 391.153320312 776 391.153320312 776 372.224609375 720 c 1,8,-1
 276.224609375 720 l 1,9,10
 318.93359375 879 318.93359375 879 444.93359375 879 c 0,11,12
 477.93359375 879 477.93359375 879 499.0859375 864.5 c 128,-1,13
 520.23828125 850 520.23828125 850 533.505859375 836 c 128,-1,14
 546.7734375 822 546.7734375 822 561.7734375 822 c 0,15,16
 593.7734375 822 593.7734375 822 612.702148438 878 c 1,17,-1
 708.702148438 878 l 1,0,1
756.373046875 660 m 1,18,-1
 604 0 l 1,19,-1
 413 0 l 1,20,-1
 290.419921875 357 l 1,21,-1
 263.506835938 457 l 1,22,-1
 262.506835938 457 l 1,23,-1
 237.87890625 333 l 1,24,-1
 161 0 l 1,25,-1
 9 0 l 1,26,-1
 161.373046875 660 l 1,27,-1
 352.373046875 660 l 1,28,-1
 474.953125 303 l 1,29,-1
 501.866210938 203 l 1,30,-1
 502.866210938 203 l 1,31,-1
 527.494140625 327 l 1,32,-1
 604.373046875 660 l 1,33,-1
 756.373046875 660 l 1,18,-1
EndSplineSet
Substitution2: "Single Substitution lookup 57 subtable" Ntilde.swsh
Substitution2: "'swsh' Swash lookup 36 subtable" Ntilde.swsh
Substitution2: "'c2sc' Capitals to Small Capitals lookup 11 subtable" ntilde.sc
AlternateSubs2: "'aalt' Access All Alternates lookup 1 subtable" ntilde.sc Ntilde.swsh
EndChar

StartChar: Ograve
Encoding: 210 210 148
Width: 737
GlyphClass: 2
Flags: W
LayerCount: 2
Fore
SplineSet
509.625976562 882 m 1,0,-1
 527.91796875 723 l 1,1,-1
 403.91796875 723 l 1,2,-1
 348.625976562 882 l 1,3,-1
 509.625976562 882 l 1,0,-1
459.681640625 670 m 128,-1,5
 610.681640625 670 610.681640625 670 675.788085938 579.5 c 128,-1,6
 740.89453125 489 740.89453125 489 704.186523438 330 c 128,-1,7
 667.478515625 171 667.478515625 171 560.584960938 80.5 c 128,-1,8
 453.69140625 -10 453.69140625 -10 302.69140625 -10 c 128,-1,9
 151.69140625 -10 151.69140625 -10 86.0849609375 80.5 c 128,-1,10
 20.478515625 171 20.478515625 171 57.1865234375 330 c 128,-1,11
 93.89453125 489 93.89453125 489 201.288085938 579.5 c 128,-1,4
 308.681640625 670 308.681640625 670 459.681640625 670 c 128,-1,5
428.514648438 535 m 128,-1,13
 356.514648438 535 356.514648438 535 306.509765625 483 c 128,-1,14
 256.50390625 431 256.50390625 431 233.186523438 330 c 128,-1,15
 209.869140625 229 209.869140625 229 235.86328125 177 c 128,-1,16
 261.858398438 125 261.858398438 125 333.858398438 125 c 128,-1,17
 405.858398438 125 405.858398438 125 455.36328125 177 c 128,-1,18
 504.869140625 229 504.869140625 229 528.186523438 330 c 128,-1,19
 551.50390625 431 551.50390625 431 526.009765625 483 c 128,-1,12
 500.514648438 535 500.514648438 535 428.514648438 535 c 128,-1,13
EndSplineSet
Substitution2: "'c2sc' Capitals to Small Capitals lookup 11 subtable" ograve.sc
Substitution2: "'aalt' Access All Alternates lookup 0 subtable" ograve.sc
EndChar

StartChar: Oacute
Encoding: 211 211 149
Width: 737
GlyphClass: 2
Flags: W
LayerCount: 2
Fore
SplineSet
491.625976562 882 m 1,0,-1
 652.625976562 882 l 1,1,-1
 523.91796875 723 l 1,2,-1
 399.91796875 723 l 1,3,-1
 491.625976562 882 l 1,0,-1
459.681640625 670 m 128,-1,5
 610.681640625 670 610.681640625 670 675.788085938 579.5 c 128,-1,6
 740.89453125 489 740.89453125 489 704.186523438 330 c 128,-1,7
 667.478515625 171 667.478515625 171 560.584960938 80.5 c 128,-1,8
 453.69140625 -10 453.69140625 -10 302.69140625 -10 c 128,-1,9
 151.69140625 -10 151.69140625 -10 86.0849609375 80.5 c 128,-1,10
 20.478515625 171 20.478515625 171 57.1865234375 330 c 128,-1,11
 93.89453125 489 93.89453125 489 201.288085938 579.5 c 128,-1,4
 308.681640625 670 308.681640625 670 459.681640625 670 c 128,-1,5
428.514648438 535 m 128,-1,13
 356.514648438 535 356.514648438 535 306.509765625 483 c 128,-1,14
 256.50390625 431 256.50390625 431 233.186523438 330 c 128,-1,15
 209.869140625 229 209.869140625 229 235.86328125 177 c 128,-1,16
 261.858398438 125 261.858398438 125 333.858398438 125 c 128,-1,17
 405.858398438 125 405.858398438 125 455.36328125 177 c 128,-1,18
 504.869140625 229 504.869140625 229 528.186523438 330 c 128,-1,19
 551.50390625 431 551.50390625 431 526.009765625 483 c 128,-1,12
 500.514648438 535 500.514648438 535 428.514648438 535 c 128,-1,13
EndSplineSet
Substitution2: "'c2sc' Capitals to Small Capitals lookup 11 subtable" oacute.sc
Substitution2: "'aalt' Access All Alternates lookup 0 subtable" oacute.sc
EndChar

StartChar: Ocircumflex
Encoding: 212 212 150
Width: 737
GlyphClass: 2
Flags: W
LayerCount: 2
Fore
SplineSet
663.994140625 719 m 1,0,-1
 537.994140625 719 l 1,1,-1
 491.310546875 807 l 1,2,-1
 403.994140625 719 l 1,3,-1
 277.994140625 719 l 1,4,-1
 427.548828125 886 l 1,5,-1
 591.548828125 886 l 1,6,-1
 663.994140625 719 l 1,0,-1
459.681640625 670 m 128,-1,8
 610.681640625 670 610.681640625 670 675.788085938 579.5 c 128,-1,9
 740.89453125 489 740.89453125 489 704.186523438 330 c 128,-1,10
 667.478515625 171 667.478515625 171 560.584960938 80.5 c 128,-1,11
 453.69140625 -10 453.69140625 -10 302.69140625 -10 c 128,-1,12
 151.69140625 -10 151.69140625 -10 86.0849609375 80.5 c 128,-1,13
 20.478515625 171 20.478515625 171 57.1865234375 330 c 128,-1,14
 93.89453125 489 93.89453125 489 201.288085938 579.5 c 128,-1,7
 308.681640625 670 308.681640625 670 459.681640625 670 c 128,-1,8
428.514648438 535 m 128,-1,16
 356.514648438 535 356.514648438 535 306.509765625 483 c 128,-1,17
 256.50390625 431 256.50390625 431 233.186523438 330 c 128,-1,18
 209.869140625 229 209.869140625 229 235.86328125 177 c 128,-1,19
 261.858398438 125 261.858398438 125 333.858398438 125 c 128,-1,20
 405.858398438 125 405.858398438 125 455.36328125 177 c 128,-1,21
 504.869140625 229 504.869140625 229 528.186523438 330 c 128,-1,22
 551.50390625 431 551.50390625 431 526.009765625 483 c 128,-1,15
 500.514648438 535 500.514648438 535 428.514648438 535 c 128,-1,16
EndSplineSet
Substitution2: "'c2sc' Capitals to Small Capitals lookup 11 subtable" ocircumflex.sc
Substitution2: "'aalt' Access All Alternates lookup 0 subtable" ocircumflex.sc
EndChar

StartChar: Otilde
Encoding: 213 213 151
Width: 737
GlyphClass: 2
Flags: W
LayerCount: 2
Fore
SplineSet
704.702148438 878 m 1,0,1
 661.994140625 719 661.994140625 719 535.994140625 719 c 0,2,3
 502.994140625 719 502.994140625 719 482.341796875 733.5 c 128,-1,4
 461.689453125 748 461.689453125 748 447.921875 762 c 128,-1,5
 434.153320312 776 434.153320312 776 418.153320312 776 c 0,6,7
 387.153320312 776 387.153320312 776 368.224609375 720 c 1,8,-1
 272.224609375 720 l 1,9,10
 314.93359375 879 314.93359375 879 440.93359375 879 c 0,11,12
 473.93359375 879 473.93359375 879 495.0859375 864.5 c 128,-1,13
 516.23828125 850 516.23828125 850 529.505859375 836 c 128,-1,14
 542.7734375 822 542.7734375 822 557.7734375 822 c 0,15,16
 589.7734375 822 589.7734375 822 608.702148438 878 c 1,17,-1
 704.702148438 878 l 1,0,1
459.681640625 670 m 128,-1,19
 610.681640625 670 610.681640625 670 675.788085938 579.5 c 128,-1,20
 740.89453125 489 740.89453125 489 704.186523438 330 c 128,-1,21
 667.478515625 171 667.478515625 171 560.584960938 80.5 c 128,-1,22
 453.69140625 -10 453.69140625 -10 302.69140625 -10 c 128,-1,23
 151.69140625 -10 151.69140625 -10 86.0849609375 80.5 c 128,-1,24
 20.478515625 171 20.478515625 171 57.1865234375 330 c 128,-1,25
 93.89453125 489 93.89453125 489 201.288085938 579.5 c 128,-1,18
 308.681640625 670 308.681640625 670 459.681640625 670 c 128,-1,19
428.514648438 535 m 128,-1,27
 356.514648438 535 356.514648438 535 306.509765625 483 c 128,-1,28
 256.50390625 431 256.50390625 431 233.186523438 330 c 128,-1,29
 209.869140625 229 209.869140625 229 235.86328125 177 c 128,-1,30
 261.858398438 125 261.858398438 125 333.858398438 125 c 128,-1,31
 405.858398438 125 405.858398438 125 455.36328125 177 c 128,-1,32
 504.869140625 229 504.869140625 229 528.186523438 330 c 128,-1,33
 551.50390625 431 551.50390625 431 526.009765625 483 c 128,-1,26
 500.514648438 535 500.514648438 535 428.514648438 535 c 128,-1,27
EndSplineSet
Substitution2: "'c2sc' Capitals to Small Capitals lookup 11 subtable" otilde.sc
Substitution2: "'aalt' Access All Alternates lookup 0 subtable" otilde.sc
EndChar

StartChar: Odieresis
Encoding: 214 214 152
Width: 737
GlyphClass: 2
Flags: W
LayerCount: 2
Fore
SplineSet
393.85546875 870 m 0,0,1
 433.85546875 870 433.85546875 870 452.122070312 849.5 c 128,-1,2
 470.389648438 829 470.389648438 829 462.078125 793 c 128,-1,3
 453.767578125 757 453.767578125 757 426.034179688 736.5 c 128,-1,4
 398.301757812 716 398.301757812 716 358.301757812 716 c 0,5,6
 319.301757812 716 319.301757812 716 301.534179688 736.5 c 128,-1,7
 283.767578125 757 283.767578125 757 292.078125 793 c 128,-1,8
 300.389648438 829 300.389648438 829 327.622070312 849.5 c 128,-1,9
 354.85546875 870 354.85546875 870 393.85546875 870 c 0,0,1
613.85546875 870 m 0,10,11
 653.85546875 870 653.85546875 870 672.122070312 849.5 c 128,-1,12
 690.389648438 829 690.389648438 829 682.078125 793 c 128,-1,13
 673.767578125 757 673.767578125 757 646.034179688 736.5 c 128,-1,14
 618.301757812 716 618.301757812 716 578.301757812 716 c 0,15,16
 539.301757812 716 539.301757812 716 521.534179688 736.5 c 128,-1,17
 503.767578125 757 503.767578125 757 512.078125 793 c 128,-1,18
 520.389648438 829 520.389648438 829 547.622070312 849.5 c 128,-1,19
 574.85546875 870 574.85546875 870 613.85546875 870 c 0,10,11
459.681640625 670 m 128,-1,21
 610.681640625 670 610.681640625 670 675.788085938 579.5 c 128,-1,22
 740.89453125 489 740.89453125 489 704.186523438 330 c 128,-1,23
 667.478515625 171 667.478515625 171 560.584960938 80.5 c 128,-1,24
 453.69140625 -10 453.69140625 -10 302.69140625 -10 c 128,-1,25
 151.69140625 -10 151.69140625 -10 86.0849609375 80.5 c 128,-1,26
 20.478515625 171 20.478515625 171 57.1865234375 330 c 128,-1,27
 93.89453125 489 93.89453125 489 201.288085938 579.5 c 128,-1,20
 308.681640625 670 308.681640625 670 459.681640625 670 c 128,-1,21
428.514648438 535 m 128,-1,29
 356.514648438 535 356.514648438 535 306.509765625 483 c 128,-1,30
 256.50390625 431 256.50390625 431 233.186523438 330 c 128,-1,31
 209.869140625 229 209.869140625 229 235.86328125 177 c 128,-1,32
 261.858398438 125 261.858398438 125 333.858398438 125 c 128,-1,33
 405.858398438 125 405.858398438 125 455.36328125 177 c 128,-1,34
 504.869140625 229 504.869140625 229 528.186523438 330 c 128,-1,35
 551.50390625 431 551.50390625 431 526.009765625 483 c 128,-1,28
 500.514648438 535 500.514648438 535 428.514648438 535 c 128,-1,29
EndSplineSet
Substitution2: "'titl' Titling lookup 41 subtable" Odieresis.titl
Substitution2: "'c2sc' Capitals to Small Capitals lookup 11 subtable" odieresis.sc
AlternateSubs2: "'aalt' Access All Alternates lookup 1 subtable" odieresis.sc Odieresis.titl
EndChar

StartChar: multiply
Encoding: 215 215 153
Width: 604
GlyphClass: 2
Flags: W
LayerCount: 2
Fore
SplineSet
597.278320312 482 m 1,0,-1
 405.262695312 326 l 1,1,-1
 525.248046875 170 l 1,2,-1
 412.0078125 78 l 1,3,-1
 292.0234375 234 l 1,4,-1
 100.0078125 78 l 1,5,-1
 29.248046875 170 l 1,6,-1
 221.262695312 326 l 1,7,-1
 101.278320312 482 l 1,8,-1
 214.518554688 574 l 1,9,-1
 334.502929688 418 l 1,10,-1
 526.518554688 574 l 1,11,-1
 597.278320312 482 l 1,0,-1
EndSplineSet
EndChar

StartChar: Oslash
Encoding: 216 216 154
Width: 737
GlyphClass: 2
Flags: W
LayerCount: 2
Fore
SplineSet
671.827148438 584 m 1,0,1
 742.279296875 495 742.279296875 495 704.186523438 330 c 0,2,3
 667.478515625 171 667.478515625 171 560.584960938 80.5 c 128,-1,4
 453.69140625 -10 453.69140625 -10 302.69140625 -10 c 0,5,6
 201.69140625 -10 201.69140625 -10 136.387695312 32 c 1,7,-1
 79.7666015625 -27 l 1,8,-1
 -6.2333984375 -27 l 1,9,-1
 90.083984375 74 l 1,10,11
 19.32421875 166 19.32421875 166 57.1865234375 330 c 0,12,13
 93.89453125 489 93.89453125 489 201.288085938 579.5 c 128,-1,14
 308.681640625 670 308.681640625 670 459.681640625 670 c 0,15,16
 563.681640625 670 563.681640625 670 627.5234375 626 c 1,17,-1
 679.221679688 681 l 1,18,-1
 765.221679688 681 l 1,19,-1
 671.827148438 584 l 1,0,1
428.514648438 535 m 0,20,21
 356.514648438 535 356.514648438 535 306.509765625 483 c 128,-1,22
 256.50390625 431 256.50390625 431 233.186523438 330 c 0,23,24
 215.87109375 255 215.87109375 255 225.790039062 207 c 1,25,-1
 507.28125 508 l 1,26,27
 480.514648438 535 480.514648438 535 428.514648438 535 c 0,20,21
333.858398438 125 m 0,28,29
 405.858398438 125 405.858398438 125 455.36328125 177 c 128,-1,30
 504.869140625 229 504.869140625 229 528.186523438 330 c 0,31,32
 544.116210938 399 544.116210938 399 536.966796875 446 c 1,33,-1
 258.168945312 148 l 1,34,35
 284.858398438 125 284.858398438 125 333.858398438 125 c 0,28,29
EndSplineSet
Substitution2: "'c2sc' Capitals to Small Capitals lookup 11 subtable" oslash.sc
Substitution2: "'aalt' Access All Alternates lookup 0 subtable" oslash.sc
EndChar

StartChar: Ugrave
Encoding: 217 217 155
Width: 713
GlyphClass: 2
Flags: W
LayerCount: 2
Fore
SplineSet
496.625976562 882 m 1,0,-1
 514.91796875 723 l 1,1,-1
 390.91796875 723 l 1,2,-1
 335.625976562 882 l 1,3,-1
 496.625976562 882 l 1,0,-1
739.373046875 660 m 1,4,-1
 649.103515625 269 l 2,5,6
 584.69140625 -10 584.69140625 -10 289.69140625 -10 c 128,-1,7
 -5.30859375 -10 -5.30859375 -10 59.103515625 269 c 2,8,-1
 149.373046875 660 l 1,9,-1
 322.373046875 660 l 1,10,-1
 231.411132812 266 l 2,11,12
 198.858398438 125 198.858398438 125 320.858398438 125 c 0,13,14
 444.858398438 125 444.858398438 125 477.411132812 266 c 2,15,-1
 568.373046875 660 l 1,16,-1
 739.373046875 660 l 1,4,-1
EndSplineSet
Substitution2: "'c2sc' Capitals to Small Capitals lookup 11 subtable" ugrave.sc
Substitution2: "'aalt' Access All Alternates lookup 0 subtable" ugrave.sc
EndChar

StartChar: Uacute
Encoding: 218 218 156
Width: 713
GlyphClass: 2
Flags: W
LayerCount: 2
Fore
SplineSet
479.625976562 882 m 1,0,-1
 640.625976562 882 l 1,1,-1
 511.91796875 723 l 1,2,-1
 387.91796875 723 l 1,3,-1
 479.625976562 882 l 1,0,-1
739.373046875 660 m 1,4,-1
 649.103515625 269 l 2,5,6
 584.69140625 -10 584.69140625 -10 289.69140625 -10 c 128,-1,7
 -5.30859375 -10 -5.30859375 -10 59.103515625 269 c 2,8,-1
 149.373046875 660 l 1,9,-1
 322.373046875 660 l 1,10,-1
 231.411132812 266 l 2,11,12
 198.858398438 125 198.858398438 125 320.858398438 125 c 0,13,14
 444.858398438 125 444.858398438 125 477.411132812 266 c 2,15,-1
 568.373046875 660 l 1,16,-1
 739.373046875 660 l 1,4,-1
EndSplineSet
Substitution2: "'c2sc' Capitals to Small Capitals lookup 11 subtable" uacute.sc
Substitution2: "'aalt' Access All Alternates lookup 0 subtable" uacute.sc
EndChar

StartChar: Ucircumflex
Encoding: 219 219 157
Width: 713
GlyphClass: 2
Flags: W
LayerCount: 2
Fore
SplineSet
650.994140625 719 m 1,0,-1
 524.994140625 719 l 1,1,-1
 478.310546875 807 l 1,2,-1
 390.994140625 719 l 1,3,-1
 264.994140625 719 l 1,4,-1
 414.548828125 886 l 1,5,-1
 578.548828125 886 l 1,6,-1
 650.994140625 719 l 1,0,-1
739.373046875 660 m 1,7,-1
 649.103515625 269 l 2,8,9
 584.69140625 -10 584.69140625 -10 289.69140625 -10 c 128,-1,10
 -5.30859375 -10 -5.30859375 -10 59.103515625 269 c 2,11,-1
 149.373046875 660 l 1,12,-1
 322.373046875 660 l 1,13,-1
 231.411132812 266 l 2,14,15
 198.858398438 125 198.858398438 125 320.858398438 125 c 0,16,17
 444.858398438 125 444.858398438 125 477.411132812 266 c 2,18,-1
 568.373046875 660 l 1,19,-1
 739.373046875 660 l 1,7,-1
EndSplineSet
Substitution2: "'c2sc' Capitals to Small Capitals lookup 11 subtable" ucircumflex.sc
Substitution2: "'aalt' Access All Alternates lookup 0 subtable" ucircumflex.sc
EndChar

StartChar: Udieresis
Encoding: 220 220 158
Width: 713
GlyphClass: 2
Flags: W
LayerCount: 2
Fore
SplineSet
381.85546875 870 m 0,0,1
 421.85546875 870 421.85546875 870 440.122070312 849.5 c 128,-1,2
 458.389648438 829 458.389648438 829 450.078125 793 c 128,-1,3
 441.767578125 757 441.767578125 757 414.034179688 736.5 c 128,-1,4
 386.301757812 716 386.301757812 716 346.301757812 716 c 0,5,6
 307.301757812 716 307.301757812 716 289.534179688 736.5 c 128,-1,7
 271.767578125 757 271.767578125 757 280.078125 793 c 128,-1,8
 288.389648438 829 288.389648438 829 315.622070312 849.5 c 128,-1,9
 342.85546875 870 342.85546875 870 381.85546875 870 c 0,0,1
601.85546875 870 m 0,10,11
 641.85546875 870 641.85546875 870 660.122070312 849.5 c 128,-1,12
 678.389648438 829 678.389648438 829 670.078125 793 c 128,-1,13
 661.767578125 757 661.767578125 757 634.034179688 736.5 c 128,-1,14
 606.301757812 716 606.301757812 716 566.301757812 716 c 0,15,16
 527.301757812 716 527.301757812 716 509.534179688 736.5 c 128,-1,17
 491.767578125 757 491.767578125 757 500.078125 793 c 128,-1,18
 508.389648438 829 508.389648438 829 535.622070312 849.5 c 128,-1,19
 562.85546875 870 562.85546875 870 601.85546875 870 c 0,10,11
739.373046875 660 m 1,20,-1
 649.103515625 269 l 2,21,22
 584.69140625 -10 584.69140625 -10 289.69140625 -10 c 128,-1,23
 -5.30859375 -10 -5.30859375 -10 59.103515625 269 c 2,24,-1
 149.373046875 660 l 1,25,-1
 322.373046875 660 l 1,26,-1
 231.411132812 266 l 2,27,28
 198.858398438 125 198.858398438 125 320.858398438 125 c 0,29,30
 444.858398438 125 444.858398438 125 477.411132812 266 c 2,31,-1
 568.373046875 660 l 1,32,-1
 739.373046875 660 l 1,20,-1
EndSplineSet
Substitution2: "'titl' Titling lookup 41 subtable" Udieresis.titl
Substitution2: "'c2sc' Capitals to Small Capitals lookup 11 subtable" udieresis.sc
AlternateSubs2: "'aalt' Access All Alternates lookup 1 subtable" udieresis.sc Udieresis.titl
EndChar

StartChar: Yacute
Encoding: 221 221 159
Width: 657
GlyphClass: 2
Flags: W
LayerCount: 2
Fore
SplineSet
450.625976562 882 m 1,0,-1
 611.625976562 882 l 1,1,-1
 482.91796875 723 l 1,2,-1
 358.91796875 723 l 1,3,-1
 450.625976562 882 l 1,0,-1
735.373046875 660 m 1,4,-1
 405.639648438 241 l 1,5,-1
 350 0 l 1,6,-1
 178 0 l 1,7,-1
 233.639648438 241 l 1,8,-1
 97.373046875 660 l 1,9,-1
 275.373046875 660 l 1,10,-1
 326.5859375 479 l 1,11,-1
 350.190429688 369 l 1,12,-1
 425.5859375 479 l 1,13,-1
 560.373046875 660 l 1,14,-1
 735.373046875 660 l 1,4,-1
EndSplineSet
Substitution2: "'c2sc' Capitals to Small Capitals lookup 11 subtable" yacute.sc
Substitution2: "'aalt' Access All Alternates lookup 0 subtable" yacute.sc
EndChar

StartChar: Thorn
Encoding: 222 222 160
Width: 666
GlyphClass: 2
Flags: W
LayerCount: 2
Fore
SplineSet
431.055664062 559 m 2,0,1
 558.055664062 559 558.055664062 559 612.51171875 502.5 c 128,-1,2
 666.966796875 446 666.966796875 446 640.802734375 337 c 0,3,4
 616.869140625 229 616.869140625 229 536.208984375 172 c 128,-1,5
 455.549804688 115 455.549804688 115 328.549804688 115 c 2,6,-1
 207.549804688 115 l 1,7,-1
 181 0 l 1,8,-1
 9 0 l 1,9,-1
 161.373046875 660 l 1,10,-1
 333.373046875 660 l 1,11,-1
 310.055664062 559 l 1,12,-1
 431.055664062 559 l 2,0,1
338.100585938 243 m 2,13,14
 446.100585938 243 446.100585938 243 467.802734375 337 c 0,15,16
 489.2734375 430 489.2734375 430 381.2734375 430 c 2,17,-1
 280.2734375 430 l 1,18,-1
 237.100585938 243 l 1,19,-1
 338.100585938 243 l 2,13,14
EndSplineSet
Substitution2: "'c2sc' Capitals to Small Capitals lookup 11 subtable" thorn.sc
Substitution2: "'aalt' Access All Alternates lookup 0 subtable" thorn.sc
EndChar

StartChar: germandbls
Encoding: 223 223 161
Width: 648
GlyphClass: 2
Flags: W
LayerCount: 2
Fore
SplineSet
452.8046875 363 m 1,0,1
 536.8046875 363 536.8046875 363 573.146484375 312.5 c 128,-1,2
 609.487304688 262 609.487304688 262 591.479492188 184 c 0,3,4
 572.548828125 102 572.548828125 102 503.620117188 46 c 128,-1,5
 434.69140625 -10 434.69140625 -10 326.69140625 -10 c 0,6,7
 247.69140625 -10 247.69140625 -10 210.079101562 22 c 1,8,-1
 264.166992188 135 l 1,9,10
 283.857421875 112 283.857421875 112 324.857421875 112 c 128,-1,11
 365.857421875 112 365.857421875 112 394.859375 138 c 128,-1,12
 423.862304688 164 423.862304688 164 433.790039062 207 c 0,13,14
 454.798828125 298 454.798828125 298 347.798828125 298 c 2,15,-1
 298.798828125 298 l 1,16,-1
 343.733398438 419 l 1,17,-1
 374.733398438 419 l 2,18,19
 416.96484375 420 416.96484375 420 446.12109375 444.5 c 128,-1,20
 475.27734375 469 475.27734375 469 484.51171875 509 c 0,21,22
 493.977539062 550 493.977539062 550 475.056640625 572 c 128,-1,23
 456.135742188 594 456.135742188 594 413.135742188 594 c 0,24,25
 353.135742188 594 353.135742188 594 320.786132812 560 c 128,-1,26
 288.436523438 526 288.436523438 526 270.428710938 448 c 2,27,-1
 167 0 l 1,28,-1
 -3 0 l 1,29,-1
 103.430664062 461 l 2,30,31
 132.2890625 586 132.2890625 586 213.91015625 651.5 c 128,-1,32
 295.532226562 717 295.532226562 717 445.532226562 717 c 0,33,34
 567.532226562 717 567.532226562 717 619.950195312 662.5 c 128,-1,35
 672.368164062 608 672.368164062 608 652.974609375 524 c 0,36,37
 638.19921875 460 638.19921875 460 583.733398438 412.5 c 128,-1,38
 529.266601562 365 529.266601562 365 453.266601562 365 c 1,39,-1
 452.8046875 363 l 1,0,1
EndSplineSet
Substitution2: "Single Substitution lookup 57 subtable" germandbls.calt
Substitution2: "'smcp' Lowercase to Small Capitals lookup 12 subtable" germandbls.sc
AlternateSubs2: "'aalt' Access All Alternates lookup 1 subtable" germandbls.sc germandbls.calt
EndChar

StartChar: agrave
Encoding: 224 224 162
Width: 581
GlyphClass: 2
Flags: W
LayerCount: 2
Fore
SplineSet
409.440429688 565 m 1,0,-1
 285.440429688 565 l 1,1,-1
 224.380859375 738 l 1,2,-1
 382.380859375 738 l 1,3,-1
 409.440429688 565 l 1,0,-1
502.39453125 97 m 0,4,5
 521.39453125 97 521.39453125 97 534.317382812 101 c 1,6,-1
 499.384765625 6 l 1,7,8
 466.69140625 -10 466.69140625 -10 427.69140625 -10 c 0,9,10
 319.69140625 -10 319.69140625 -10 316.467773438 67 c 1,11,12
 253.69140625 -10 253.69140625 -10 120.69140625 -10 c 0,13,14
 45.69140625 -10 45.69140625 -10 13.0791015625 22 c 128,-1,15
 -19.533203125 54 -19.533203125 54 -5.4501953125 115 c 0,16,17
 9.3251953125 179 9.3251953125 179 63.9443359375 218.5 c 128,-1,18
 118.564453125 258 118.564453125 258 227.412109375 279 c 2,19,-1
 345.491210938 301 l 1,20,-1
 349.646484375 319 l 2,21,22
 357.49609375 353 357.49609375 353 343.114257812 373 c 128,-1,23
 328.731445312 393 328.731445312 393 295.731445312 393 c 0,24,25
 215.731445312 393 215.731445312 393 184.954101562 316 c 1,26,-1
 56.189453125 356 l 1,27,28
 86.0419921875 429 86.0419921875 429 154.392578125 469.5 c 128,-1,29
 222.743164062 510 222.743164062 510 322.743164062 510 c 0,30,31
 561.743164062 510 561.743164062 510 517.416015625 318 c 2,32,-1
 475.3984375 136 l 2,33,34
 466.39453125 97 466.39453125 97 502.39453125 97 c 0,4,5
208.086914062 100 m 0,35,36
 243.086914062 100 243.086914062 100 275.588867188 119.5 c 128,-1,37
 308.090820312 139 308.090820312 139 315.478515625 171 c 2,38,-1
 325.40625 214 l 1,39,-1
 240.01953125 195 l 2,40,41
 206.171875 187 206.171875 187 190.017578125 175.5 c 128,-1,42
 173.862304688 164 173.862304688 164 169.013671875 143 c 0,43,44
 159.086914062 100 159.086914062 100 208.086914062 100 c 0,35,36
EndSplineSet
Substitution2: "'smcp' Lowercase to Small Capitals lookup 12 subtable" agrave.sc
Substitution2: "'aalt' Access All Alternates lookup 0 subtable" agrave.sc
EndChar

StartChar: aacute
Encoding: 225 225 163
Width: 581
GlyphClass: 2
Flags: W
LayerCount: 2
Fore
SplineSet
530.380859375 738 m 1,0,-1
 389.440429688 565 l 1,1,-1
 265.440429688 565 l 1,2,-1
 372.380859375 738 l 1,3,-1
 530.380859375 738 l 1,0,-1
502.39453125 97 m 0,4,5
 521.39453125 97 521.39453125 97 534.317382812 101 c 1,6,-1
 499.384765625 6 l 1,7,8
 466.69140625 -10 466.69140625 -10 427.69140625 -10 c 0,9,10
 319.69140625 -10 319.69140625 -10 316.467773438 67 c 1,11,12
 253.69140625 -10 253.69140625 -10 120.69140625 -10 c 0,13,14
 45.69140625 -10 45.69140625 -10 13.0791015625 22 c 128,-1,15
 -19.533203125 54 -19.533203125 54 -5.4501953125 115 c 0,16,17
 9.3251953125 179 9.3251953125 179 63.9443359375 218.5 c 128,-1,18
 118.564453125 258 118.564453125 258 227.412109375 279 c 2,19,-1
 345.491210938 301 l 1,20,-1
 349.646484375 319 l 2,21,22
 357.49609375 353 357.49609375 353 343.114257812 373 c 128,-1,23
 328.731445312 393 328.731445312 393 295.731445312 393 c 0,24,25
 215.731445312 393 215.731445312 393 184.954101562 316 c 1,26,-1
 56.189453125 356 l 1,27,28
 86.0419921875 429 86.0419921875 429 154.392578125 469.5 c 128,-1,29
 222.743164062 510 222.743164062 510 322.743164062 510 c 0,30,31
 561.743164062 510 561.743164062 510 517.416015625 318 c 2,32,-1
 475.3984375 136 l 2,33,34
 466.39453125 97 466.39453125 97 502.39453125 97 c 0,4,5
208.086914062 100 m 0,35,36
 243.086914062 100 243.086914062 100 275.588867188 119.5 c 128,-1,37
 308.090820312 139 308.090820312 139 315.478515625 171 c 2,38,-1
 325.40625 214 l 1,39,-1
 240.01953125 195 l 2,40,41
 206.171875 187 206.171875 187 190.017578125 175.5 c 128,-1,42
 173.862304688 164 173.862304688 164 169.013671875 143 c 0,43,44
 159.086914062 100 159.086914062 100 208.086914062 100 c 0,35,36
EndSplineSet
Substitution2: "'smcp' Lowercase to Small Capitals lookup 12 subtable" aacute.sc
Substitution2: "'aalt' Access All Alternates lookup 0 subtable" aacute.sc
EndChar

StartChar: acircumflex
Encoding: 226 226 164
Width: 581
GlyphClass: 2
Flags: W
LayerCount: 2
Fore
SplineSet
361.140625 646 m 1,0,-1
 273.055664062 559 l 1,1,-1
 150.055664062 559 l 1,2,-1
 297.995117188 732 l 1,3,-1
 463.995117188 732 l 1,4,-1
 532.055664062 559 l 1,5,-1
 409.055664062 559 l 1,6,-1
 361.140625 646 l 1,0,-1
502.39453125 97 m 0,7,8
 521.39453125 97 521.39453125 97 534.317382812 101 c 1,9,-1
 499.384765625 6 l 1,10,11
 466.69140625 -10 466.69140625 -10 427.69140625 -10 c 0,12,13
 319.69140625 -10 319.69140625 -10 316.467773438 67 c 1,14,15
 253.69140625 -10 253.69140625 -10 120.69140625 -10 c 0,16,17
 45.69140625 -10 45.69140625 -10 13.0791015625 22 c 128,-1,18
 -19.533203125 54 -19.533203125 54 -5.4501953125 115 c 0,19,20
 9.3251953125 179 9.3251953125 179 63.9443359375 218.5 c 128,-1,21
 118.564453125 258 118.564453125 258 227.412109375 279 c 2,22,-1
 345.491210938 301 l 1,23,-1
 349.646484375 319 l 2,24,25
 357.49609375 353 357.49609375 353 343.114257812 373 c 128,-1,26
 328.731445312 393 328.731445312 393 295.731445312 393 c 0,27,28
 215.731445312 393 215.731445312 393 184.954101562 316 c 1,29,-1
 56.189453125 356 l 1,30,31
 86.0419921875 429 86.0419921875 429 154.392578125 469.5 c 128,-1,32
 222.743164062 510 222.743164062 510 322.743164062 510 c 0,33,34
 561.743164062 510 561.743164062 510 517.416015625 318 c 2,35,-1
 475.3984375 136 l 2,36,37
 466.39453125 97 466.39453125 97 502.39453125 97 c 0,7,8
208.086914062 100 m 0,38,39
 243.086914062 100 243.086914062 100 275.588867188 119.5 c 128,-1,40
 308.090820312 139 308.090820312 139 315.478515625 171 c 2,41,-1
 325.40625 214 l 1,42,-1
 240.01953125 195 l 2,43,44
 206.171875 187 206.171875 187 190.017578125 175.5 c 128,-1,45
 173.862304688 164 173.862304688 164 169.013671875 143 c 0,46,47
 159.086914062 100 159.086914062 100 208.086914062 100 c 0,38,39
EndSplineSet
Substitution2: "'smcp' Lowercase to Small Capitals lookup 12 subtable" acircumflex.sc
Substitution2: "'aalt' Access All Alternates lookup 0 subtable" acircumflex.sc
EndChar

StartChar: atilde
Encoding: 227 227 165
Width: 581
GlyphClass: 2
Flags: W
LayerCount: 2
Fore
SplineSet
289.21484375 616 m 0,0,1
 258.21484375 616 258.21484375 616 239.286132812 560 c 1,2,-1
 143.286132812 560 l 1,3,4
 185.994140625 719 185.994140625 719 311.994140625 719 c 0,5,6
 344.994140625 719 344.994140625 719 366.146484375 704.5 c 128,-1,7
 387.298828125 690 387.298828125 690 400.567382812 676 c 128,-1,8
 413.834960938 662 413.834960938 662 428.834960938 662 c 0,9,10
 460.834960938 662 460.834960938 662 479.763671875 718 c 1,11,-1
 575.763671875 718 l 1,12,13
 533.055664062 559 533.055664062 559 407.055664062 559 c 0,14,15
 374.055664062 559 374.055664062 559 353.403320312 573.5 c 128,-1,16
 332.750976562 588 332.750976562 588 318.982421875 602 c 128,-1,17
 305.21484375 616 305.21484375 616 289.21484375 616 c 0,0,1
502.39453125 97 m 0,18,19
 521.39453125 97 521.39453125 97 534.317382812 101 c 1,20,-1
 499.384765625 6 l 1,21,22
 466.69140625 -10 466.69140625 -10 427.69140625 -10 c 0,23,24
 319.69140625 -10 319.69140625 -10 316.467773438 67 c 1,25,26
 253.69140625 -10 253.69140625 -10 120.69140625 -10 c 0,27,28
 45.69140625 -10 45.69140625 -10 13.0791015625 22 c 128,-1,29
 -19.533203125 54 -19.533203125 54 -5.4501953125 115 c 0,30,31
 9.3251953125 179 9.3251953125 179 63.9443359375 218.5 c 128,-1,32
 118.564453125 258 118.564453125 258 227.412109375 279 c 2,33,-1
 345.491210938 301 l 1,34,-1
 349.646484375 319 l 2,35,36
 357.49609375 353 357.49609375 353 343.114257812 373 c 128,-1,37
 328.731445312 393 328.731445312 393 295.731445312 393 c 0,38,39
 215.731445312 393 215.731445312 393 184.954101562 316 c 1,40,-1
 56.189453125 356 l 1,41,42
 86.0419921875 429 86.0419921875 429 154.392578125 469.5 c 128,-1,43
 222.743164062 510 222.743164062 510 322.743164062 510 c 0,44,45
 561.743164062 510 561.743164062 510 517.416015625 318 c 2,46,-1
 475.3984375 136 l 2,47,48
 466.39453125 97 466.39453125 97 502.39453125 97 c 0,18,19
208.086914062 100 m 0,49,50
 243.086914062 100 243.086914062 100 275.588867188 119.5 c 128,-1,51
 308.090820312 139 308.090820312 139 315.478515625 171 c 2,52,-1
 325.40625 214 l 1,53,-1
 240.01953125 195 l 2,54,55
 206.171875 187 206.171875 187 190.017578125 175.5 c 128,-1,56
 173.862304688 164 173.862304688 164 169.013671875 143 c 0,57,58
 159.086914062 100 159.086914062 100 208.086914062 100 c 0,49,50
EndSplineSet
Substitution2: "'smcp' Lowercase to Small Capitals lookup 12 subtable" atilde.sc
Substitution2: "'aalt' Access All Alternates lookup 0 subtable" atilde.sc
EndChar

